<svg id="Layer_1" data-name="Layer 1" xmlns="http://www.w3.org/2000/svg" viewBox="0 0 151.43 151.46"><defs><style>.cls-1{font-size:12.88px;fill:#fffffb;font-family:BookAntiqua-Bold, Book Antiqua;font-weight:700;}</style></defs><title>ani-text</title><text class="cls-1" transform="translate(55.31 13.85) rotate(-13.47)">D</text><text class="cls-1" transform="matrix(0.99, -0.1, 0.1, 0.99, 65.79, 11.49)">a</text><text class="cls-1" transform="translate(72.3 10.87) rotate(-1.09)">i</text><text class="cls-1" transform="translate(76.75 10.79) rotate(2.77)">l</text><text class="cls-1" transform="translate(81.13 10.94) rotate(7.88)">y</text><text class="cls-1" transform="translate(88.33 12.02) rotate(12.57)"> </text><text class="cls-1" transform="translate(91.59 12.55) rotate(18.83)">H</text><text class="cls-1" transform="matrix(0.9, 0.45, -0.45, 0.9, 101.7, 16.14)">a</text><text class="cls-1" transform="matrix(0.84, 0.54, -0.54, 0.84, 107.54, 19.01)">p</text><text class="cls-1" transform="translate(114.19 23.3) rotate(39.77)">p</text><text class="cls-1" transform="matrix(0.7, 0.71, -0.71, 0.7, 120.24, 28.45)">i</text><text class="cls-1" transform="matrix(0.64, 0.77, -0.77, 0.64, 123.38, 31.5)">n</text><text class="cls-1" transform="translate(128.38 37.64) rotate(56.9)">e</text><text class="cls-1" transform="translate(131.93 43.13) rotate(62.36)">s</text><text class="cls-1" transform="translate(134.62 48.29) rotate(67.51)">s</text><text class="cls-1" transform="translate(136.82 53.72) rotate(71.61)"> </text><text class="cls-1" transform="matrix(0.25, 0.97, -0.97, 0.25, 137.9, 56.9)">I</text><text class="cls-1" transform="matrix(0.15, 0.99, -0.99, 0.15, 139.25, 61.82)">n</text><text class="cls-1" transform="translate(140.37 69.71) rotate(86.15)"> </text><text class="cls-1" transform="translate(140.71 73.02) rotate(91.36)">T</text><text class="cls-1" transform="translate(140.48 81.64) rotate(98.6)">h</text><text class="cls-1" transform="translate(139.26 89.44) rotate(104.96)">e</text><text class="cls-1" transform="translate(137.5 95.78) rotate(109.38)"> </text><text class="cls-1" transform="translate(136.46 98.97) rotate(114.11)">F</text><text class="cls-1" transform="matrix(-0.49, 0.87, -0.87, -0.49, 133.44, 105.55)">l</text><text class="cls-1" transform="matrix(-0.56, 0.83, -0.83, -0.56, 131.32, 109.42)">e</text><text class="cls-1" transform="matrix(-0.65, 0.76, -0.76, -0.65, 127.69, 114.83)">u</text><text class="cls-1" transform="matrix(-0.72, 0.69, -0.69, -0.72, 122.5, 120.82)">r</text><text class="cls-1" transform="matrix(-0.76, 0.64, -0.64, -0.76, 118.75, 124.37)"> </text><text class="cls-1" transform="matrix(-0.8, 0.6, -0.6, -0.8, 116.14, 126.56)"> </text><text class="cls-1" transform="matrix(-0.86, 0.51, -0.51, -0.86, 113.63, 128.71)">D</text><text class="cls-1" transform="translate(104.36 134.11) rotate(156.66)">a</text><text class="cls-1" transform="translate(98.32 136.66) rotate(161.52)">i</text><text class="cls-1" transform="matrix(-0.97, 0.25, -0.25, -0.97, 94.12, 138.05)">l</text><text class="cls-1" transform="matrix(-0.99, 0.16, -0.16, -0.99, 89.88, 139.22)">y</text><text class="cls-1" transform="translate(82.69 140.32) rotate(175.31)"> </text><text class="cls-1" transform="translate(79.42 140.78) rotate(-178.57)">H</text><text class="cls-1" transform="translate(68.69 140.37) rotate(-171.04)">a</text><text class="cls-1" transform="translate(62.28 139.4) rotate(-164.66)">p</text><text class="cls-1" transform="translate(54.66 137.31) rotate(-157.64)">p</text><text class="cls-1" transform="translate(47.35 134.2) rotate(-152.18)">i</text><text class="cls-1" transform="translate(43.42 132.22) rotate(-146.73)">n</text><text class="cls-1" transform="matrix(-0.77, -0.64, 0.64, -0.77, 36.81, 127.83)">e</text><text class="cls-1" transform="matrix(-0.71, -0.71, 0.71, -0.71, 31.8, 123.66)">s</text><text class="cls-1" transform="matrix(-0.64, -0.77, 0.77, -0.64, 27.68, 119.53)">s</text><text class="cls-1" transform="matrix(-0.59, -0.81, 0.81, -0.59, 23.98, 115.03)"> </text><text class="cls-1" transform="translate(21.98 112.3) rotate(-122.08)">I</text><text class="cls-1" transform="matrix(-0.44, -0.9, 0.9, -0.44, 19.22, 108.01)">n</text><text class="cls-1" transform="translate(15.78 100.82) rotate(-111.3)"> </text><text class="cls-1" transform="matrix(-0.28, -0.96, 0.96, -0.28, 14.47, 97.79)">T</text><text class="cls-1" transform="translate(12.11 89.49) rotate(-98.66)">h</text><text class="cls-1" transform="translate(10.96 81.65) rotate(-92.34)">e</text><text class="cls-1" transform="translate(10.76 75.07) rotate(-88.03)"> </text><text class="cls-1" transform="matrix(0.12, -0.99, 0.99, 0.12, 10.8, 71.74)">F</text><text class="cls-1" transform="translate(11.71 64.53) rotate(-78.23)">l</text><text class="cls-1" transform="translate(12.56 60.21) rotate(-73.37)">e</text><text class="cls-1" transform="translate(14.39 53.98) rotate(-66.96)">u</text><text class="cls-1" transform="matrix(0.48, -0.88, 0.88, 0.48, 17.56, 46.71)">r</text><text class="cls-1" transform="matrix(0.54, -0.84, 0.84, 0.54, 20.09, 42.19)"> </text><text class="cls-1" transform="matrix(0.58, -0.81, 0.81, 0.58, 21.92, 39.33)"> </text><text class="cls-1" transform="matrix(0.67, -0.75, 0.75, 0.67, 23.67, 36.54)">D</text><text class="cls-1" transform="translate(30.92 28.62) rotate(-40.73)">a</text><text class="cls-1" transform="matrix(0.81, -0.59, 0.59, 0.81, 35.91, 24.39)">i</text><text class="cls-1" transform="translate(39.51 21.79) rotate(-32.02)">l</text><text class="cls-1" transform="translate(43.21 19.4) rotate(-26.86)">y</text><text class="cls-1" transform="translate(49.74 16.19) rotate(-22.16)"> </text></svg>