<svg id="Layer_1" data-name="Layer 1" xmlns="http://www.w3.org/2000/svg" viewBox="0 0 220.6 230.45"><defs><style>.cls-1,.cls-2{fill:#45501e;}.cls-2{font-size:11px;stroke:#4e6d2a;stroke-miterlimit:10;stroke-width:0.25px;font-family:TrajanPro-Regular, Trajan Pro;}</style></defs><title>logo-01</title><path class="cls-1" d="M143.42,129a22.16,22.16,0,0,0,5.1,2.83,21.15,21.15,0,0,0,4,1.15l1.59.22H145a16.68,16.68,0,0,1-16-11.72c0-.1-.07-.2-.1-.32-2.56-8.84-8.64-11.13-12.5-11.77h-4.71v16.73a8.86,8.86,0,0,0,2.71,5.07,7.2,7.2,0,0,0,5.08,2H98.42a8.6,8.6,0,0,0,8-5.72,6.87,6.87,0,0,0,.32-1.12V83a8.71,8.71,0,0,0-2.93-4.84,8.53,8.53,0,0,0-5.32-2l9.28,0v0h2.34v0h17a14.82,14.82,0,0,1,7.77,2.07,15.84,15.84,0,0,1,5.56,5.59,14.81,14.81,0,0,1,2.1,7.74V94a14.93,14.93,0,0,1-2.1,7.76,15.94,15.94,0,0,1-5.56,5.57,14.82,14.82,0,0,1-7.77,2.07h-9a28.18,28.18,0,0,1,9.13,1.88,14.8,14.8,0,0,1,5.4,3.88,43.24,43.24,0,0,1,4.05,5.69c.56.91,1.17,1.83,1.83,2.84A21.74,21.74,0,0,0,143.42,129Zm-31.69-20.73h8.06a15.85,15.85,0,0,0,15.38-15.67,14.72,14.72,0,0,0-2.08-7.74,15.46,15.46,0,0,0-13.35-7.55l-4-.07a8.64,8.64,0,0,0-4,6Z" transform="translate(4.64 2.43)"/><path class="cls-1" d="M90.78,48.49h.54l9,0A8.64,8.64,0,0,0,92,56v30.1a18.91,18.91,0,0,1-2.24,9.06,19.64,19.64,0,0,1-6,6.83,19.11,19.11,0,0,1-8.6,3.32,16.12,16.12,0,0,1-2.51.17,18.8,18.8,0,0,1-9.06-2.24A19.4,19.4,0,0,1,53.16,86.06V56.59a8.58,8.58,0,0,0-2.61-5.69,8.74,8.74,0,0,0-5.82-2.44l8.57,0h4l9.3,0a8.69,8.69,0,0,0-8.4,7.69V86.06a18.77,18.77,0,0,0,2.49,9.55,19.32,19.32,0,0,0,6.69,6.93l1.39.56a16.63,16.63,0,0,0,3.57.9,13.09,13.09,0,0,0,4.68-.17,17.38,17.38,0,0,0,2.81-.9A19.4,19.4,0,0,0,90.78,85.47V56.35a8.53,8.53,0,0,0-2.71-5.52,8.68,8.68,0,0,0-5.71-2.37ZM76.35,104h0Zm.1,0c.17,0,.32-.08.49-.1Z" transform="translate(4.64 2.43)"/><path class="cls-1" d="M140,70.05v0h0v.08h0c.11-.25.21-.49.31-.74s.23-.6.34-.94l.09-.26.22-.64,0-.07c.1-.29.21-.58.33-.86s.26-.56.43-.88.27-.52.4-.78l.54-1c.09-.18.18-.35.28-.52l.16-.3,0-.06.47-.85a6,6,0,0,1,.48-.72,4.11,4.11,0,0,1,.29-.35,2.25,2.25,0,0,1,.35-.31,2.5,2.5,0,0,1,.34-.23l.42-.21a2.58,2.58,0,0,1,.42-.14l.3-.08.15,0,.46-.15.47-.19.5-.24.48-.27.41-.27.39-.24.88-.55c.53-.33,1-.7,1.55-1.05l.1-.07c.59-.41,1.16-.84,1.64-1.22l.16-.12.05,0,.17-.14.21-.19,0,0c.13-.13.29-.31.45-.49s.29-.37.43-.57l.16-.2c.18-.25.38-.51.58-.76l.24-.29c.17-.2.35-.41.52-.63s.15-.22.21-.32l.09-.18.13-.4c0-.14.06-.28.08-.41s0-.16,0-.25a.31.31,0,0,1,0-.1s0,0,0-.05a.14.14,0,0,1,0-.06v0h-.28l-.17,0-.38.14-.4.14a5.5,5.5,0,0,1-.92.21l-.22,0a1.44,1.44,0,0,1-.57-.06,1.42,1.42,0,0,1-.48-.26,2.15,2.15,0,0,1-.42-.43,3,3,0,0,1-.38-.93l-.06-.19a.25.25,0,0,1,0-.07l0-.07,0,0-.06-.06h0l-.06,0-.1,0-.19,0-.38,0h-.41l-.15,0-.24.09-.4.21-.36.25-.26.23-.08.07,0,.22c0,.15,0,.3-.07.44s-.07.33-.11.51-.1.31-.16.47h0a3.62,3.62,0,0,1-.2.45,5.3,5.3,0,0,1-.28.47c-.09.13-.2.26-.3.39s-.42.46-.65.69-.47.46-.67.64-.51.44-.71.6l-.22.18c-.15.12-.3.24-.44.37a8.55,8.55,0,0,0-.69.64c-.24.25-.46.51-.68.79s-.53.79-.75,1.16l-.7,1.19c-.25.44-.49.89-.69,1.28s-.47.9-.67,1.35c-.09.24-.22.56-.32.9s-.2.66-.29,1-.17.57-.25.84-.22.71-.31,1.06v0c0,.17-.1.39-.15.63s-.07.4-.1.6,0,.6-.08.88l0,.42,0,.23v0c0,.33-.06.66-.06,1h0v0C140,69.56,140,69.81,140,70.05Zm-.27,1.29h0a.37.37,0,0,1-.13-.12.6.6,0,0,1-.13-.45c0-.21,0-.42,0-.63s0-.22,0-.32h0v-.07c0-.18,0-.36,0-.53s0-.58,0-.87v-.11c0-.18,0-.36,0-.55s0-.27,0-.4c0-.35.06-.69.11-1a7.28,7.28,0,0,1,.19-.91c.08-.32.17-.64.26-1l.09-.28.21-.7c.1-.34.19-.65.3-1a9,9,0,0,1,.37-.95,8.52,8.52,0,0,1,.4-.8l0,0c.31-.57.63-1.17,1-1.74s.61-1,1-1.66a11.25,11.25,0,0,1,1.2-1.57l0,0,0,0c.21-.22.43-.42.64-.61l.49-.41.16-.13.63-.55c.2-.18.39-.37.57-.55h0l.48-.5c.13-.15.26-.31.41-.51l.31-.47a2.72,2.72,0,0,0,.16-.35,6.32,6.32,0,0,0,.22-.62c0-.11.06-.25.09-.38v0h0l0,0a2.12,2.12,0,0,1,0-.51,1.45,1.45,0,0,1,.11-.31l0-.44c0-.33,0-.67-.08-1,0-.16-.06-.31-.1-.45a2.09,2.09,0,0,0-.08-.23l-.12-.21c-.08-.13-.17-.25-.26-.37s-.2-.25-.31-.37l-.29-.36a3.23,3.23,0,0,1-.52-.81,4.76,4.76,0,0,1-.3-.93l-.09-.59-.06-.4c0-.08,0-.17-.07-.28l-.06-.19-.08-.16-.07-.1-.08-.09-.09-.07-.1-.07-.16-.08-.34-.1a5.35,5.35,0,0,0-.72-.14l-.29,0h-.16l-.19,0-.13.05-.16.08-.08,0-.09.08,0,0-.06.09,0,.05a.49.49,0,0,0,0,.11l0,.08c0,.13,0,.27,0,.41v.06c0,.41,0,.82.07,1.23,0,.22,0,.46.06.69,0,.4,0,.73,0,1s0,.61-.07.92c-.08.76-.16,1.39-.27,2-.15.81-.25,1.44-.33,2,0,.19-.05.38-.08.56s0,.28-.05.42c0,.3-.1.62-.17,1a8.55,8.55,0,0,1-.24.93c-.09.3-.19.62-.31.93s-.24.62-.4,1-.26.58-.4.86-.3.6-.47.9-.33.57-.51.85v0l-.18.29c-.17.26-.34.54-.5.81l-.37.68c-.12.24-.23.49-.32.71h0c-.07.2-.16.42-.24.65s-.14.47-.21.74-.11.43-.16.66-.08.43-.12.7,0,.31-.05.47,0,.3,0,.44v.08c0,.68.07,1.4.16,2.19,0,.17.05.34.07.52h0c0,.23.08.48.14.75s.1.43.16.65.13.43.21.64l.12.37.08.2s0,0,0,.08a.2.2,0,0,1,0,.11.17.17,0,0,1-.21.08.18.18,0,0,1-.1-.09s0,0,0-.08S139,70.1,139,70l-.18-.46-.19-.45c0-.08,0-.16-.08-.24l0-.09h0l0-.1,0-.08c0-.14-.09-.29-.13-.43a2,2,0,0,1-.07-.23,1.21,1.21,0,0,1-.05-.18s0-.05,0-.08a2.74,2.74,0,0,1-.05-.28,1.16,1.16,0,0,1,0-.18l-.06-.33,0-.17c-.06-.3-.12-.64-.16-1s-.06-.66-.07-1a7.94,7.94,0,0,1,.05-1v0h0c0-.16,0-.32.07-.48a4.42,4.42,0,0,1,.1-.5c.07-.32.16-.64.26-1a7.17,7.17,0,0,1,.36-.95,4,4,0,0,1,.23-.46l.27-.49c.17-.29.36-.57.55-.84s.48-.66.71-1c.12-.18.24-.35.35-.53s.22-.38.34-.57c.33-.61.64-1.23.91-1.86a16.36,16.36,0,0,0,.56-1.67c.07-.31.14-.62.19-.94s.09-.67.14-1,.08-.65.13-1,.11-.67.17-1,.09-.47.13-.7.07-.48.1-.73.09-.74.13-1.11.05-.67.05-1c0-.64-.08-1.28-.12-1.93,0-.33,0-.66,0-1a1.06,1.06,0,0,1,.3-.73,1.55,1.55,0,0,1,1-.39,4.41,4.41,0,0,1,1,.15,2.91,2.91,0,0,1,.39.12,1.37,1.37,0,0,1,.68.48,2.1,2.1,0,0,1,.32.77c0,.13,0,.27.08.41s.11.53.18.79.12.34.19.51.09.19.14.28.19.27.29.4a10.92,10.92,0,0,1,1.19,1.52,2.92,2.92,0,0,1,.26.93c0,.25.06.51.08.77l.22-.16c.13-.09.27-.16.41-.24a3.71,3.71,0,0,1,.46-.19,3.38,3.38,0,0,1,.95-.1,4.23,4.23,0,0,1,.5,0,1.24,1.24,0,0,1,.48.19,1.07,1.07,0,0,1,.3.3,1.86,1.86,0,0,1,.2.43,3,3,0,0,0,.15.42l.1.19.09.12.1.12.12.1.1.06.09.05.1,0,.09,0h.12l.31,0,.58-.13c.31-.1.6-.22.91-.3a1.35,1.35,0,0,1,.95,0,.91.91,0,0,1,.42.38,1.22,1.22,0,0,1,.13.62,4,4,0,0,1-.18,1,3,3,0,0,1-.2.49,2.26,2.26,0,0,1-.26.42c-.22.32-.47.62-.71.93l0,0h0l-.52.75q-.29.42-.6.84a3.66,3.66,0,0,1-.33.4,3.41,3.41,0,0,1-.37.39c-.12.12-.26.22-.38.32l-.38.28A32.15,32.15,0,0,1,150.13,59l-.41.22-.44.24-.24.13-.66.35a7.87,7.87,0,0,1-1.83.65l-.28.06-.51.12-.28.1a3.65,3.65,0,0,0-.43.23l-.26.18-.14.12-.09.09,0,0a2.62,2.62,0,0,0-.24.3,9,9,0,0,0-.53.84c-.55,1-1.12,2.11-1.8,3.5-.07.13-.14.28-.21.44a.42.42,0,0,1,0,.1h0v.07h0v.07h0a.14.14,0,0,0,0,.06c-.11.26-.22.58-.33.9l-.3,1h0l0,.13c-.07.25-.16.52-.25.77s-.24.64-.37.94l0,.1-.23.54a.26.26,0,0,1-.22.14A.23.23,0,0,1,139.69,71.34Z" transform="translate(4.64 2.43)"/><path class="cls-1" d="M139.16,69.82a.14.14,0,0,1,.13-.15.11.11,0,0,1,.12,0h0l0,.07h0a.14.14,0,0,1-.13.15A.14.14,0,0,1,139.16,69.82Z" transform="translate(4.64 2.43)"/><path class="cls-1" d="M140.77,71.54l-.11,0-.26,0H140a.14.14,0,0,1-.13-.09.12.12,0,0,1,.09-.14l.34,0,.21,0a7.1,7.1,0,0,0,.81-.3l.16-.07h0l.18-.09.13-.08.08,0,.29-.19.22-.21c.12-.12.23-.26.33-.38l.49-.67c.17-.23.32-.46.47-.71a7.11,7.11,0,0,1,1.05-1.38,4.5,4.5,0,0,1,.61-.49l.32-.21.23-.18,0,0c.14-.12.32-.27.49-.44l.09-.09.41-.37c.23-.2.48-.39.73-.57l.37-.28.35-.28,0,0a2.91,2.91,0,0,1,.33-.26,3.47,3.47,0,0,1,.4-.26l.34-.18.06,0h0l.21-.09.13-.06.23-.1.44-.19c.22-.08.45-.15.68-.21l0,0h0l.25-.07.17,0,.27-.09.17-.06.14,0,.07,0,.11,0,.11,0,.26-.11.15-.06.12-.06.27-.11.13-.07.31-.14.14-.07.31-.17.19-.11.27-.16.11-.07.32-.21.13-.09.05,0,.21-.16c.08,0,.15-.12.23-.18l.08-.06.1-.09.06,0,0,0,.1-.09.43-.41.21-.2.27-.24a2.14,2.14,0,0,1,.51-.3,4.9,4.9,0,0,1,1.17-.28l.21,0a3.89,3.89,0,0,1,2.05.4,5.17,5.17,0,0,1,.73.49l.06,0h0l0,0h0l0,0h0l0,0h0l.11.08.1.08,0,0,0,0h0l.21.14.08.05.07,0h.19l.06-.05h0l0,0A.6.6,0,0,0,163,60l.07-.11.09-.2a1.76,1.76,0,0,0,.1-.3,2,2,0,0,0,.06-.3.57.57,0,0,0,0-.13v-.08s0,0,0-.08v0a.08.08,0,0,1,0,0l0,0,0,0-.08-.06a.41.41,0,0,0-.11-.07c-.14-.08-.29-.14-.44-.21a2.63,2.63,0,0,1-.35-.15h0l-.22-.11a1.64,1.64,0,0,1-.33-.26,1.43,1.43,0,0,1-.37-.77,6,6,0,0,1-.08-.73v0c0-.3,0-.53-.06-.75s0-.16,0-.22a.75.75,0,0,0-.05-.16c0-.06-.06-.11-.08-.16l-.09-.13-.12-.13-.14-.12-.18-.12-.2-.1-.24-.07-.22,0h-.34l-.19.05-.32.1-.11,0-.48.14h0c-.15,0-.31.09-.47.12l-.14,0c-.14,0-.29.07-.44.09h0l-.12,0H157a.66.66,0,0,1-.3-.09,1.07,1.07,0,0,1-.27-.17.71.71,0,0,1-.21-.33,2.83,2.83,0,0,1-.07-.33h0l0-.27s0-.09,0-.13a.28.28,0,0,1,.13-.2.21.21,0,0,1,.24,0,.29.29,0,0,1,.09.2,2.7,2.7,0,0,0,0,.28,2.56,2.56,0,0,0,0,.27s0,0,0,0h0l0,0,0,0,.07.05.08.06.08,0h.18a13,13,0,0,0,1.37-.33h0l.35-.1.27-.08a1.75,1.75,0,0,1,.56,0,2.05,2.05,0,0,1,1.59.95,2.11,2.11,0,0,1,.17.44,1.75,1.75,0,0,1,.05.33c0,.13,0,.27,0,.4s0,.5.07.74l.06.3.06.16a.93.93,0,0,0,.05.1.86.86,0,0,0,.07.1l.06.07.07.06.11.07.15.07.36.13.51.16a2,2,0,0,1,.47.27,1.05,1.05,0,0,1,.3.45,1.33,1.33,0,0,1,.06.52,4.11,4.11,0,0,1-.12.61,1.82,1.82,0,0,1-.56.94,1,1,0,0,1-1.08.14,2.25,2.25,0,0,1-.54-.39l-.32-.27a5.85,5.85,0,0,0-.47-.4l-.26-.17-.33-.16a2.6,2.6,0,0,0-.47-.16l-.37-.07a2.42,2.42,0,0,0-.38,0,4,4,0,0,0-.49,0,4.78,4.78,0,0,0-.57.12l-.29.1-.19.09-.17.12c-.14.12-.26.25-.39.38s-.21.2-.31.31-.43.4-.65.58a8.16,8.16,0,0,1-.66.5l-.25.16-.15.09-.44.26-.36.18-.36.18c-.26.11-.51.23-.77.33s-.52.21-.79.3-.55.19-.83.27l-.45.14a2.87,2.87,0,0,0-.37.15h0l-.64.28-.33.15-.29.16-.28.2-.59.5-.64.53a7.16,7.16,0,0,0-.65.57c-.25.25-.49.51-.75.75s-.54.42-.81.63l-.3.26c-.12.13-.23.26-.34.4s-.31.44-.45.67-.3.51-.46.75-.25.35-.38.52h0l0,.05-.09.12a4.3,4.3,0,0,1-.71.77,2.4,2.4,0,0,1-.44.29l-.13.06-.06,0-.16.07-.06,0-.1,0h0l-.09,0-.17,0h-.12l-.27,0-.21.05-.14,0h-.12Z" transform="translate(4.64 2.43)"/><path class="cls-1" d="M140,71.33a.11.11,0,0,1-.08,0,.32.32,0,0,1-.09,0l-.17-.08-.19-.09-.3-.13h0l-.7-.3a.67.67,0,0,1-.12-.06l-.16-.13-.12-.11-.24-.25a2.22,2.22,0,0,1-.34-.45l-.09-.15a1,1,0,0,0-.07-.15c-.09-.19-.17-.39-.25-.59l-.09-.29-.09-.27h0v0h0c0-.1-.07-.21-.09-.31l-.09-.36c0-.21-.07-.43-.09-.64,0-.45-.08-.91-.12-1.37l-.09-1.39c0-.43-.05-.86-.09-1.29a2.46,2.46,0,0,1,0-.26c0-.11,0-.21,0-.31l-.06-.34c-.05-.23-.1-.45-.16-.68-.1-.42-.19-.85-.3-1.27,0-.1-.05-.19-.07-.28v0c-.16-.56-.34-1.12-.55-1.66l-.12-.26-.11-.16-.08-.08-.13-.11-.12-.08-.16-.07-.15-.05-.2,0h-.52l-.3,0-.19,0-.2,0-.2.06-.22.09-.24.12-.22.12a2,2,0,0,1-.34.13,1.12,1.12,0,0,1-.32,0,1.53,1.53,0,0,1-.29-.07l-.28-.13a1.58,1.58,0,0,1-.24-.15,1.5,1.5,0,0,1-.24-.18l-.2-.17a2.06,2.06,0,0,1-.35-.43,1.86,1.86,0,0,1-.19-.53,3.25,3.25,0,0,1-.05-.7,2.08,2.08,0,0,1,.05-.36.77.77,0,0,1,.11-.3.86.86,0,0,1,.31-.29,1,1,0,0,1,.37-.13h.55a4,4,0,0,1,.69.07c.22.05.42.14.64.2l.16,0h.22l.08,0,.06,0,.09-.09.12-.14.11-.16.15-.31c.07-.2.14-.4.2-.6s.14-.42.22-.62a2.66,2.66,0,0,1,.3-.58,1.64,1.64,0,0,1,.52-.46,1,1,0,0,1,.57-.15,1.32,1.32,0,0,1,.66.29,1.73,1.73,0,0,1,.49.62c.1.19.19.39.28.58s.19.37.3.55.15.24.23.35l.14.15.22.19h0l0,0h0l.08.06a3.73,3.73,0,0,1,.5.39,1.42,1.42,0,0,1,.44.8,5.31,5.31,0,0,1,.1.68c0,.22,0,.45,0,.67l0,1.32c0,.44,0,.88-.09,1.32s-.08.6-.13.9c0,.12,0,.25,0,.37s0,.26,0,.39,0,.44,0,.66,0,.46,0,.69c0,.45,0,.9,0,1.35,0,.64,0,1.28,0,1.92h0c-.07-.47-.15-.93-.23-1.4,0-.23-.07-.46-.1-.69h0c0-.22-.06-.43-.08-.65,0-.44-.09-.9-.11-1.35a6.87,6.87,0,0,1,0-1.4c0-.09,0-.18,0-.28s0-.31.07-.47c.05-.42.07-.85.09-1.27,0-.26,0-.53,0-.79s0-.35,0-.52v0c0-.18,0-.37,0-.55s0-.54,0-.78c0-.07,0-.13-.05-.2s0-.1,0-.14l-.06-.11a1,1,0,0,0-.08-.11l-.11-.12c-.12-.11-.24-.22-.37-.32l-.11-.09a2.38,2.38,0,0,1-.45-.49l-.15-.23,0,0c-.05-.08-.1-.17-.16-.29s-.11-.2-.16-.3l-.14-.27-.19-.35-.11-.16-.11-.13-.15-.13-.11-.07-.14-.07-.11,0-.09,0h-.16l-.09,0-.1.06h0l-.06,0-.18.16-.09.11a.86.86,0,0,0-.1.16,2.87,2.87,0,0,0-.14.3c-.08.19-.14.38-.2.57l0,.12c-.05.17-.11.35-.17.52s-.08.21-.13.32-.08.15-.13.23a2.2,2.2,0,0,1-.28.36,1.34,1.34,0,0,1-.31.22.9.9,0,0,1-.33.09h-.11l-.14,0h-.07l-.2-.05-.15-.06-.07,0-.25-.08-.26-.05c-.21,0-.43,0-.64,0h-.28l-.07,0,0,0h0l-.06.05,0,0,0,.05v0h0v0l0,.06a.5.5,0,0,0,0,.12c0,.1,0,.19,0,.28s0,.21,0,.33h0a.51.51,0,0,0,0,.13,1,1,0,0,0,0,.17s0,.1.05.14l.06.11.08.13.17.18a2.64,2.64,0,0,0,.37.31,2,2,0,0,0,.24.16l.16.08.11,0,.08,0h.19l.2-.08.27-.13.32-.13a1.81,1.81,0,0,1,.31-.09h0a1.8,1.8,0,0,1,.32-.06l.37,0h.31l.39,0a1.75,1.75,0,0,1,.77.28,1.63,1.63,0,0,1,.55.61l.14.33v0c.06.15.12.32.17.48l.05.13c.14.41.29.86.41,1.3l.24.92.09.37a11.77,11.77,0,0,1,.28,1.32c0,.41.08.82.12,1.22V64l.12,1.29,0,.34c0,.49.08,1,.14,1.48l0,.11,0,.13a.83.83,0,0,0,0,.15s0,.06,0,.08.07.27.11.4v.06c.05.17.11.34.18.55s.11.3.17.44l0,0,0,.07.06.13a.59.59,0,0,1,0,.08l0,0,.07.11a1.6,1.6,0,0,0,.16.23c.13.16.27.3.41.45l0,0h0l0,0,.05,0,.19.09h0l.39.19.72.32.08,0,.08.07a.21.21,0,0,1,0,.2.22.22,0,0,1-.18.15Z" transform="translate(4.64 2.43)"/><path class="cls-1" d="M159.46,73.36a.44.44,0,0,1-.17-.35,2.36,2.36,0,0,0,0-.28h0a3.4,3.4,0,0,0-.09-.46c0-.14-.1-.28-.15-.42s-.17-.34-.26-.5a1.74,1.74,0,0,0-.11-.18l-.13-.17-.2-.22-.22-.18-.24-.16-.15-.08-.17,0-.21,0h-.21l-.34,0-1,.17-.53.08-.47.11c-.27.07-.53.15-.8.21a1.84,1.84,0,0,1-.41.06,2.82,2.82,0,0,1-.41,0,3.12,3.12,0,0,1-.86-.11c-.26-.08-.52-.18-.78-.28l-.35-.15h0c-.34-.13-.68-.26-1-.36h0l-.07,0H150l-.26,0h-.18c-.23,0-.47,0-.7.07l-.4.08-.16,0-.19.08-.24.12c-.24.16-.46.33-.68.5s-.43.31-.65.46a7,7,0,0,1-1.5.87,5.8,5.8,0,0,1-.84.24,6.21,6.21,0,0,1-.85.12l-.82,0c-.28,0-.55,0-.82,0l-.44,0a3.2,3.2,0,0,1-.42-.1.8.8,0,0,1-.2-.07l-.21-.1a3,3,0,0,1-.38-.24l-.33-.24a1.77,1.77,0,0,1-.34-.33,1.43,1.43,0,0,1-.21-.45c0-.13-.07-.26-.1-.4a1,1,0,0,1,0-.17,2.47,2.47,0,0,1-.05-.38v0a.66.66,0,0,0,0-.14l0-.19a.1.1,0,0,1,.09-.1.1.1,0,0,1,.1.06h0l.06.16,0,.07.09.14.1.19.2.36,0,0c.08.13.16.26.25.38l.06.06.1.09.34.23.36.22.18.09.19.06.07,0h0l.29,0h0l.46,0,.56,0h.19l.74-.08.43-.07.42-.11.26-.08.24-.09h.05l.24-.11.25-.14,0,0,.42-.26.39-.24.06,0,0,0,0,0,.06,0h0l.07,0,.66-.42.37-.22.42-.19a3.28,3.28,0,0,1,.82-.18h.15l.21,0h.07a2.91,2.91,0,0,1,.42,0,1.87,1.87,0,0,1,.45,0l.29.08.47.16.72.29.23.1h0c.26.1.54.21.82.29l.35.07h.84l.37-.07.22-.07.58-.16a5.4,5.4,0,0,1,.58-.11l.21,0,.58-.1.24,0c.13,0,.31,0,.49-.06h.25a2,2,0,0,1,1,.27,2.62,2.62,0,0,1,.34.24h0a2.16,2.16,0,0,1,.27.25,2.85,2.85,0,0,1,.23.26l.2.3a5.07,5.07,0,0,1,.47,1c.05.17.09.34.12.5l0,.06h0l0,0,.1-.15.09-.15a1.11,1.11,0,0,1,.07-.16c.05-.15.09-.29.13-.43s.09-.41.12-.62,0-.18,0-.27a.38.38,0,0,1,0-.1s0,0,0,0v0s0,0,0,0l0-.06-.12-.13,0,0-.1-.09c-.11-.1-.22-.2-.32-.31a2.51,2.51,0,0,1-.38-.54,1.57,1.57,0,0,1-.13-.4,1.79,1.79,0,0,1,0-.45,2.14,2.14,0,0,1,.11-.56l0-.12a3.1,3.1,0,0,0,.08-.42,4.46,4.46,0,0,0,0-.5c0-.31,0-.55,0-.78a1.1,1.1,0,0,0,0-.16l0-.09-.05-.09-.1-.15-.12-.13-.06,0-.06,0,0,0-.07,0-.09,0h-.2l-.11,0-.15.05-.14.07-.19.13-.36.31-.23.2-.34.27a1.57,1.57,0,0,1-.34.21,1.38,1.38,0,0,1-.4.12h-.07a1.32,1.32,0,0,1-.38,0,2,2,0,0,1-.51-.2,2.05,2.05,0,0,1-.83-.79,2.57,2.57,0,0,1-.19-.49,4.37,4.37,0,0,1-.09-.49,6.19,6.19,0,0,1,0-.74v-.21h-.05l-.1,0-.48.26-.07,0a4.39,4.39,0,0,0-.39.28l-.09.07-.39.32-.41.32-.05,0-.06,0h0l-.13.11-.27.22-.18.16a3.43,3.43,0,0,1-.52.38,5.52,5.52,0,0,1-.54.28h0l-.52.23-.12.06h0l-.34.15a1.69,1.69,0,0,0-.28.12h0c-.2.08-.39.18-.57.27l-.12,0c-.21.11-.43.2-.67.31L147,68a7.12,7.12,0,0,0-.67.36l-.16.1h0l-.2.12c-.26.16-.53.33-.8.48l-.34.17-.14.07-.49.27-.27.17-.08.06-.11.08h0l-.08,0c-.2.14-.4.27-.61.39h0a4.74,4.74,0,0,1-.5.26h0a4.9,4.9,0,0,1,.39-.71,2.16,2.16,0,0,1,.27-.33,2.78,2.78,0,0,1,.33-.27,4.86,4.86,0,0,1,.7-.4l.73-.35c.48-.25.93-.56,1.42-.81s1-.44,1.52-.65l.2-.08h0l0,0h0l.08,0h0l.47-.21.52-.22,1-.43h0l.14-.06a4.44,4.44,0,0,0,.49-.24l.31-.21.58-.48.63-.48h0c.19-.14.37-.3.55-.45a4.13,4.13,0,0,1,.59-.41l.31-.17a.79.79,0,0,1,.58-.11.31.31,0,0,1,.21.19.46.46,0,0,1,0,.2c0,.12,0,.24,0,.36v.08h0a4,4,0,0,0,.05.6l.06.33a1.72,1.72,0,0,1,.07.21c0,.09.09.17.13.26l.09.12.12.14.19.16.21.14.21.1.17.06.16,0h.22l.13,0,.12,0,.18-.09a3.55,3.55,0,0,0,.31-.23c.21-.17.41-.35.61-.53a1.83,1.83,0,0,1,.36-.26,1.49,1.49,0,0,1,.45-.19,1.11,1.11,0,0,1,.48,0,1,1,0,0,1,.44.27,2.1,2.1,0,0,1,.26.33,1.84,1.84,0,0,1,.19.83,5.63,5.63,0,0,1,0,1.16v0c0,.15,0,.3-.07.45s-.06.25-.08.38a.76.76,0,0,0,0,.15s0,.08,0,.12a1.14,1.14,0,0,0,.06.25.56.56,0,0,0,0,.12l0,.09.12.16a1.63,1.63,0,0,0,.17.2l.34.29.2.17a1,1,0,0,1,.31.48,1.84,1.84,0,0,1,0,.74,4,4,0,0,1-.1.5v0a3.05,3.05,0,0,1-.63,1.32,1,1,0,0,1-.59.38A.35.35,0,0,1,159.46,73.36Z" transform="translate(4.64 2.43)"/><path class="cls-1" d="M153.07,43.41h0l.23-.25c.07-.08.14-.14.21-.21l.07-.07.15-.17.07-.11,0-.06a.06.06,0,0,0,0,0v-.06h0v0s0-.06,0-.09h0c0-.05,0-.09-.05-.13l0-.07,0,0,0,0,0,0,0,0,0,0h-.13l0,0,0,0-.08.1s-.07.11-.11.17l-.1.21,0,.13v0q0,.1,0,.18a.86.86,0,0,0,0,.16c0,.18,0,.34,0,.48Zm-3.76,6.3h0a.26.26,0,0,1,0-.21.51.51,0,0,1,.09-.18l.17-.26c.1-.14.21-.28.3-.42l.2-.28.14-.21.29-.47q.12-.23.24-.42h0l.25-.44h0v0h0l.15-.28c0-.08.07-.16.11-.23s.08-.17.11-.26l.14-.29a7.36,7.36,0,0,1,.57-1l.31-.48.17-.25.15-.22a.14.14,0,0,0,0-.06v-.1c0-.17,0-.35,0-.52a2.62,2.62,0,0,1,0-.28,1.34,1.34,0,0,1,.1-.45,2.1,2.1,0,0,1,.29-.53.61.61,0,0,1,.17-.15.21.21,0,0,1,.11,0,.33.33,0,0,1,.17,0,.55.55,0,0,1,.27.12.63.63,0,0,1,.2.28,1.38,1.38,0,0,1,.08.29.63.63,0,0,1-.14.47,3.58,3.58,0,0,1-.26.29l-.28.28-.28.25-.06,0a.11.11,0,0,1,0,0A.57.57,0,0,1,153,44c-.09.15-.18.31-.26.47s-.2.34-.29.51l0,0h0l0,.07v0l0,.06h0c-.19.33-.36.66-.54,1a6,6,0,0,1-.31.55c-.08.15-.18.29-.27.44s-.21.34-.32.5a2.33,2.33,0,0,1-.17.26l-.06.1-.12.16c-.22.31-.45.62-.68.92l-.14.18h0c-.05.07-.1.15-.16.22a1.3,1.3,0,0,1-.1.15.39.39,0,0,1-.2.13Z" transform="translate(4.64 2.43)"/><path class="cls-1" d="M149.49,43.52h0c0-.1,0-.21,0-.31v-.07l0-.24s0-.08,0-.12l0-.16a.36.36,0,0,0,0-.09.47.47,0,0,0-.05-.1l0-.06,0,0,0,0-.05,0,0,0h0l-.06,0H149l0,0h0v.18a.49.49,0,0,0,0,.12l0,.19.06.17.06.11,0,.05.19.26s.09.1.13.16Zm-.37,5.65a.25.25,0,0,1,0-.09.4.4,0,0,1,0-.19v0c.07-.19.15-.37.22-.56l.18-.45s0-.1.05-.15a2.17,2.17,0,0,1,.07-.24c.05-.26.12-.53.16-.79v0c0-.05,0-.1,0-.16v-.1a1.48,1.48,0,0,0,0-.21V46c0-.06,0-.12,0-.18v-.13h0c0-.17,0-.34,0-.51s0-.32,0-.48l0-.19a1.49,1.49,0,0,0,0,.21h0c0-.13,0-.26,0-.39h0v0h0s0-.08,0-.11h0v0h0a.43.43,0,0,1,0,0h0l0-.09-.06-.11-.06-.09c-.09-.11-.19-.21-.27-.32a2.71,2.71,0,0,1-.24-.35,1.76,1.76,0,0,1-.09-.2l-.06-.22,0-.22a.27.27,0,0,1,0-.09.65.65,0,0,1,0-.2.41.41,0,0,1,.34-.29.65.65,0,0,1,.49.19.7.7,0,0,1,.13.17.78.78,0,0,1,.09.21,1.09,1.09,0,0,1,.06.44c0,.14,0,.28-.06.41l0,.21s0,.07,0,.11,0,.1,0,.15v0a1.21,1.21,0,0,1,.09.2c0,.14.08.28.11.42s0,.3.06.45,0,.3,0,.44v.5c0,.13,0,.26,0,.39s0,.18,0,.27,0,.14,0,.21,0,.11,0,.16l-.09.41-.06.25a1.52,1.52,0,0,1-.06.2,1.33,1.33,0,0,0,0,.19l-.06.14a3.62,3.62,0,0,1-.13.35l-.18.45a1.22,1.22,0,0,1-.07.17.26.26,0,0,1-.14.11h0Z" transform="translate(4.64 2.43)"/><path class="cls-1" d="M156.12,44.18l-.1,0-.17.09h0l-.22.16-.15.11-.09.07-.1.08h0l.06,0,.18,0h.11l.18,0,.25-.06h0l.11,0,.12-.06h0s0,0,0-.06v0l0-.09h0a.22.22,0,0,0-.05-.08l0,0h0Zm-4.7,4.46s0,0,0,0l0-.05h0l.25-.35.1-.16.12-.22h0l.09-.16.07-.13a1,1,0,0,1,.12-.17l.29-.36h0l.08-.1.12-.13h0l.24-.24.16-.16.62-.66c.2-.22.39-.43.6-.64s.46-.39.7-.58l.34-.26a3.22,3.22,0,0,1,.36-.24l.2-.11.09,0a.32.32,0,0,1,.14,0,.39.39,0,0,1,.3.2,1.13,1.13,0,0,1,.12.18.6.6,0,0,1,.06.23.34.34,0,0,1,0,.22.54.54,0,0,1-.18.15A2,2,0,0,1,156,45l-.28.06h0l-.13,0-.3,0h0a1.94,1.94,0,0,1-.34,0l-.22,0-.08.07-.19.18h0l0,0h0l0,0h0l0,0h0l-.45.47h0l-.55.55-.29.27-.39.37h0l-.19.2-.25.29-.15.23L152,48a2.39,2.39,0,0,1-.13.21l-.13.18h0l-.05.06h0l-.09.12,0,0,0,0s0,0-.05,0h0S151.41,48.69,151.42,48.64Z" transform="translate(4.64 2.43)"/><path class="cls-1" d="M157.67,47.52l.42,0h.56l.24,0h.05l.09,0,.06,0,0,0,.05,0,0-.05,0-.06h0v-.16l0,0v0l0,0s0,0,0,0l-.06,0h0l-.08,0a.45.45,0,0,0-.16,0l-.21,0h-.28l-.19,0-.17.06-.19.1-.12.09-.15.13c-.1.11-.2.21-.27.3l0,0,0,0v0h0l.12,0a1.09,1.09,0,0,1,.26,0Zm-3.69,3a.17.17,0,0,1,0-.17.71.71,0,0,1,.07-.09l.24-.27c.11-.12.23-.23.34-.34l.34-.34.48-.44.32-.3.12-.12.23-.21,0-.05c.25-.26.48-.54.71-.82s.23-.28.35-.41a2,2,0,0,1,.43-.34,1,1,0,0,1,.34-.15H158a2.33,2.33,0,0,1,.53-.06h.25a1.37,1.37,0,0,1,.28.05.88.88,0,0,1,.26.12.6.6,0,0,1,.28.43.53.53,0,0,1,0,.28.83.83,0,0,1-.21.28,1,1,0,0,1-.4.2,1.8,1.8,0,0,1-.32.06,2.36,2.36,0,0,1-.37,0l-.31,0h-.59l-.21,0H157l0,.05-.29.32-.07.07a.27.27,0,0,1-.08.07l-.08.07-.1.09a.1.1,0,0,1,0,0h0l-.44.38-.37.34-.28.25-.11.1-.47.46a.23.23,0,0,1-.07.07l-.24.29-.1.1a.17.17,0,0,1-.13.08A.13.13,0,0,1,154,50.56Z" transform="translate(4.64 2.43)"/><path class="cls-1" d="M163,53.74h0V53.6h0v-.05a.14.14,0,0,1,0-.06l0,0a.35.35,0,0,1-.05-.08l-.06-.06-.07-.06-.1-.06,0,0h0l-.13-.06-.16-.06-.13,0h-.23l.15.17.21.23.21.18.15.09.08,0,.09,0H163Zm-.31.33a1.36,1.36,0,0,1-.24-.13,3.08,3.08,0,0,1-.44-.37l-.36-.37-.23-.21-.18-.11-.13-.07-.26-.08a2.88,2.88,0,0,0-.4-.09h-.21l-.46,0-.26,0-.29,0-.4.09-.33.08-.18,0-.15,0L158,53l-.22,0h0l0,0h0l-.06,0h0l-.07,0h0l0,0h0l0,0h0l-.29.18h0l-.44.27h0l-.27.17-.14.1,0,0-.06,0h-.08l-.05,0h0a.22.22,0,0,1-.05-.08,0,0,0,0,1,0-.05.19.19,0,0,1,.05-.1.1.1,0,0,1,.05,0l.15-.1.28-.18h0l.44-.27h0l.28-.18.16-.09.1-.07a.43.43,0,0,1,.16-.05h0l.21,0h0l.46-.14h0l.29-.08h0l.28-.08.09,0,.18,0,.18,0,.59-.07a2.07,2.07,0,0,1,.61,0l.29.07.3.09a2.06,2.06,0,0,1,.33.17l.12,0a1.83,1.83,0,0,1,.33,0l.29,0a1.73,1.73,0,0,1,.59.21l.26.17a1.09,1.09,0,0,1,.23.29.67.67,0,0,1,.06.57.52.52,0,0,1-.4.34h0A.77.77,0,0,1,162.71,54.07Z" transform="translate(4.64 2.43)"/><path class="cls-1" d="M159.83,50l0,0h0l.25-.09a1.37,1.37,0,0,1,.29-.07h.09l.11,0,.16,0h.05l0,0,.07,0,0,0,.12-.05.1-.07.06,0h0l.05-.05,0-.06,0,0h0v0l0,0,0,0,0,0,0,0H161l-.18,0-.15,0-.19.1-.19.13-.12.11-.12.13-.13.14,0,0h0ZM156,53.12a.08.08,0,0,1,0-.11h0v0h0l.2-.2.17-.17h0l.11-.12h0l.13-.14.14-.13.31-.3.06-.06.1-.09.18-.15c.11-.09.22-.18.32-.28l.63-.53.65-.56.6-.59h0l.05-.06.16-.17h0a2,2,0,0,1,.73-.46l.2,0a.85.85,0,0,1,.23,0,.67.67,0,0,1,.31.07.49.49,0,0,1,.18.14.45.45,0,0,1,.12.27.48.48,0,0,1-.09.25.77.77,0,0,1-.18.18h0l-.09.07-.14.09a.91.91,0,0,1-.25.11,1.8,1.8,0,0,1-.4.1l-.38.07a2.43,2.43,0,0,1-.38,0h-.18l-.3.29c-.21.19-.43.38-.66.56l-.71.53-.68.5h0l-.54.45-.28.26-.14.12-.13.14h0A.06.06,0,0,1,156,53.12Z" transform="translate(4.64 2.43)"/><path class="cls-1" d="M155.6,46.73h0l-.07,0-.19.18a3,3,0,0,0-.24.28,3.49,3.49,0,0,0-.28.43l0,.08-.16.27,0,0h0l.22-.12.31-.16.17-.12.09-.07,0-.05,0,0,0,0c0-.05,0-.1.05-.15s0-.07,0-.11l.05-.14.06-.16v-.08h0v-.06h0l0,0h0Zm-2.81,3a.13.13,0,0,1,0-.13s0-.05,0-.06l0,0,.13-.11.13-.11c.12-.1.24-.19.35-.3l.36-.33.31-.3c0-.1.08-.19.12-.29l.07-.16a.91.91,0,0,1,.07-.14.89.89,0,0,0,.08-.17c.06-.1.11-.2.16-.3a2.49,2.49,0,0,1,.19-.3h0a3.24,3.24,0,0,1,.36-.38l.19-.16.1-.06a.39.39,0,0,1,.26,0,.56.56,0,0,1,.26.17.83.83,0,0,1,.07.13.89.89,0,0,1,0,.14.28.28,0,0,1,0,.13.56.56,0,0,1-.06.21,2.09,2.09,0,0,0-.08.23,2.77,2.77,0,0,1-.1.26,1.33,1.33,0,0,1-.62.55l-.21.11-.23.11-.5.19-.67.58-.34.29-.13.11-.12.09,0,0-.06,0h0A.18.18,0,0,1,152.79,49.69Z" transform="translate(4.64 2.43)"/><path class="cls-1" d="M139.3,71l-.07-.08a.36.36,0,0,1,0-.1.75.75,0,0,0,0-.16v0a.64.64,0,0,1,0-.07h0v0h0a1.72,1.72,0,0,0-.07-.21h0L138.8,70h0c-.14-.18-.27-.36-.39-.55s-.14-.22-.2-.33-.11-.22-.16-.33h0s0-.08-.05-.13,0-.08,0-.13h0v0l0-.07a1.33,1.33,0,0,0-.05-.19c0-.21-.08-.41-.11-.61s0-.33,0-.53v0a2.59,2.59,0,0,0,.15.4,4.81,4.81,0,0,0,.25.54,1.42,1.42,0,0,0,.08.18l.05.09.09.17,0,.08.07.11.05.08c.1.15.19.3.3.45l.32.52s.07.1.1.16l.19.29s0,.09.05.14l0,.11a2.25,2.25,0,0,1,.08.24.51.51,0,0,1,0,.13.61.61,0,0,1-.05.12.18.18,0,0,1-.14.08A.22.22,0,0,1,139.3,71Z" transform="translate(4.64 2.43)"/><path class="cls-1" d="M139.2,70.54l-.12-.05-.15-.09-.06,0h0a.05.05,0,0,1,0,0l-.1-.1-.09-.11-.06-.08-.09-.11-.13-.15,0-.06,0,0s0,0,0,0a.18.18,0,0,1,0-.07l-.06-.14v0c-.06-.16-.11-.33-.16-.5v0a1.21,1.21,0,0,1-.05-.18l0-.12,0-.13,0-.13.09.19.12.23h0a3.37,3.37,0,0,0,.19.32,1.09,1.09,0,0,0,.08.15l0,.1a.52.52,0,0,1,.06.13l0,0,.11.15v0l.14.18v0l.25.31.08.09.1.08.11.07h0a.11.11,0,0,1,.12.08.1.1,0,0,1-.07.12h0l-.07,0Z" transform="translate(4.64 2.43)"/><path class="cls-1" d="M139.71,71.09a.19.19,0,0,1-.17-.14,1.54,1.54,0,0,1-.08-.19c0-.09-.08-.18-.11-.27s-.16-.37-.23-.55l-.06-.15c0-.06,0-.12,0-.18l-.06-.38v0l-.06-.43v0a1.49,1.49,0,0,1,0-.21s0-.06,0-.09h0v-.08c0-.14,0-.28,0-.42s0-.24,0-.36v-.1c0-.1,0-.19,0-.29.05.19.11.38.16.57a1.55,1.55,0,0,1,0,.21l0,.07.06.29v.17s0,.06,0,.09l0,.2V69c0,.19.1.39.14.6,0,0,0,.06,0,.1a.13.13,0,0,0,0,.06h0v0l0,0h0c.06.13.11.26.17.38l.15.37h0a1,1,0,0,1,0,.1.59.59,0,0,1,.06.14.22.22,0,0,1,0,.18.17.17,0,0,1-.14.08Z" transform="translate(4.64 2.43)"/><path class="cls-1" d="M139.69,71.11a1.1,1.1,0,0,0,0-.18v0s0-.09,0-.13a.14.14,0,0,1,0-.07.76.76,0,0,1,0-.15.71.71,0,0,0,0-.14c0-.11,0-.21,0-.31v-.41a1,1,0,0,1,0-.17,1.52,1.52,0,0,1,.06-.2v0c0-.15.08-.3.13-.45l.15-.52a.29.29,0,0,0,0-.09h0l0-.12.05-.18a2.76,2.76,0,0,0,.08-.27c.07-.21.13-.38.2-.54a.37.37,0,0,1,0-.11,1,1,0,0,0,0,.24h0c0,.13,0,.26,0,.39v.48c0,.08,0,.16,0,.24l0,.13v.17l-.06.27v.06c0,.07,0,.14,0,.21v0l0,.11,0,.12a.24.24,0,0,0,0,.08s0,.06,0,.09h0v.36h0v.09a4.38,4.38,0,0,0,0,.51v.12h0a2.21,2.21,0,0,0,.05.25.14.14,0,0,1-.11.16h0A.14.14,0,0,1,139.69,71.11Z" transform="translate(4.64 2.43)"/><path class="cls-1" d="M139.94,71.47a.2.2,0,0,1,0-.28l.32-.39h0l.07-.09.11-.14.4-.53.15-.21.28-.38.13-.18,0,0,.07-.09,0,0,.07-.09.07-.08h0v-.1s0,0,0-.06v0a.84.84,0,0,1,.06-.14h0l.06-.11v0a2.15,2.15,0,0,0,.14-.26,5.11,5.11,0,0,0,.26-.53l0,.08c0,.15-.07.29-.11.44l0,0c-.05.18-.11.35-.16.54,0,0,0,.07,0,.1v0a.25.25,0,0,1,0,.08.16.16,0,0,1,0,.08.51.51,0,0,1-.09.13l0,0-.1.16-.05.08-.07.09-.06.1-.33.49-.38.52-.22.29h0l-.35.42a.16.16,0,0,1-.06.08l-.09.06h-.13Z" transform="translate(4.64 2.43)"/><path class="cls-1" d="M140.08,71.48a.17.17,0,0,1,.09-.21h.05c.23-.11.44-.24.66-.36l.21-.11h0l.08-.05h0s0-.08,0-.11l.07-.11,0,0,.09-.14.06-.09.15-.21h0a.91.91,0,0,1,.11-.16l.05-.07.09-.11.31-.41.3-.38.1-.14c-.13.29-.27.59-.44.91l0,0a1,1,0,0,1-.08.14L142,70l-.07.11-.1.18-.21.35-.05.08h0a.2.2,0,0,0,0,.08l0,0h0a.5.5,0,0,1-.08.14s-.09.06-.14.09l-.19.11a6.4,6.4,0,0,1-.82.43h0A.15.15,0,0,1,140.08,71.48Z" transform="translate(4.64 2.43)"/><path class="cls-1" d="M139.94,71.41a.1.1,0,0,1-.06-.11.19.19,0,0,1,.07-.12l.09-.05.09,0,.35-.21h0l.1-.06h0l.13-.08h0l.2-.12h0l0,0a.41.41,0,0,1,0-.09l.14-.21.14-.18.23-.28.13-.15c.11-.13.23-.25.33-.39a6.05,6.05,0,0,1-.33.59l-.11.16c-.09.15-.19.31-.27.46h0a1.09,1.09,0,0,0-.08.15v0a1.17,1.17,0,0,1-.05.11l0,0h0l-.07,0-.2.13-.2.13-.29.18-.11.07-.07,0-.08,0h0A.15.15,0,0,1,139.94,71.41Z" transform="translate(4.64 2.43)"/><path class="cls-1" d="M140.16,71.94c-.06,0-.13,0-.12-.13a.17.17,0,0,1,.14-.12l.3,0,.41,0,.42-.05h.18l.33,0h1.28l.11,0,.25,0-.26.11-.24.07h0l-.33.06h0l-.34.05h-.45l-.19,0h-.1l-.2,0-.42,0-.4,0h-.24A0,0,0,0,1,140.16,71.94Z" transform="translate(4.64 2.43)"/><path class="cls-1" d="M141.53,71.55h-1a0,0,0,0,1,0,0h0a.07.07,0,0,1,0-.06.15.15,0,0,1,.09,0l.1,0H141l.29,0h.2l.41,0h0a3.26,3.26,0,0,0,.61-.13l.21-.06.12,0,.06,0,.25-.1.08,0,.09,0,.1,0-.35.23a2.41,2.41,0,0,1-.36.18l-.27.11a2.14,2.14,0,0,1-.54.12h-.39Z" transform="translate(4.64 2.43)"/><path class="cls-1" d="M136.5,82a.64.64,0,0,1-.42-.7v0a2.94,2.94,0,0,1,0-.42,5,5,0,0,1,.08-.54,7.92,7.92,0,0,1,.24-1c.2-.61.4-1.21.57-1.83.09-.37.19-.74.31-1.11.05-.17.11-.34.17-.52l.15-.52c.12-.37.25-.74.39-1.1s.29-.7.44-1.05l.18-.45a.22.22,0,0,1,0-.08c0-.23,0-.47.07-.7s.05-.48.09-.72,0-.32,0-.48,0-.27.05-.41v0h0v0h0s0-.08,0-.13h0a.44.44,0,0,1,.22-.38.42.42,0,0,1,.38,0,.43.43,0,0,1,.23.4,2.85,2.85,0,0,1,0,.4h0l-.06.33a4.28,4.28,0,0,1-.12.54c-.05.18-.11.35-.17.52-.12.34-.21.68-.34,1,0,.12,0,.24-.08.36-.11.39-.22.78-.35,1.16s-.24.75-.35,1.13c0,.19-.1.38-.16.57l-.16.55c0,.11-.07.22-.1.33a11.93,11.93,0,0,0-.27,1.45c0,.23,0,.47-.07.71s0,.47,0,.71v.74c0,.11,0,.22,0,.33s0,.23-.06.35a1.13,1.13,0,0,1,0,.18.63.63,0,0,1-.56.43A.54.54,0,0,1,136.5,82Z" transform="translate(4.64 2.43)"/><path class="cls-1" d="M141.82,58.92c.15-.3.31-.59.47-.89s.27-.57.4-.86c.05-.1.09-.21.13-.31h0c0-.08.07-.17.11-.26h0l.15-.37h0l.1-.24h0v0h0l.21-.49c.06-.14.12-.28.19-.41l.23-.42.25-.41a.83.83,0,0,0,.07-.13h0l.15-.29c.05-.09.09-.19.13-.28s.12-.29.17-.44l.15-.39.09-.29a1.72,1.72,0,0,0,.07-.21c.05-.15.08-.29.13-.44h0l.09-.39a2.21,2.21,0,0,1,0-.25l0-.21c.05-.29.1-.58.14-.88h0c0-.12,0-.24,0-.36h0l.12-.92,0-.3c0-.06,0-.13,0-.2s0-.1,0-.15a.13.13,0,0,0,0-.06c0-.1,0-.2,0-.3v-.07c0-.13,0-.27,0-.4a.34.34,0,0,0,0-.1,2.45,2.45,0,0,0,0-.27.76.76,0,0,0,0-.15s0-.1,0-.15l0-.26c0-.05,0-.1,0-.15h0v0h0v-.07h0v0h0v0h0v0h0V46h0v0h0v0h0v-.09h0v-.07h0v0h0c0-.13,0-.26-.05-.39s0-.23,0-.35l0-.33v-.24s0-.05,0-.07v-.06a.13.13,0,0,1,0-.06.3.3,0,0,1,0-.08.12.12,0,0,1,.16,0s0,0,0,0l0,.06v.22c0,.11,0,.22,0,.33a1.11,1.11,0,0,1,0,.19l0,.26v0h0c0,.08,0,.17,0,.26l0,.23h0c0,.19.05.39.07.58h0c0,.07,0,.14,0,.2l0,.33a.61.61,0,0,1,0,.14c0,.11,0,.22,0,.33s0,.31,0,.47,0,.12,0,.18,0,.17,0,.26h0l-.06.45c0,.17-.05.33-.07.49-.05.34-.11.67-.16,1s-.11.59-.16.89c0,.08,0,.16,0,.23l-.06.28a1.46,1.46,0,0,1-.05.2c0,.07,0,.14,0,.21l-.09.28c0,.07,0,.14-.07.22s-.1.3-.15.45l-.16.43c-.06.14-.11.28-.18.42s-.1.22-.16.33-.11.21-.17.32l-.19.29-.19.32c-.08.13-.15.27-.22.41s-.13.28-.19.42l-.39.88c-.13.29-.26.57-.41.86l-.23.43c-.07.14-.16.28-.24.42h0l0,.06h0v0h0l-.09.15h0v0h0l-.08.14h0l-.1.17Z" transform="translate(4.64 2.43)"/><path class="cls-1" d="M145.2,52.78c.08-.26.17-.53.26-.8s.15-.47.23-.71l.15-.44.1-.34.24-.78a1.09,1.09,0,0,0,0-.17c0-.1.07-.2.1-.3l0-.16h0l0-.27a1.1,1.1,0,0,1,0-.18,2.28,2.28,0,0,1,0-.26c0-.13,0-.26,0-.39l0-.16c0-.09,0-.19,0-.28h0v-.09h0l0-.11,0-.09a1.21,1.21,0,0,0-.05-.18l-.06-.18,0-.07v0s0,0,0,0a0,0,0,0,1,0,0v0a0,0,0,0,1,.05,0l0,0a.42.42,0,0,1,0,.1l0,.08a1.21,1.21,0,0,1,.05.18l.06.18,0,.11,0,.08a.49.49,0,0,1,0,.12,2.11,2.11,0,0,1,0,.25v.06l0,.24,0,.35c0,.16,0,.31,0,.47a2.08,2.08,0,0,1,0,.23,1.11,1.11,0,0,1-.07.26,1.42,1.42,0,0,1-.07.22l-.24.75-.16.46a.42.42,0,0,1,0,.1l-.09.26c-.08.21-.17.43-.25.65l-.36.94Z" transform="translate(4.64 2.43)"/><path class="cls-1" d="M141.52,64.38a.13.13,0,0,1,0-.08.09.09,0,0,1,0,0l0-.1c.05-.11.1-.22.14-.33h0c.06-.14.11-.28.17-.41s.07-.2.12-.3l.18-.43.06-.11.12-.25.16-.33.12-.24a2.39,2.39,0,0,1,.21-.34c.08-.13.17-.25.25-.37l.07-.12a2.39,2.39,0,0,0,.13-.21l0,0h0c.06-.11.12-.22.19-.33h0l.21-.38.22-.41h0c0-.07.09-.14.13-.22h0l.1-.18.1-.15.1-.14a1.71,1.71,0,0,1,.11-.14l.13-.17.06-.06.09-.1a.69.69,0,0,1,.11-.13l.12-.12.17-.16.14-.13.26-.23.61-.49.13-.12.16-.14.16-.15.13-.13.25-.25.16-.16.15-.14c.18-.17.36-.33.55-.48l.31-.28.31-.27.52-.49.31-.29.28-.26.14-.12.11-.1.3-.25.33-.27.31-.27.23-.21h0c.16-.16.33-.33.48-.5h0c-.17.21-.33.41-.51.61l-.12.14-.17.17c-.09.1-.18.18-.27.27l-.25.24a2.39,2.39,0,0,1-.23.22h0l-.22.23h0l-.21.21h0l-.2.21-.21.22h0l-.23.22h0l-.16.15-.11.1-.3.27-.6.52c-.2.17-.39.35-.57.53l-.25.24-.3.28-.15.14-.14.11-.27.23c-.21.16-.41.32-.6.49l-.16.14-.16.16a3.45,3.45,0,0,0-.26.28.69.69,0,0,0-.11.13,1.83,1.83,0,0,0-.13.16l-.11.15-.09.12-.18.29h0l0,0h0l0,0h0l-.06.11h0l0,0h0c-.1.17-.19.35-.29.53s-.22.39-.34.58a.43.43,0,0,1,0,.07,1.3,1.3,0,0,1-.1.15,1.4,1.4,0,0,1-.1.16l-.19.28c-.08.12-.17.23-.24.35h0c0,.08-.08.17-.13.25l-.11.22c-.06.1-.11.21-.17.32a1.19,1.19,0,0,1-.08.16,1.17,1.17,0,0,0-.05.11c-.06.12-.12.25-.17.37s-.1.24-.14.36l-.2.48h0c0,.08-.06.15-.08.22s0,.06,0,.07l-.06,0h0S141.52,64.39,141.52,64.38Z" transform="translate(4.64 2.43)"/><path class="cls-1" d="M146.11,59.14a.31.31,0,0,1,0-.12.46.46,0,0,1,.07-.07l.18-.17a3.83,3.83,0,0,1,.29-.28l.09-.09.1-.08.4-.36.23-.2.28-.23c.2-.16.39-.33.6-.49l.39-.32.26-.2.62-.44.22-.16.27-.19h0a1.09,1.09,0,0,1,.17-.13l.18-.14.12-.1.16-.13.11-.09.17-.15.23-.21.27-.27h0l0,0h0l.06-.07h0l-.27.31a1.71,1.71,0,0,1-.11.14l-.16.17-.11.12-.15.15-.13.13-.15.14-.13.11-.18.16-.1.09-.21.16-.1.08-.21.14a3.62,3.62,0,0,1-.32.22l-.2.14-.2.14-.5.38h0l-.39.3-.46.37h0l-.67.56-.08.06,0,0-.09.08-.28.26-.19.18-.06.06-.08,0h0Z" transform="translate(4.64 2.43)"/><path class="cls-1" d="M143,67.65a2.44,2.44,0,0,1,.06-.26,2.81,2.81,0,0,1,.1-.31l.12-.26.07-.16c.08-.15.15-.3.22-.44s.13-.26.19-.4.08-.17.12-.25l.15-.28.14-.22a1.63,1.63,0,0,1,.17-.2l.29-.33c.09-.1.19-.2.28-.31l.31-.33.1-.1.17-.17.21-.19.07-.07.42-.35.57-.49.68-.58c.21-.19.43-.38.66-.55s.26-.19.4-.27l.24-.15.23-.13h0l.27-.14.25-.12c.18-.09.36-.18.54-.25h0l.07,0h0l.11,0h0L151,60l.79-.29.73-.27.38-.14.36-.13c.52-.22,1-.46,1.51-.71l.45-.23h0c-.48.31-1,.65-1.44.95l-.14.09h0c-.24.14-.48.27-.74.39l-.77.33-.8.31-.8.29-.14.06-.57.25-.3.15-.26.14h0l-.26.14-.34.22-.16.1-.2.14-.33.27-.33.27-.64.52-.66.53-.23.19-.08.07-.39.35c-.13.11-.24.23-.36.35s-.13.12-.19.19v0a4,4,0,0,1-.3.28l-.4.34a.39.39,0,0,0-.08.1,1.14,1.14,0,0,0-.15.23h0c-.1.18-.19.36-.28.54l-.23.43c0,.09-.09.19-.14.28l-.11.23c0,.08-.07.16-.11.25l-.11.22-.12.25h0Z" transform="translate(4.64 2.43)"/><path class="cls-1" d="M151.19,62.12v0s0,0,0-.05l.06-.09.09-.08.12-.08.07,0,0,0h0l.12-.08.26-.16.25-.15.11-.08h0l.31-.19.42-.26.6-.36.29-.18h0l.08,0,.09,0,.18-.08h0l.11,0h0l.18-.06h0l-.45.23h0l-.07,0-.08.05-.17.1-.28.19-.66.41-.34.22-.12.07,0,0-.12.07-.26.16-.25.15-.11.07-.19.13-.1.07-.1.07h0l0,0h0Z" transform="translate(4.64 2.43)"/><path class="cls-1" d="M145.14,70.46h0a.08.08,0,0,1,0,0s0-.05.08-.07l.16-.11.12-.09.11-.07.06,0h0l0,0h0l.47-.28h0l.11-.06.25-.14.29-.16.33-.18.42-.22.31-.15.32-.16.69-.33.25-.11.15-.07h0l.43-.17.36-.14.12,0,.13-.05.07,0,.21-.07.17-.05.38-.1.36-.07.38,0,.41,0h.28a7.93,7.93,0,0,1,1,.08h0l.2,0h-.07c-.32,0-.64,0-1,.06l-.25,0h-.12l-.14,0h0l-.13,0h0l-.19,0h0l-.19,0-.29,0-.29.07h0l-.73.22-.71.26-.31.13h0l-.38.17-.27.11L148,69l-.74.34-.34.16-.3.15-.42.22c-.17.09-.34.18-.5.28h0l-.27.17-.15.1a.39.39,0,0,1-.14.08h0Z" transform="translate(4.64 2.43)"/><path class="cls-1" d="M154,68.92h-.43l-.49,0L153,69h-.12a.06.06,0,0,1,0-.11l.08,0,.09,0,.2,0,.39-.07c.27,0,.55-.08.83-.11h0l.2,0h0l.21,0h0l.16,0,.17,0h0l.58-.08a6.17,6.17,0,0,0,.62-.09h0l-.49.2-.49.16h0l-.44.1-.43.06h-.1Z" transform="translate(4.64 2.43)"/><path class="cls-1" d="M137.33,61.81c-.06,0-.07-.08-.09-.12a.5.5,0,0,1,0-.12c0-.16-.07-.31-.1-.46s-.05-.24-.07-.36l-.06-.33-.15-.79c0-.13-.05-.25-.08-.38l-.09-.41c0-.23-.11-.46-.17-.69s-.11-.49-.17-.73h0l-.09-.31-.09-.28-.06-.11a1.07,1.07,0,0,0-.15-.22.44.44,0,0,1-.08-.11h0c-.11-.14-.22-.28-.32-.43l-.06-.1-.07-.12-.13-.3h0l.22.26.28.25.29.26a1.71,1.71,0,0,1,.18.2.77.77,0,0,1,.14.21,1,1,0,0,1,.06.16,1.17,1.17,0,0,1,0,.2.85.85,0,0,1,0,.17c.11.5.19,1,.28,1.5,0,.12,0,.25.07.37a2.17,2.17,0,0,0,0,.25.88.88,0,0,0,0,.16c0,.26.07.52.11.77s.09.55.14.82a1.84,1.84,0,0,0,0,.25c0,.12,0,.24.07.35h0a.3.3,0,0,1,0,.13s0,0,0,0Z" transform="translate(4.64 2.43)"/><path class="cls-1" d="M137,56.16a.21.21,0,0,1-.1,0,.7.7,0,0,1-.06-.09s0-.07,0-.11l-.09-.32c-.07-.22-.13-.45-.19-.67,0,0,0,0,0,0s-.12-.24-.18-.36a1.24,1.24,0,0,1-.1-.2h0l0,0h0a.59.59,0,0,1,.2.15,1.81,1.81,0,0,1,.24.24.63.63,0,0,1,.13.2.88.88,0,0,1,.05.15l.09.24c.06.15.11.3.16.45l0,.13a.32.32,0,0,1,0,.17s0,.13-.12.13Z" transform="translate(4.64 2.43)"/><text class="cls-2" transform="matrix(0.47, -0.88, 0.88, 0.47, 11.62, 70.71)">F</text><text class="cls-2" transform="translate(16.32 62.3) rotate(-56.81)">l</text><text class="cls-2" transform="matrix(0.62, -0.78, 0.78, 0.62, 21.16, 55.02)">o</text><text class="cls-2" transform="matrix(0.71, -0.71, 0.71, 0.71, 28.68, 45.76)">w</text><text class="cls-2" transform="matrix(0.78, -0.63, 0.63, 0.78, 38.6, 36.27)">e</text><text class="cls-2" transform="translate(45.82 30.57) rotate(-33.88)">r</text><text class="cls-2" transform="translate(54.56 24.9) rotate(-28.89)">s</text><text class="cls-2" transform="matrix(0.91, -0.42, 0.42, 0.91, 62.43, 20.74)"> </text><text class="cls-2" transform="translate(68.59 17.97) rotate(-20.72)">s</text><text class="cls-2" transform="matrix(0.96, -0.27, 0.27, 0.96, 76.92, 14.91)">u</text><text class="cls-2" transform="translate(87.72 12.11) rotate(-9.98)">b</text><text class="cls-2" transform="matrix(1, -0.09, 0.09, 1, 97.48, 10.55)">s</text><text class="cls-2" transform="translate(106.33 9.91) rotate(-0.87)">c</text><text class="cls-2" transform="translate(117.24 10.01) rotate(5.46)">r</text><text class="cls-2" transform="translate(127.7 11.2) rotate(10.12)">i</text><text class="cls-2" transform="translate(134.81 12.54) rotate(14.46)">p</text><text class="cls-2" transform="translate(144.01 15.05) rotate(19.53)">t</text><text class="cls-2" transform="translate(153.26 18.51) rotate(24.06)">i</text><text class="cls-2" transform="translate(159.87 21.49) rotate(29.03)">o</text><text class="cls-2" transform="translate(170.02 27.29) rotate(35.17)">n</text><text class="cls-2" transform="translate(179.92 34.54) rotate(40.72)">/</text><text class="cls-2" transform="translate(186.79 40.64) rotate(45.39)">s</text><text class="cls-2" transform="translate(192.85 46.85) rotate(50.78)">h</text><text class="cls-2" transform="translate(200.45 56.44) rotate(57.01)">o</text><text class="cls-2" transform="translate(206.67 66.36) rotate(62.46)">p</text></svg>