<svg id="Layer_1" data-name="Layer 1" xmlns="http://www.w3.org/2000/svg" viewBox="0 0 310.5 94.74"><defs><style>.cls-1{font-size:50px;font-family:FivoSans-Light, Fivo Sans;font-weight:300;letter-spacing:0.05em;}.cls-1,.cls-2{fill:#5c6c32;}</style></defs><title>logo</title><text class="cls-1" transform="translate(0 82.19)"><tspan xml:space="preserve">THE  FLEUR</tspan></text><path class="cls-2" d="M113,34.71v0h0Z" transform="translate(2.03)"/><path class="cls-2" d="M102.13,19.05h0v0Z" transform="translate(2.03)"/><path class="cls-2" d="M118.17,16.65v0h0Z" transform="translate(2.03)"/><path class="cls-2" d="M104.57,38.34h0Z" transform="translate(2.03)"/><polygon class="cls-2" points="131.44 16.61 131.44 16.61 131.44 16.61 131.44 16.61"/><path class="cls-2" d="M113.75,6.88v0h0Z" transform="translate(2.03)"/><polygon class="cls-2" points="114.96 21.98 114.96 21.98 114.96 21.98 114.96 21.98 114.96 21.98"/><polygon class="cls-2" points="110.84 19.66 110.84 19.65 110.84 19.65 110.84 19.66"/><path class="cls-2" d="M135.59,40.8A1.77,1.77,0,0,0,135,40a1.85,1.85,0,0,0-.33-.21l-.24-.12-.16-.06-.16-.06-.15,0-.14,0-.17,0h0l-.14,0-.25-.08-.22-.1-.22-.13a1.56,1.56,0,0,1-.2-.16l-.07-.07a.19.19,0,0,0-.06-.07l-.05,0h0l-.14-.18c-.17-.27-.29-.56-.44-.85a2.54,2.54,0,0,0-.94-1.07,2.45,2.45,0,0,0-.64-.23l-.35-.07c-.12,0-.23,0-.36,0a1.74,1.74,0,0,0-.64.09,2.07,2.07,0,0,0-.5.23l-.23.14-.19.14-.37.3-.14.12-.37.27a4.8,4.8,0,0,0-.52.36,2.51,2.51,0,0,0-.67.86c-.07.13-.13.27-.19.41s-.11.3-.17.44l-.07.16,0,.09-.11.23-.21.36a3.46,3.46,0,0,1-.22.31h0l-.44.58h0c-.16.21-.3.44-.46.65h0a4.7,4.7,0,0,1-.35.43l-.08.07-.18-.14h0l.13-.07,0,0a.2.2,0,0,0,.08,0l.12-.09.08-.07.08-.07.16-.18.17-.28.08-.15.17-.36a6,6,0,0,0,.26-.71c.07-.23.13-.46.21-.7a2.25,2.25,0,0,1,.08-.24s0-.08,0-.13h0l.15-.43h0l.06-.19h0c0-.06,0-.13.07-.2h0c0-.09.07-.19.11-.28s.08-.18.11-.27h0c0-.07,0-.13.07-.2a.84.84,0,0,0,0-.17.74.74,0,0,0,0-.14c0-.13.06-.26.08-.38s0-.13,0-.18a1.48,1.48,0,0,0,0-.21,2.28,2.28,0,0,0,0-.26,1.37,1.37,0,0,0-.07-.29.84.84,0,0,0-.11-.21l-.16-.23a2.08,2.08,0,0,0-.41-.37,2.11,2.11,0,0,0-.56-.22,1.73,1.73,0,0,0-.6,0,2.3,2.3,0,0,0-.54.19,2.53,2.53,0,0,1-.23.12l-.12.05-.09,0h-.42l-.14-.05-.43-.2a3.08,3.08,0,0,0-.53-.21l-.28-.05h-.31a2.14,2.14,0,0,0-.57.12l-.18.08-.21.09-.52.25h0l-.74.32-.34.15c0-.17.06-.35.1-.53s.08-.39.13-.59.12-.42.19-.63h0v0c.09-.12.19-.24.29-.35l.33-.36c.11-.12.21-.25.31-.37l.29-.38c.06-.08.13-.15.2-.23a3.69,3.69,0,0,1,.41-.38l.15-.12.16-.11.23-.13.23-.11.47-.2c.16-.06.33-.11.49-.18l.27-.12.26-.11.22-.12.16-.11a1.38,1.38,0,0,0,.26-.22c.11-.13.22-.26.31-.39s.2-.26.29-.4.34-.55.49-.83.15-.28.22-.42.13-.28.18-.43a3.53,3.53,0,0,0,.15-.46,3.4,3.4,0,0,0,.07-.46,3.89,3.89,0,0,0,0-.47,3.68,3.68,0,0,0,0-.47,3.86,3.86,0,0,0-.06-.49c0-.14,0-.29-.08-.43s-.06-.3-.1-.45-.09-.33-.14-.5-.2-.59-.29-.88l-.06-.18v-.05h0l0-.07-.06-.23a1.29,1.29,0,0,1,0-.19c0-.07,0-.14,0-.21a1.49,1.49,0,0,1,0-.21q0-.36-.06-.72c0-.12,0-.23,0-.34V21a.06.06,0,0,0-.05-.06h0l-.05,0a.22.22,0,0,0-.16,0l-.49.16-.24.11-.21.12-.41.28-.41.27-.43.31-.86.59a3.72,3.72,0,0,0-.47.34,4.11,4.11,0,0,0-.3.29l-.13.16-.16.21-.14.22-.12.2-.09.19-.08.17c0,.06-.05.12-.07.17s-.08.2-.11.29l-.12.31-.06.14-.09.18-.06.11a1.64,1.64,0,0,1-.14.22l-.16.21-.38.36a1.75,1.75,0,0,0-.26.29,2.53,2.53,0,0,0-.13.22,3.38,3.38,0,0,0-.18.44l0,.12a.43.43,0,0,0,0,.11,2,2,0,0,0,0,.24l0,.21c0,.08,0,.16,0,.24v.13a.49.49,0,0,0,0,.12,2,2,0,0,0,0,.25s0,.06,0,.08,0,.08,0,.12l.06.22c0,.16.1.32.16.47s.18.53.26.8l0,.2s0,.07,0,.1l0,.11c0,.3,0,.6,0,.9s0,.64,0,1,0,.56,0,.84l0,.46c0,.06,0,.13,0,.19v.14s0,.06,0,.09a.17.17,0,0,0,0,.11.17.17,0,0,0,.1.06h0c0,.1,0,.19-.07.29s-.07.44-.11.66l-.06.4-.13.09a2.69,2.69,0,0,0-.27.2,1,1,0,0,0-.31.59c0,.1,0,.2,0,.3s0,.2,0,.3h0v.08h0v0c0,.12,0,.24,0,.35a1.34,1.34,0,0,1,0,.2,1.23,1.23,0,0,0,0,.19c0,.13,0,.25.06.37a.85.85,0,0,0,0,.17v.07h0v0h0v.26a2.42,2.42,0,0,0,0,.25,2.17,2.17,0,0,0,.07.24,1.42,1.42,0,0,1,0,.16c0,.32,0,.64,0,1s0,.43,0,.65v.26l-.25-.3a3.58,3.58,0,0,0-.26-.29l-.11-.11,0-.06-.26-.49c-.14-.24-.29-.49-.45-.72s-.1-.5-.14-.74-.12-.68-.17-1h0c0-.49-.1-1-.13-1.49,0-.26,0-.52,0-.78s0-.53,0-.79c0-.63.06-1.25.1-1.87s.08-1.26.15-1.89q.06-.63.18-1.26c.06-.25.11-.49.17-.73s.13-.5.19-.76.12-.54.17-.81l0-.11v0c0-.2.08-.41.11-.62h0c.24-1.22.5-2.42.8-3.63.07-.31.15-.62.23-.93s.17-.63.25-1c0-.16.07-.32.1-.48l0-.18s0-.06,0-.1a.41.41,0,0,1,.05-.09l0-.13a.5.5,0,0,0,0-.13l.09-.24a3,3,0,0,1,.15-.38c.05-.12.11-.24.17-.37s.26-.45.41-.67l.25-.37h0s0,0,0,0a.11.11,0,0,0,.07,0,.82.82,0,0,0,.12-.2l.09-.17.1-.19.09-.1.23-.3.1-.1a1.37,1.37,0,0,1,.17-.17l.19-.17.42-.31.38-.3c.27-.21.53-.43.78-.64l.38-.32.35-.27.15,0,.18-.07.14-.05.11,0h.3c.41,0,.83,0,1.24.1l.11,0,.12,0h0c.09,0,.19,0,.28.09l.29.1.67.28.33.15.37.17.31.12.38.17.14.06.17.07.34.13.16.05.1,0h0l.16,0,.15,0,.17,0,.15,0h.28a3.87,3.87,0,0,0,.48,0,3.33,3.33,0,0,0,.55,0,4.68,4.68,0,0,0,.54-.07l.53-.13a4.55,4.55,0,0,0,1-.41l.21-.13.18-.13.16-.12.09-.07,0,0,.14-.12.26-.23.54-.49c.09-.08.16-.16.25-.23l.13-.14a.82.82,0,0,0,.12-.2.28.28,0,0,0,0-.09.29.29,0,0,0,0-.09.27.27,0,0,0-.08-.07.34.34,0,0,0-.12-.06l-.15,0-.1,0-.16,0-.38-.09-.71-.18-.71-.14-.31-.06a2.47,2.47,0,0,1-.29-.06h0l-.22-.06-.2-.07-.64-.28-.33-.15-.19-.07-.19,0-.19,0-.18,0-.35,0c-.29,0-.57-.05-.86-.05a4.87,4.87,0,0,0-.54,0,4.34,4.34,0,0,0-.52.09l-.23.07-.15.05-.19.06-.06,0-.13.06-.14.06-.18.09-.13.08-.14.07h0l0,0h0l0,0h0l0,0h0l0,0h0l0,0h0l0,0h0l0,0h0l-.06,0-.13.09-.08,0-.07.06-.18.14-.18.16-.16.13h0l0,0-.08,0a5.85,5.85,0,0,0-.84.26l-.43.16-.38.15a3,3,0,0,0-.41.18l-.21.11-.1.06-.1.07a5.61,5.61,0,0,0-.55.41h0c-.21.17-.42.33-.62.51l-.31.28-.3.3a1.46,1.46,0,0,0-.16.19c0-.08.07-.16.11-.23l.18-.36.13-.27.15-.28v0l.44-.78c.07-.13.13-.27.2-.4l.08-.18c0-.06,0-.11.07-.16s.12-.29.17-.43l.15-.38.09-.23,0,0h0l.2-.15.2-.14.42-.3.38-.25.24-.16.23-.16.16-.13.2-.15.22-.19.17-.15.33-.33c.11-.11.21-.23.31-.35l.09-.12.06-.07.15-.23,0-.06.09-.15.09-.19a3.42,3.42,0,0,0,.17-.4,2.09,2.09,0,0,0,.08-.23,1.55,1.55,0,0,0,.08-.23l.06-.21a.29.29,0,0,1,0-.09.5.5,0,0,1,0-.12,1.43,1.43,0,0,1,0-.22v-.1c0-.05,0-.09,0-.14V7.86a.81.81,0,0,0,0-.16V7.5a1.34,1.34,0,0,0,0-.2V7.05c0-.08,0-.17,0-.25a1.79,1.79,0,0,0,0-.23,2,2,0,0,0,0-.24c0-.07,0-.13,0-.2L126,5.24l-.24-.87c-.08-.29-.17-.57-.26-.86,0-.14-.1-.28-.14-.42a2,2,0,0,1-.08-.22l0-.08-.06-.14-.1-.21-.11-.2-.21-.39-.12-.25-.06-.15,0-.15c0-.09-.06-.19-.1-.29s-.13-.38-.19-.58l-.06-.28h0a.28.28,0,0,0,0-.09.12.12,0,0,0-.05,0,.16.16,0,0,0-.15,0l-.08.06-.08.09a1.47,1.47,0,0,1-.1.13l-.26.39-.11.2c0,.06-.07.13-.11.2s-.07.14-.11.22a2,2,0,0,1-.1.21c-.06.13-.11.27-.17.4s-.11.29-.17.43l-.32.84c-.11.28-.24.56-.37.83a7.37,7.37,0,0,0-.38.81,3.73,3.73,0,0,0-.14.44,1.42,1.42,0,0,0,0,.22,1.43,1.43,0,0,0,0,.22,1.52,1.52,0,0,0,0,.21l0,.15v.08c0,.16,0,.33,0,.49v.19a2.62,2.62,0,0,1,0,.28,1.21,1.21,0,0,0,0,.19v.2a2.08,2.08,0,0,0,0,.23l0,.23c0,.07,0,.14,0,.22a1.74,1.74,0,0,1,0,.22l.21.88.12.45c0,.14.06.28.08.42l0,.14,0,.25a2.46,2.46,0,0,1,0,.26,2.81,2.81,0,0,1,0,.29,2.25,2.25,0,0,1,0,.26c0,.26,0,.52,0,.77a3.23,3.23,0,0,0,0,.44v.2c-.11.23-.21.46-.31.69s-.13.29-.19.43a1,1,0,0,0-.07.15,1.86,1.86,0,0,1-.1.2l-.18.37-.23.43c-.12.24-.24.49-.34.74l-.33.81c-.08.21-.17.42-.26.63l-.16.16-.33.36-.65.81c-.09.13-.19.26-.27.39l-.16.29c0-.35,0-.71,0-1.06s-.07-1-.13-1.48-.12-.75-.18-1.13v0h0l.09-.2c0-.09.11-.18.17-.27l.18-.32.16-.29c0-.1.1-.2.14-.3a1.63,1.63,0,0,0,.11-.31l.09-.31a1.94,1.94,0,0,0,.07-.33c0-.12,0-.23,0-.34a4.85,4.85,0,0,0,0-.66c0-.21,0-.42,0-.63a5.07,5.07,0,0,0-.09-.65,3.94,3.94,0,0,0-.22-.63l-.12-.27h0c-.1-.2-.2-.4-.31-.6a1.82,1.82,0,0,0-.15-.27c-.06-.1-.12-.2-.19-.3l-.16-.2-.09-.09,0-.05,0,0h0l-.16-.15-.2-.17-.31-.26h0l-.27-.24-.13-.12-.13-.11-.51-.5-.51-.51-.51-.5-.34-.33-.14-.15-.15-.16h0l0,0-.09,0a.27.27,0,0,0-.09,0,.16.16,0,0,0-.08.06l0,0,0,0s0,.06,0,.1a.28.28,0,0,1,0,.09s0,.1,0,.16l0,.32c0,.22,0,.43,0,.64s0,.14,0,.2c0,.22,0,.44,0,.65s0,.24,0,.36v.35c0,.1,0,.21,0,.31s0,.21,0,.31l0,.32c0,.11,0,.22,0,.34l0,.21a1,1,0,0,0,0,.14.7.7,0,0,0,0,.14,1.6,1.6,0,0,1,0,.21s0,.09,0,.13a.84.84,0,0,0,0,.17l.11.3.27.68.05.11a1.42,1.42,0,0,0,.08.18l.08.17a.54.54,0,0,0,.07.13s.05.09.07.13l.06.11,0,0,.12.17a.64.64,0,0,0,.1.13l.09.12.12.14.14.15.13.12.51.49.47.49.11.12h0l.21.26.22.3.18.26.16.23c0,.16.05.33.08.5s0,.33.07.5c.07.61.12,1.23.13,1.84,0,.32,0,.64,0,1s0,.62,0,.93v.15h0c0,.13,0,.27,0,.41a2,2,0,0,0,0,.25c0,.08,0,.16,0,.24,0,.3-.11.6-.17.89v0c0,.12,0,.23-.07.35v0h0v0c0,.07,0,.14,0,.21v0s0,.07,0,.11h0c0,.22-.09.45-.13.68l-.36,1.79c-.06.3-.12.61-.19.91s-.13.62-.19.93-.07.36-.11.54h0c0,.15-.06.29-.1.44-.07.31-.14.62-.23.93s-.16.61-.23.91a1.77,1.77,0,0,0,0,.2c0-.07,0-.14,0-.21s0-.11,0-.16,0-.1,0-.15l0-.23,0-.16a.77.77,0,0,0,0-.15l-.06-.23a3.58,3.58,0,0,0-.09-.35c0-.13-.07-.25-.11-.37s-.08-.23-.12-.35l-.12-.34c0-.09-.07-.17-.1-.25s0,0,0,0h0v0s0-.11.07-.17l.06-.17a3.57,3.57,0,0,0,.1-.35c0-.12,0-.25.06-.37s0-.24,0-.36a4.66,4.66,0,0,0,0-.65,3.24,3.24,0,0,0-.12-.62l0-.12v0a6.27,6.27,0,0,0-.32-.92l0-.05h0v0a2.16,2.16,0,0,0-.17-.34,2,2,0,0,0-.22-.31,3.58,3.58,0,0,0-.26-.29L114,22.2l-.15-.11a2.9,2.9,0,0,0-.29-.19,1.73,1.73,0,0,0-.31-.14h0l0,0h0l-.14-.05a9.19,9.19,0,0,0,.6-.93,7.14,7.14,0,0,0,.48-1,4.83,4.83,0,0,0,.29-1.1,2,2,0,0,0,0-.26s0-.09,0-.13,0-.08,0-.11c0-.2,0-.41,0-.61,0-.36,0-.72-.06-1.08s-.08-.72-.12-1.07v0l-.12-1.09c0-.19,0-.37,0-.56s0-.36,0-.54,0-.36,0-.54,0-.35,0-.53c0-.34,0-.68,0-1,0,0,0-.08,0-.12a.16.16,0,0,0-.06-.08.21.21,0,0,0-.12,0l-.1,0-.12.08-.11.1a4.07,4.07,0,0,0-.4.43c-.25.28-.49.58-.72.87l-.54.7c-.18.22-.36.44-.56.65s-.57.55-.84.83a4.72,4.72,0,0,0-.37.41l-.08.1-.09.13c0,.09-.11.17-.15.26s-.09.18-.13.27a2.47,2.47,0,0,0-.1.29c-.06.2-.12.4-.16.6h0l0,.13h0a4.81,4.81,0,0,0-.07.53,5.52,5.52,0,0,0,0,.58c0,.17,0,.34,0,.52s0,.36,0,.55a5.51,5.51,0,0,0,.06.57l.06.25c0,.09.05.18.07.26l0,.06-.08-.13a1.45,1.45,0,0,0-.18-.17l-.21-.14-.11-.08-.11-.06a.31.31,0,0,0-.12-.05c-.06,0-.12,0-.11.08s0,.08,0,.11c0,.24.06.47.1.71l.12.71c0,.24.09.48.13.72s0,.24,0,.36,0,.24.05.35,0,.25.07.37.06.24.09.36a4.76,4.76,0,0,0,.3.7,10.24,10.24,0,0,0,.79,1.3c.07.11.15.21.23.32a1.64,1.64,0,0,0,.28.31l.29.2c0,.08,0,.15,0,.23,0,.38.06.77.1,1.16s.08.74.12,1.12.07.75.12,1.12c0,.18,0,.35.07.53s.06.32.09.47c.07.34.15.67.24,1l.24.73c-.14-.18-.27-.36-.41-.53-.31-.41-.62-.81-.91-1.23l-.17-.24-.16-.26-.14-.3a5.63,5.63,0,0,0-.37-.62,6.07,6.07,0,0,0-.43-.57l-.12-.13c0-.08-.07-.17-.11-.25-.12-.27-.24-.55-.35-.82s-.19-.53-.27-.8-.09-.32-.13-.48a5.24,5.24,0,0,1-.08-.53c0-.24,0-.47-.07-.71s-.07-.51-.1-.77h0v0c0-.42-.07-.86-.12-1.28a3.48,3.48,0,0,0-.49-1.26,2,2,0,0,1-.11-.21c-.09-.21-.14-.42-.21-.64a4.67,4.67,0,0,0-.24-.62,3,3,0,0,0-.16-.31,2.34,2.34,0,0,0-.2-.27,1.75,1.75,0,0,0-.24-.23l-.31-.22c-.21-.13-.45-.25-.68-.37a5.93,5.93,0,0,1-.65-.36l-.15-.12c-.17-.16-.33-.33-.5-.5l-.49-.48-.24-.22-.25-.22a2.34,2.34,0,0,0-.27-.2,1.17,1.17,0,0,0-.28-.17.33.33,0,0,0-.22,0,.39.39,0,0,0-.2.18.69.69,0,0,0-.07.15.65.65,0,0,0,0,.13l0,.1a.07.07,0,0,1,0,.05v.08h0v.05h0l-.06.44c0,.16,0,.33,0,.5s0,.63-.06.95v0h0v.11h0v0h0v.32c0,.1,0,.21,0,.32s0,.24,0,.35,0,.22,0,.33,0,.24,0,.35l.06.33c0,.12.07.25.11.38s.07.2.11.3a.89.89,0,0,0,.08.17.53.53,0,0,0,.08.15l.21.34.39.56c.14.2.27.4.42.59a6.33,6.33,0,0,0,.47.56l.4.51.25.32.24.28.24.25.29.25c.09.08.2.15.31.23l.29.18a6,6,0,0,0,.56.3l.52.29.52.32.3.22.29.24.71.65.16.14a4.32,4.32,0,0,0,.36.58c.14.2.3.39.44.59.27.37.51.76.78,1.12l.94,1.22c.1.12.19.25.28.37l.2.27a3.09,3.09,0,0,1,.26.37.75.75,0,0,1,.07.12l0,.06.15.51c.09.33.18.66.28,1s.22.75.35,1.12l.21.55c.08.19.14.37.21.56.14.37.28.74.43,1.1s.34.73.54,1.09a8.29,8.29,0,0,0,.52.84v0h-.06l-.24-.06c-.19-.05-.38-.1-.57-.17l-.25-.11-.33-.19-.35-.18-.36-.16-.38-.14a1.8,1.8,0,0,0-.4-.1,1.05,1.05,0,0,0-.52.1,2.17,2.17,0,0,0-.35.15,1,1,0,0,0-.17.1l-.17.11a1.72,1.72,0,0,0-.27.27,2.73,2.73,0,0,0-.21.3l-.12.22c-.05-.18-.11-.36-.16-.54h0l-.06-.22c0-.09-.05-.18-.07-.28s0-.22-.07-.33-.09-.37-.13-.56-.09-.41-.15-.62a.57.57,0,0,0,0-.14l0-.13-.06-.18a.88.88,0,0,0,0-.15c0-.09-.07-.18-.11-.28a1.09,1.09,0,0,0-.08-.15.37.37,0,0,0,0-.11l-.15-.28c0-.09-.1-.18-.16-.27-.22-.37-.46-.73-.71-1.09l-.11-.14-.1-.14-.08-.1-.12-.14-.13-.14-.11-.11-.11-.1-.12-.09-.28-.2-.29-.2-.15-.1-.08-.06-.07,0-.16-.12-.14-.12c-.07-.08-.15-.14-.23-.22l-.25-.23a2.29,2.29,0,0,0-.65-.45,2.37,2.37,0,0,0-.4-.15l-.17-.05-.17-.05-.3-.09-.17-.05-.16-.06a3.31,3.31,0,0,1-.33-.15c-.14-.07-.28-.16-.41-.24l-.3-.19-.18-.13-.15-.13-.23-.2-.09-.1-.06-.05a.09.09,0,0,0-.06,0,.1.1,0,0,0-.1,0,.07.07,0,0,0,0,.08h0A3.68,3.68,0,0,0,102,31q0,.3.12.6c.08.4.18.8.27,1.2,0,.2.09.4.13.6s.07.38.11.57.07.4.1.6l.09.6c0,.21.07.41.11.62s0,.21.08.31a1.21,1.21,0,0,1,0,.14l0,.06,0,.08c0,.05,0,.09.07.14s0,.1.08.14l.18.28c.12.18.26.35.39.51l.33.39.34.39,0,0,0,0h0l0,0v0h0v0l0,0a3.26,3.26,0,0,0,.46.45l.15.11.15.1a2.82,2.82,0,0,0,.29.18l.25.15.1.06.12.07h0l0,0h0l.09,0h0l0,0h0l0,0,.17.08.13,0,.2.08a.85.85,0,0,0,.17.06l.35.13.3.09c.23.07.46.15.7.2l.7.14.77.15.12,0h0l.12,0,.12,0,.07,0-.12.22a2.21,2.21,0,0,0-.18.34l-.06.16a1.48,1.48,0,0,0,0,.19,1.09,1.09,0,0,0,0,.18l0,.2c0,.14,0,.28.07.43a1.55,1.55,0,0,1,0,.22,1.23,1.23,0,0,1,0,.19.19.19,0,0,1,0,.08c0,.05,0,.09-.05.13a2.43,2.43,0,0,1-.14.2h0l0,0a2.51,2.51,0,0,0-.26.45,5.17,5.17,0,0,0-.18.51l0,.07h0v.07h0l0,.06v0a2.25,2.25,0,0,0-.09.35.92.92,0,0,0,0,.16,1.16,1.16,0,0,0,0,.18l.09.17a2,2,0,0,0,.22.29,3.47,3.47,0,0,0,.25.29,1.58,1.58,0,0,0,.31.26,3.27,3.27,0,0,0,.76.35,2.29,2.29,0,0,0,.37.12l.41.11.39.09.43.08h0l.39.06.42,0a3,3,0,0,0,.42,0H114a3,3,0,0,0,.42,0l.35-.08.32-.11q.3-.11.6-.24l0,0a4.16,4.16,0,0,0,.47-.24l.2-.12.2-.1h0a3,3,0,0,0,.12.4,1.59,1.59,0,0,0,.26.43l0,0-.08.07-.12.13a.46.46,0,0,1-.07.07l0,0-.24.12-.27.14-.27.11-.26.07-.44.07-.48.06c-.37,0-.75,0-1.12,0l-.56,0a5.35,5.35,0,0,0-.56.07c-.21,0-.41.11-.62.15h0l-.56.11-.55.1-.56.1a1.5,1.5,0,0,0-.52.21.65.65,0,0,0-.31.37.74.74,0,0,0,0,.33,1.25,1.25,0,0,0,.18.45,2.61,2.61,0,0,0,.31.43l.16.17.19.19.4.37.17.17.13.17.16.29c.13.3.19.62.31.92l.18.45c.06.16.13.31.2.47a1.3,1.3,0,0,0,.14.26,1,1,0,0,0,.08.11l.11.13a1.43,1.43,0,0,0,.26.23l0,0h0a7.18,7.18,0,0,0,.94.54l.25.1.24.08.09,0,.17,0,.54.06h.28a1.09,1.09,0,0,0,.26,0,1.11,1.11,0,0,0,.26-.07l.25-.1a4.73,4.73,0,0,0,.45-.23l.21-.14.2-.14.09,0,.05,0,.08,0h.2l.25,0,.17,0,.36.05a1.51,1.51,0,0,0,.3,0,1.37,1.37,0,0,0,.29,0l.23,0a1.12,1.12,0,0,0,.24-.13,1.73,1.73,0,0,0,.21-.17l.38-.35c.12-.11.54-1,.64-1.15s.3,1.17-.22,5.42c0,.15,0,.3-.07.46l-.2.13-.84.57-.19.13-.2.17a1.56,1.56,0,0,0-.2.16l-.19.19-.19.19-.15.16-.14.16-.12.13,0,0-.09.12-.07.08c0,.07-.09.13-.13.19l-.07.11,0,.08-.12.2a2.26,2.26,0,0,1-.11.22l-.1.22c-.06.13-.11.27-.16.4s0,.14-.07.21l0,.15s0,0,0,.07a2.38,2.38,0,0,1,0,.26.25.25,0,0,1,0,.08v.15a3.1,3.1,0,0,0,0,.43c0,.15,0,.29,0,.44s0,.13,0,.2l0,.27a2.25,2.25,0,0,0,0,.22l0,.18.06.25.07.25c0,.13.08.27.11.4s.08.3.11.45l.06.22c0,.07,0,.15,0,.22h0v0c0,.08-.07.15-.1.23s-.12.25-.17.38l-.18.42-.06.16a1.46,1.46,0,0,0-.07.19c0,.14-.1.28-.14.42s-.15.56-.23.84v0l-.1.31-.09.28-.12.37a2.25,2.25,0,0,0-.08.24c0-.08,0-.15,0-.23s0-.26,0-.39,0-.26,0-.39-.06-.48-.1-.72h0a4.38,4.38,0,0,0-.12-.61l0-.11a.42.42,0,0,0,0-.1,1.08,1.08,0,0,0-.08-.19,2,2,0,0,0-.19-.36l-.18-.32-.22-.35a4.7,4.7,0,0,0-.46-.64l-.06-.06a.43.43,0,0,0,0-.05h0l0-.19,0-.22,0-.2s0-.06,0-.09l0-.08,0-.14s0,0,0-.06h0v0h0v0h0v0h0v0h0l0,0v0h0l0,0v-.06h0a1.12,1.12,0,0,0,0-.13.69.69,0,0,0,0-.13l-.07-.16-.06-.13-.06-.11,0,0-.1-.16a1,1,0,0,0-.08-.11,1.09,1.09,0,0,0-.13-.17,3.73,3.73,0,0,0-.34-.35,3.91,3.91,0,0,0-.41-.3c-.23-.15-.47-.28-.71-.41a2.69,2.69,0,0,0-.29-.16l-.16-.08-.18-.08-.18-.06-.2,0-.37-.07c-.23,0-.47-.06-.71-.11l-.2,0-.22-.07h0l-.28-.11-.28-.12-.66-.26-.69-.24-.36-.13-.15-.05-.1,0-.14,0a.28.28,0,0,0-.13,0l-.11,0-.09.06a.22.22,0,0,0-.05.08.42.42,0,0,0,0,.22.48.48,0,0,0,0,.17,3,3,0,0,0,0,.31l.06.67,0,.32a1,1,0,0,1,0,.17s0,0,0,.06l0,.1c0,.06,0,.12,0,.18a1.33,1.33,0,0,0,0,.19,1.42,1.42,0,0,0,.07.22,3.27,3.27,0,0,0,.44.82c.1.13.21.26.32.38l.37.34a4.56,4.56,0,0,0,.42.31c.12.08.26.15.39.22h0l0,0h0l0,0h0l0,0h0l.06,0h.08l.13.06.16.06.15,0,.15,0h0l.1,0,.17,0,.36.08.19,0,.15,0,.42.08.33.06.42.06.36.06.74.13.3.07.28.08h0l.1,0,.11,0a10.65,10.65,0,0,1,1,.57l.19.13,0,0,.06.09a.41.41,0,0,1,.07.11l.09.14.1.11c0,.13,0,.26.07.4l.06.44c0,.31.08.62.14.92,0,.14,0,.29.08.43s.07.31.1.47a1.79,1.79,0,0,1,0,.23c0,.07,0,.15,0,.22v.13c0,.12,0,.24,0,.36a.57.57,0,0,1,0,.13l-.06.2a1.21,1.21,0,0,0,0,.18.79.79,0,0,0-.06.22.08.08,0,0,0,0,.06h0c0,.14,0,.28-.07.42s-.11.5-.18.74-.08.25-.13.38h0l.12.13v0c-.12.25-.24.5-.37.74s-.18.32-.26.48a4.52,4.52,0,0,0-.23.5c-.16.34-.32.69-.49,1l-.52,1c-.14.29-.27.59-.42.88l-.06.08c-.1.16-.22.32-.32.49a5.39,5.39,0,0,0-.3.52c-.08.16-.15.33-.24.49v0l-.24.44-.14.27-.18.32a5.52,5.52,0,0,0-.26.55c-.07.15-.13.32-.19.48a5.49,5.49,0,0,1-.21.51.45.45,0,0,0,.2.55.65.65,0,0,0,.23.09h.12a.58.58,0,0,0,.34-.11.81.81,0,0,0,.27-.45c0-.12.08-.23.11-.35s.11-.42.16-.63a1.6,1.6,0,0,0,.05-.21l.18-.39c.09-.21.18-.42.26-.63l.24-.62a4.91,4.91,0,0,1,.28-.62l.27-.48c.09-.18.18-.35.26-.53.18-.35.35-.71.52-1.07.09-.17.17-.35.26-.52s.15-.34.22-.51c.16-.38.33-.75.51-1.12s.26-.55.4-.82l.55-.61.71-.76c.46-.48,1-.93,1.46-1.38l.42-.35.43-.35.29-.09.34-.11.39-.12.36-.09h0l.17,0c.24-.06.48-.1.73-.14l.76-.11.19,0,.23,0,.19,0,.16,0,.17-.05.22-.07.07,0,.12,0,.15-.06.16-.07.19-.09.19-.1.13-.06.7-.39.31-.18.16-.1.14-.08.19-.13.13-.1.13-.09.18-.15.29-.24.25-.24.24-.23.24-.24.26-.27a3.45,3.45,0,0,0,.26-.28c.16-.17.31-.34.46-.52l.14-.16c.15-.17.3-.35.44-.53l.22-.27.1-.13.06-.08.06-.09,0,0a.11.11,0,0,1,0,0,.15.15,0,0,0,0-.09.2.2,0,0,0-.08,0l-.09,0-.08,0h0l-.23,0-.22,0-.5.08-.78.12-.77.13c-.26,0-.51.09-.77.12l-.18,0-.19,0-.4,0h0l-.45,0-.28,0-.23,0h-.13l-.14,0-.27.07-.37.14-.32.13c-.23.09-.45.2-.68.31h0l-.29.14a6.74,6.74,0,0,0-.64.38l-.55.46-.49.47c-.17.17-.33.34-.48.52l-.21.29a2.38,2.38,0,0,0-.18.3c-.06.1-.12.19-.17.29s-.1.2-.14.3-.08.21-.11.31l-.09.31-.09.35c0,.1,0,.2-.07.3a1.19,1.19,0,0,1-.08.2h0v0c-.32.26-.65.51-1,.78s-.82.72-1.2,1.1l-.17.17c.05-.14.11-.27.16-.41s.11-.22.17-.34.17-.36.26-.54.16-.35.23-.52c.14-.33.28-.65.41-1s.23-.65.36-1l.19-.51.21-.51c.13-.33.25-.66.35-1,.2-.7.36-1.42.57-2.13l0-.1h0l.22-.19.11-.09.38-.29.42-.29.81-.58.2-.14.2-.15.19-.16.19-.18.16-.15.14-.14L122,62l.14-.14.35-.39.06-.06.1-.13.13-.18.13-.2a1,1,0,0,0,.12-.19,4.11,4.11,0,0,0,.21-.42,8.29,8.29,0,0,0,.31-.83,8.64,8.64,0,0,1,.31-.85l.38-.83.18-.42c0-.14.11-.27.16-.41a1.8,1.8,0,0,1,.08-.21c0-.08,0-.16.07-.24l.06-.21.06-.21a3.39,3.39,0,0,0,.08-.44.77.77,0,0,0,0-.15v-.12a.28.28,0,0,0,0-.09.14.14,0,0,0-.12-.08l-.07,0-.08.06h0a2.48,2.48,0,0,1-.26.19l-.57.35-.29.18-.15.09-.16.09-.27.13-.45.19-.24.1-.23.11-.15.08-.09.05-.23.12-.41.26-.56.35c.09-.55.18-1.11.24-1.67,0-.39.08-.78.1-1.17,0-.1,0-.21,0-.32s0-.21,0-.32,0-.37,0-.56,0-.58,0-.87,0-.32,0-.48V52c0-.08,0-.15,0-.22h0v-.06c0-.32,0-.63,0-.94s0-.43,0-.64c0,0,0-.11,0-.17,0-.23,0-.45,0-.67s0-.43,0-.64v0c0-.19,0-.39,0-.58a1.77,1.77,0,0,0,0-.23.86.86,0,0,0,0-.16.3.3,0,0,0,0-.08l.08-.15h0v0c0,.11,0,.22,0,.34h0v0h0c0,.13,0,.27,0,.4l0,.45c0,.27,0,.54,0,.81v.21c0,.07,0,.15,0,.22s0,.16,0,.24l0,.22c0,.13,0,.25.08.37a1.6,1.6,0,0,0,0,.21c0,.08,0,.16.07.24s.07.2.1.29a.17.17,0,0,1,0,.05l0,.11a.67.67,0,0,0,.06.12l.09.17.07.11.18.28v0l.21.36.07.11a.5.5,0,0,0,0,.21.83.83,0,0,0,.11.15l.13.14.06,0s0,0,0,0a2.24,2.24,0,0,0,.46.4l.43.26.33.16.16.07.14.08.38.23.41.24.15.08.31.11.11,0a1.61,1.61,0,0,0,.38,0,1.38,1.38,0,0,0,.34-.12l.21-.1.41-.21a2.51,2.51,0,0,0,.37-.27,2.2,2.2,0,0,0,.31-.3l.32-.3.19-.17h0a1.88,1.88,0,0,1,.23-.16l.16-.09.13-.06.13-.05.6-.17c.2,0,.4-.11.61-.15l.3,0h0l.23,0,.26,0a2.54,2.54,0,0,0,.47-.14,1,1,0,0,0,.22-.09.82.82,0,0,0,.2-.12,1.29,1.29,0,0,0,.17-.16,1.88,1.88,0,0,0,.12-.18,2.69,2.69,0,0,0,.19-.38,1.55,1.55,0,0,0,.12-.42,1.2,1.2,0,0,0,0-.2,1.64,1.64,0,0,0,0-.23.76.76,0,0,0,0-.21.81.81,0,0,0-.07-.22l-.06-.16v-.06a.06.06,0,0,1,0,0l0-.12c.1-.26.21-.51.32-.75l.09-.2c0-.06.06-.14.09-.21a1.09,1.09,0,0,0,.06-.36v-.1a.85.85,0,0,0,0-.32,1.33,1.33,0,0,0-.34-.55,1.07,1.07,0,0,0-.19-.18,2,2,0,0,0-.25-.14,1.15,1.15,0,0,0-.33-.09,6.51,6.51,0,0,0-1,0h-.31l-.48,0-.46,0-.5,0-.5-.06h0l-.47-.08-.49-.11-.47-.1-.47-.1-.14,0-.33-.1-.29-.1-.31-.14L124.9,46l-.6-.31-.16-.09-.09,0,0,0,0-.06.26,0h.28l.36,0,.31,0,.38.05.27,0,.25,0,.47.1,1,.24c.34.08.68.15,1,.2l.26,0a1.61,1.61,0,0,0,.22,0h.19l.49-.09.27-.06c.1,0,.19-.06.29-.09l.52-.17c.31-.11.63-.2.94-.33l.48-.22c.15-.07.29-.16.43-.24l.29-.19a2.78,2.78,0,0,0,.27-.21l.11-.12.07-.11a1.22,1.22,0,0,0,.07-.17c0-.08.07-.17.11-.26l0-.07,0-.05.07-.06.08-.06.21-.11.44-.18.13-.06.13-.07.15-.12a1.43,1.43,0,0,0,.2-.23l.17-.28c0-.1.09-.19.13-.28s.09-.21.13-.32a2.65,2.65,0,0,0,.14-.62A1.63,1.63,0,0,0,135.59,40.8ZM121.92,9.14c0-.17-.09-.34-.13-.51l-.05-.2,0-.11-.06-.25V8l0-.12,0-.14,0-.07s0-.09,0-.14V7.48c0-.05,0-.09,0-.14v0c0-.13,0-.25,0-.38v-.1a2.17,2.17,0,0,1,0-.26V6.1c0-.1,0-.19,0-.29v0a.45.45,0,0,1,0-.11l0-.19,0-.17,0-.14v0l0-.11V5a.88.88,0,0,0,0-.15v0c0-.12.1-.25.16-.37L122,4.3c0-.1.09-.2.13-.29.13-.28.25-.57.36-.86,0-.12.09-.23.13-.34s.12-.34.19-.51.23-.57.35-.82l.16-.34.22-.38.08-.12,0-.06.09-.12,0,0,0,0,.14-.16a.08.08,0,0,1,0,0h0c0,.12.05.25.09.4s.09.3.14.46.09.29.14.43a2.75,2.75,0,0,0,.17.41l.14.28a.75.75,0,0,1,.07.12l0,.07s0,.09.07.14l.06.13,0,.08a.5.5,0,0,1,0,.13l0,0,.06.14c0,.12.08.23.11.34l0,.16c.05.14.1.29.14.44l0,.09h0c0,.14.08.3.12.45l.09.36,0,.07c0,.15.07.3.1.45s.06.27.1.41l.09.39v0l0,.12,0,.1,0,.12v.06a2.29,2.29,0,0,0,0,.25c0,.12,0,.24,0,.37s0,.2,0,.3v0a2.09,2.09,0,0,1,0,.25V7.9h0V8h0v.1a.13.13,0,0,1,0,.06v0l0,.13,0,.09,0,.09a.61.61,0,0,1,0,.13v.06s0,.08,0,.12a.14.14,0,0,1,0,.06l0,.11,0,.05-.09.23,0,.1-.06.14,0,.09,0,.1-.07.11-.06.12-.06.08,0,0-.06.09,0,0-.12.15-.1.12v0l0,0-.08.1-.15.16-.08.08-.07.08-.12.11,0,0-.24.22-.08.06-.1.08a1.89,1.89,0,0,1-.27.2l-.45.33c-.31.21-.56.4-.79.58l-.13.1h0a2.25,2.25,0,0,0,.08-.24c.07-.23.14-.45.2-.68l0-.14c.08-.27.16-.55.25-.82s.09-.28.13-.41.09-.26.13-.4v0c.08-.27.16-.54.26-.82v0h0l0-.11.1-.3a3,3,0,0,0,.11-.4l0-.2V7.87c0-.1,0-.2,0-.3V7.45h0v0a3.92,3.92,0,0,0-.15.42,2.83,2.83,0,0,0-.11.4c0,.14-.07.27-.1.39s-.1.27-.14.41-.11.33-.16.49l-.07.21c-.09.29-.17.53-.25.76l-.07.17-.12.35h0q-.12.32-.24.66l0,.1h0c0-.15,0-.27,0-.38v-.64l0-.24,0-.25a1.77,1.77,0,0,0,0-.2c0-.15-.07-.31-.11-.46S122,9.31,121.92,9.14Zm1.94,5.56.2-.08.52-.19.15,0,.12,0h.06l.3-.07h.07l.32-.05.36,0h1l.18,0,.23,0,.83,0h.05l.61,0,.26,0,.84.06h0l.26,0h.06l.16,0a.55.55,0,0,0,.22,0,.49.49,0,0,0,.21-.08.65.65,0,0,0-.16-.09l-.18-.06h-.23l-.22,0-.86-.07h-.24l-.66,0c-.28,0-.58,0-.88,0l-.46,0-.39,0-.47,0h-.88l-.09,0h0l.08-.06,0,0,.13-.1.07,0,.16-.11.13-.08.08-.05.17-.1,0,0,.14-.07.1-.05.13-.07.18-.07.07,0s0,0,.08,0l0,0h0l.09,0,.07,0h.08l.06,0h0l.13,0,.18-.05a3.18,3.18,0,0,1,.43-.06h.43l.41,0h0l.2,0h.09l.49.05.1,0h0l.31.06.21.07.51.22.14.07.32.13.36.12.38.09.33.06h0l.39.07.33.06.41.08.31.07.73.15h.09l0,0a.36.36,0,0,1-.08.09l0,0h0l-.17.16,0,0-.07.07-.11.09-.16.14-.27.24,0,0-.23.2,0,0-.14.13-.11.08-.08.06-.09.07-.21.14-.46.25a3.8,3.8,0,0,1-.47.18,4.42,4.42,0,0,1-.52.14q-.32.06-.63.09a4.25,4.25,0,0,1-.51,0,2.81,2.81,0,0,1-.43,0h-.08l-.16,0-.29-.06h0l-.1,0h0l-.08,0h0l-.13,0-.14-.05-.27-.1-.25-.1-.47-.18-.7-.28-.11,0-.39-.16h0l-.32-.13h0l-.32-.11-.39-.12-.17,0H125l-.3,0h-.08l-.29,0h-.09l-.35,0h0Zm-6.49,0h0l-.15-.19a2.94,2.94,0,0,0-.2-.26h0l-.23-.25-.26-.28-.44-.43,0,0L116,13.2l-.2-.19h0l-.09-.09,0-.05-.07-.08-.13-.14-.07-.1,0,0h0l-.08-.11,0,0a.76.76,0,0,0-.08-.11l-.06-.1,0-.05a.41.41,0,0,1,0-.09l0,0v0l-.06-.11,0-.08,0-.09,0,0c0-.08-.07-.15-.1-.23s-.09-.23-.14-.34l-.12-.34c0-.06-.05-.13-.08-.2l0-.09,0-.08v0l0-.06,0-.07,0-.12,0-.09,0-.14v0h0a.77.77,0,0,1,0-.15V9.57a.88.88,0,0,1,0-.16.41.41,0,0,1,0-.11,1.23,1.23,0,0,1,0-.19V9a1.62,1.62,0,0,0,0-.22c0-.25,0-.47,0-.69V7.74h0V7.57h0a.45.45,0,0,0,0-.11v0h0V7.16h0a1.48,1.48,0,0,1,0-.21V6.88h0a1.93,1.93,0,0,1,0-.24c0-.13,0-.26,0-.4v0c0-.11,0-.22,0-.33v0c0-.08,0-.17,0-.27h0l.09.09a.12.12,0,0,0,0,.09s0,0,0,.06h0a.15.15,0,0,0,0,.07c0,.06,0,.13,0,.19v0l.06.21c0,.07,0,.15.07.23l.09.23.09.2c.05.1.11.2.17.3l.05.08.26.4c0,.08.11.15.17.23l.08.12c.1.14.19.27.29.39a5.09,5.09,0,0,0,.32.4l.18.19.17.18h0l.07.09.06.09,0,0h0v0a1.74,1.74,0,0,1,.11.18c0,.07.07.14.1.22a1.6,1.6,0,0,1,.1.23c0,.08.06.17.08.24s0,.14,0,.21v0s0,.06,0,.09v0s0,.07.05.09h0l0,0a.06.06,0,0,0,0-.08h0s0,0,0-.08v0l0-.21a1.16,1.16,0,0,0,0-.18.84.84,0,0,0,0-.17l0-.08a3.54,3.54,0,0,0-.16-.43,1.54,1.54,0,0,0-.09-.19l-.06-.11-.05-.07,0,0-.1-.13,0,0,0,0a.76.76,0,0,1-.11-.14c-.09-.11-.17-.23-.25-.34-.22-.35-.41-.71-.59-1.06-.09-.17-.18-.34-.28-.51L115,6.62c-.06-.13-.11-.27-.17-.4l0,0h0l0,0,.22.21.49.48.51.5.54.5,0,0,.25.22.28.24,0,0a.39.39,0,0,0,.1.08l0,0,.09.08h0l.08.07.05.05,0,0h0a.48.48,0,0,1,.09.11l.11.15a2.39,2.39,0,0,0,.13.21l.11.22c.07.11.12.23.18.34l0,.07h0l0,.11c0,.12.11.25.16.38s.07.16.1.23l0,.11a.5.5,0,0,1,0,.13c0,.06,0,.13.05.19a1.11,1.11,0,0,1,0,.17v0a5.48,5.48,0,0,1,0,.57v0c0,.21,0,.44,0,.66v.18a2.91,2.91,0,0,1,0,.4c0,.14,0,.28-.06.4s-.05.23-.08.35-.06.21-.09.3h0a3.65,3.65,0,0,1-.14.35l0,.07-.06.11a1.86,1.86,0,0,1-.1.2h0l-.09.16,0,.05-.07.14s0,0,0,0h0c0-.14,0-.28-.08-.41-.06-.35-.11-.7-.17-1,0-.14,0-.29-.07-.43s-.05-.28-.07-.42l0-.08-.06-.39,0-.19,0-.38c0-.16,0-.33-.05-.49a.21.21,0,0,0-.18-.18h0l-.09,0-.07,0a.16.16,0,0,0,0,.07.19.19,0,0,0,0,.08c0,.39.09.71.13,1l.06.45.06.4c0,.16,0,.32.07.47s.07.55.11.82a.78.78,0,0,0,0,.14ZM108.6,27.52h0l-.16-.15-.29-.24-.11-.08L108,27l-.13-.09,0,0-.3-.19-.67-.38-.09,0-.29-.15-.06,0-.12-.07-.08-.06-.09-.05-.17-.14-.11-.09,0,0-.08-.08-.07-.07-.1-.11,0-.05c-.09-.12-.2-.25-.29-.39l-.08-.12-.05-.08h0c-.07-.1-.13-.21-.2-.32l-.12-.21c-.09-.15-.19-.3-.29-.44l-.07-.11c-.15-.24-.28-.48-.41-.71s-.13-.24-.2-.36-.21-.36-.33-.56l-.28-.53c-.06-.14-.12-.28-.17-.42s-.08-.24-.12-.36l0-.06,0-.07a3.21,3.21,0,0,1-.08-.36c0-.14-.07-.32-.1-.49v-.05c0-.31-.1-.62-.14-.93s0-.41,0-.59,0-.32,0-.47v-.13h0c0-.05,0-.1,0-.15v-.08a4.62,4.62,0,0,1,0-.48.88.88,0,0,1,0-.15s0,0,0-.05a.43.43,0,0,1,0-.07v0h.13l.11.06.3.24.16.15.08.07.11.11.13.12s.11.1.16.16l.32.31.26.24.06.06.2.18h0a3.2,3.2,0,0,0,.27.22l.31.16h0l.35.18.08,0,.36.19.31.19.23.17.17.18.13.17a1.71,1.71,0,0,1,.14.27,3.77,3.77,0,0,1,.22.59c0,.09,0,.18.07.26a3.82,3.82,0,0,0,.19.66l.08.17c0,.08.07.17.11.25s.11.31.16.46,0,.22.07.32,0,.37,0,.56,0,.24,0,.37c0,.3.06.61.1.9v.05h0v0h0c0,.2,0,.41,0,.62s0,.42,0,.64a4,4,0,0,0,.14.64c0,.1.06.2.09.28s0,0,0,0h0l0-.07-.16-.2,0-.05,0-.08,0-.06,0-.07a.31.31,0,0,1,0-.1l-.06-.11c0-.1-.09-.19-.13-.29l-.15-.35a5.08,5.08,0,0,0-.34-.62l-.09-.14-.12-.14-.23-.23,0,0-.52-.52,0,0-.11-.12-.09-.13,0,0-.08-.14,0-.09a.35.35,0,0,0,0-.08h0l-.12-.25,0,0h0l0-.05,0-.05v0l0-.05h0c-.06-.14-.13-.28-.22-.45s-.15-.27-.22-.39h0a.35.35,0,0,1,0-.08l-.09-.13,0-.07a.44.44,0,0,1-.08-.11l0,0h0l0-.05a8.56,8.56,0,0,1-.42-.79c-.08-.18-.15-.37-.22-.55l0-.09-.21-.55,0-.11c-.15-.37-.3-.78-.48-1.28l-.12-.36-.12-.29,0,0c0-.1-.08-.19-.13-.29v0l-.06-.12,0,0a.76.76,0,0,0-.07-.13v0l0,0h0a.08.08,0,0,0,0,0l0,0s0,0,0,0,0,0,0,0h0v.07l0,.08,0,.08v0a2.74,2.74,0,0,1,.09.39l.06.24q.06.32.15.63v0h0l0,0v.05h0v0h0c0,.09,0,.19.09.32l0,0,.09.29c0,.12.09.23.13.35s.07.17.1.26l0,.06.26.63.16.34.17.31c.1.17.2.32.3.47l.18.27.13.2a3.9,3.9,0,0,1,.22.36l.09.19,0,.05,0,.09,0,.05h0l0,.06.05.1.12.27,0,.05c0,.1.09.2.15.31l.1.17.09.13v0l0,.05,0,0,0,.06.14.15a1.57,1.57,0,0,0,.18.19l.22.21.08.07.12.11.12.11.08.08h0v0l.08.1.06.08,0,.05h0l.15.25s0,.07,0,.1l.07.13a.61.61,0,0,1,0,.12h0v0l0,0h0l.09.22,0,.08,0,0,.06.13a.91.91,0,0,0,.07.14l0,0,.06.1,0,.05a.35.35,0,0,1,0,.08l.11.13a.69.69,0,0,0,.11.13l0,0,.31.42a1,1,0,0,0,.08.11Zm9.79,42.84a.14.14,0,0,0,0-.06.58.58,0,0,0,0-.14l0,0c0-.06,0-.12,0-.18h0a1.72,1.72,0,0,0,.07-.21l0-.12,0-.07.15-.35h0l.15-.28c.07-.11.13-.22.2-.32a3.53,3.53,0,0,1,.24-.34l.28-.34h0l.12-.13c.16-.17.34-.34.5-.5l0,0c.14-.14.29-.29.45-.43h0l.14-.11.18-.13.24-.15.24-.13.28-.15.25-.12h0l.07,0,.39-.18.25-.1.26-.1.19-.06.16-.05h.12l.12,0h.21l.14,0h.06l.4,0,.37,0h0l.41-.05.38-.06.65-.1.12,0,.74-.12.33,0h0l0,0-.43.22-.29.13-.58.25c-.41.18-.82.36-1.25.52l-.44.14-.19,0h-.09l-.17,0h0l-.09,0-.12,0a1.5,1.5,0,0,0-.22.11,3.94,3.94,0,0,0-.43.25l-.08,0a2.44,2.44,0,0,0-.33.23l-.18.14,0,0-.06,0h0s0,0,0,0,0,0,0,0,0,0,0,0h0s.07,0,.1-.05h0l.07-.06,0,0,.18-.14.24-.15.25-.13.24-.12.21-.08h.06l.12,0,.11,0h0l.27-.05.28-.06.54-.14.51-.15.15,0,.31-.1.49-.17.1,0,.36-.14a4.32,4.32,0,0,0,.45-.25l.23-.14.2-.13h0l.18-.13,0,0h0l0-.06a.3.3,0,0,0,0-.08h0l.14,0h0l-.18.22,0,0-.23.27,0,0-.27.32c-.06.07-.12.13-.17.2h0l0,0,0,0-.15.17h0l-.08.09-.12.13h0l-.08.09-.12.13h0l-.26.28-.52.53-.17.16-.08.08-.16.15-.08.07-.14.12,0,0-.13.11h0l0,0-.14.09-.07.06-.12.08,0,0,0,0-.06,0,0,0-.08,0-.1.06-.2.11-.35.2-.35.19-.26.13,0,0-.09,0-.09,0-.12.06h0l0,0-.11.05-.06,0-.12,0-.15.05-.05,0-.14,0h0l-.14,0-.2,0-.12,0-.07,0-.13,0h0l-.3,0h-.17l-.67.1-.4.08-.37.08h0l-.34.1-.26.08h0l.11-.1.69-.58.4-.33.34-.28.38-.32.83-.71a.18.18,0,0,0,.07-.15.19.19,0,0,0,0-.07s0,0-.06,0l0,0h-.07a.24.24,0,0,0-.2.06l-.4.36-.32.27-.08.07-.08.06-.17.14-.16.13-.07.06-.18.14L120,69l-.38.3-.47.38-.43.35-.18.14-.19.15Zm-.08-39.57a.5.5,0,0,0,0-.12l0-.05a.57.57,0,0,0,0-.14c0-.13-.07-.26-.11-.38a2.58,2.58,0,0,1-.08-.26c-.05-.13-.09-.27-.13-.4s0-.17-.07-.26,0-.2,0-.29l0-.18v-.36a.49.49,0,0,0,0-.12.15.15,0,0,0,0-.07c0-.11,0-.23,0-.34a.83.83,0,0,0,0-.15.29.29,0,0,1,0-.09l0,0h0a1.59,1.59,0,0,1,.07-.2l.09-.18v0a1.71,1.71,0,0,1,.13-.23l.1-.12.15-.15,0,0,.19-.18.28-.29.12-.18.11-.19a6.07,6.07,0,0,0,.34-.79l0-.09v0c0-.09.07-.19.11-.28l0-.06.05-.12,0-.1,0-.07L120,24l.14-.22h0a1.77,1.77,0,0,1,.16-.22c0-.07.12-.14.17-.2l.18-.17a4.87,4.87,0,0,1,.47-.32l.13-.09.32-.21.34-.23.5-.33.06,0,.06,0,.24-.14.28-.17.07,0,.05,0,.19-.1.18-.1.23-.1.27-.09h0l0,0h0v0c0,.07,0,.14,0,.21s0,.24,0,.36v.09l0,.49a1.64,1.64,0,0,0,0,.22v.06h0c0,.05,0,.11,0,.16s.06.35.09.5.07.29.11.42l0,.16c.07.25.14.51.2.77s.14.74.2,1.22c0,.12,0,.25,0,.39h0c0,.14,0,.28,0,.42a2.91,2.91,0,0,1,0,.4,3.74,3.74,0,0,1-.05.39c0,.06,0,.13,0,.2a1.72,1.72,0,0,1-.07.21,3.86,3.86,0,0,1-.15.39c-.07.14-.13.27-.2.39s-.18.33-.27.48-.18.28-.27.41-.18.25-.29.38l0,.05-.11.14-.17.19-.1.09-.15.11-.31.16-.1,0-.06,0h0l-.06,0-.15.06L122,31l-.15.06-.34.13-.25.11-.22.11-.24.14,0,0a.94.94,0,0,0-.18.12l-.1.08-.09.06,0,0-.07.07-.08.07,0,0a3.75,3.75,0,0,0-.34.36l-.3.37-.13.16,0,0-.06.06,0,.06h0l0-.06c.1-.21.2-.42.3-.66v0c.08-.18.16-.38.26-.57l.11-.17a2,2,0,0,1,.18-.23l0,0,.23-.3c.11-.15.2-.3.29-.44l.09-.14.23-.34c0-.09.11-.17.16-.25l0-.07.33-.49c0-.09.11-.18.17-.27a5.11,5.11,0,0,0,.5-.88c.09-.2.17-.41.25-.61v0l0-.09c.07-.17.14-.35.2-.52l.12-.31.07-.19c.08-.2.14-.38.2-.56s.11-.35.15-.52a.94.94,0,0,0,0-.16c0-.13.07-.27.1-.4v0h0l0-.11c0-.06,0-.12,0-.18v-.07c0-.07,0-.15,0-.22a2.25,2.25,0,0,0,0-.58,2.55,2.55,0,0,0-.13.29,2,2,0,0,0-.1.32c0,.07,0,.15-.05.22a.43.43,0,0,1,0,.11c0,.11,0,.23-.07.34s-.11.44-.18.67a1.71,1.71,0,0,1-.09.3,3.79,3.79,0,0,1-.12.36l-.08.2-.17.45v.05l0,.05c-.06.17-.12.34-.19.51l-.07.21c0,.11-.09.22-.14.35l-.16.37-.16.28-.19.3-.25.38a2.14,2.14,0,0,0-.13.19l-.09.13-.3.44a3.62,3.62,0,0,0-.22.32,2.2,2.2,0,0,0-.17.25l0,.06v0h0l0,0c-.06.07-.11.15-.17.23l-.25.27a2.47,2.47,0,0,0-.21.27l-.18.32-.12.26,0,.07c0,.1-.09.2-.14.3a2.92,2.92,0,0,1-.14.31l-.14.3c-.13.29-.24.55-.33.8h0l-.08.12h0v-.39c0-.34,0-.65,0-1l-.06-.94c0-.17,0-.34,0-.51s0-.11,0-.16V31l0-.16Zm-.61,6.62v-.06a.86.86,0,0,0,0-.16v0s0-.06,0-.09l0-.12c0-.07,0-.12,0-.17l0-.1,0,0s0,0,0,0l.1-.1h0l.18-.14.14-.09h0a1,1,0,0,1,.17-.1l.3-.12.28-.12.19-.08.4-.18h0l.1,0h0l.05,0,.08,0,.09-.05h0l.06,0,.08,0,.29-.12.23-.06.15,0h.35l.19,0,.18.06h0l.13,0,.16.08.16.08.16.07.2.09.19.05h.12s0,0,0,0v.07h0s0,.09,0,.14l0,.15a2.44,2.44,0,0,1-.06.26c0,.19-.07.37-.1.55s-.1.57-.16.86h0l.06-.16h0v0h0v0h0v0h0a1.11,1.11,0,0,1,.07-.16h0v0h0v0h0s0-.09,0-.13l0-.07a.25.25,0,0,1,0-.07l.06-.27a2.93,2.93,0,0,1,0-.29,2.7,2.7,0,0,0,0-.28c0-.08,0-.17,0-.25s0,0,0-.06v-.19h0a1.33,1.33,0,0,0,.28,0l.21-.06.2-.1,0,0,.19-.1.15-.06.15,0,.15,0h.25l.16,0,.15,0,.15.07.12.07.14.1.12.13.17.22,0,0h0l.08.13a.64.64,0,0,0,0,.07,2,2,0,0,1,0,.26,1,1,0,0,1,0,.24,2.29,2.29,0,0,1,0,.25v0c0,.11,0,.22-.07.33a2.17,2.17,0,0,1-.07.24l0,.08,0,.09,0,.09,0,.1,0,.06c0,.06,0,.12-.08.19a1.42,1.42,0,0,1-.08.18c-.08.21-.17.43-.25.67l0,.07,0,.1v0h0a6.65,6.65,0,0,0-.23.71,1.33,1.33,0,0,1,0,.19c0,.17-.09.35-.14.52s-.08.24-.13.37l0,.13,0,0a1.43,1.43,0,0,1-.08.22l-.16.34-.09.13-.15.18h0l0,0-.13.11-.08.06h0l0,0h0l-.06,0-.06,0h0l0,0-.18-.08-.07,0-.16,0h0l.09-.11,0,0,.1-.13,0,0v0l0,0,0,0,0,0v-.07a.61.61,0,0,0,.07-.14,2.56,2.56,0,0,0,.11-.24c0-.13.09-.25.13-.38a3.42,3.42,0,0,0,.09-.38v0h0l0-.14v0a.37.37,0,0,0,0-.11c0-.1,0-.2,0-.3a2.62,2.62,0,0,0,0-.28,2.28,2.28,0,0,0,0-.26c0-.12,0-.24,0-.35a.2.2,0,0,0,0,.07,2.23,2.23,0,0,0,0,.23v0a1,1,0,0,1,0,.17l0,.11,0,.26a.57.57,0,0,1,0,.13c0,.06,0,.11,0,.16l0,.19v0c0,.13,0,.24-.08.34s-.07.22-.1.33h0v0a2.44,2.44,0,0,1-.1.24v0a1.17,1.17,0,0,1,0,.11l-.06.12h0l0,0h0l0,0a1.63,1.63,0,0,1-.11.17h0l0,.07,0,0-.09.12h0l-.29-.06-.16,0-.37,0h0v0h0l0-.07h0v0s0,0,0-.08v0s0-.06,0-.09,0-.16,0-.25a4.87,4.87,0,0,0,0-.51h0v-.77a1.69,1.69,0,0,1,0-.23l0,.11c0,.07,0,.13,0,.2s0,.2-.06.27,0,.35-.07.55l0,.33a1.94,1.94,0,0,1,0,.24c0,.12,0,.27,0,.41h-.51l-.18,0-.37,0h0c0-.06,0-.12,0-.18s0-.22,0-.31,0-.17,0-.26v-.6a2.42,2.42,0,0,0,0-.25c0-.09,0-.18,0-.28s0-.13,0-.2v-.08c0-.08,0-.16,0-.25a2.45,2.45,0,0,1,0-.27v.07l0,.07,0,.23v0a.28.28,0,0,0,0,.09v0a.38.38,0,0,0,0,.1c0,.22,0,.41,0,.59s0,.38.05.57,0,.11,0,.16v.07a.59.59,0,0,1,0,.13v.07a.43.43,0,0,0,0,.11v.08l0,.1a.3.3,0,0,0,0,.1s0,.06,0,.1l-.69.16-.41.12-.06,0h0a.78.78,0,0,0,0-.16v0l-.06-.34c0-.06,0-.12,0-.19v0a.88.88,0,0,0-.05-.15,1.42,1.42,0,0,0-.08-.18.8.8,0,0,0-.08-.16l0-.08c-.11-.2-.22-.41-.34-.6l0,0-.12-.18-.17-.23-.06-.08-.09-.12-.15-.23c0-.08-.09-.16-.13-.24v0l0-.06,0-.08a.49.49,0,0,0,0-.11v0l0-.11a.43.43,0,0,1,0-.11l0-.15v-.06a.38.38,0,0,1,0-.1v-.06s0-.07,0-.1v0a2.62,2.62,0,0,1,0-.28Zm.25,5v-.11l.06-.82h0v0h0l0,.1c.08.17.14.35.22.52l.24.55a.49.49,0,0,1,0,.11h0l-.06,0-.11,0-.11-.07-.1-.07-.1-.08h0Zm.78.32,0-.06-.13-.28a2,2,0,0,0-.11-.26,2.31,2.31,0,0,1-.1-.28c0-.07-.05-.15-.08-.23s-.07-.16-.1-.23-.1-.27-.15-.4,0-.53,0-.79l0,0,.22.3.09.13c.08.13.16.26.23.4s.13.25.19.38l.06.14s0,.1.05.15a5.13,5.13,0,0,1,.13.66s0,.1,0,.15v0l0,0Zm-5.46-20.56.25.15a2,2,0,0,1,.25.18,3.25,3.25,0,0,1,.26.27,1.34,1.34,0,0,1,.11.14.94.94,0,0,1,.1.14l.11.19a1,1,0,0,1,.07.15l0,0c.08.19.16.39.23.59s.13.41.19.6l0,.07,0,.06a.29.29,0,0,0,0,.09v.07s0,0,0,.08V25s0,.06,0,.09v0c0,.18,0,.34,0,.49v.48c0,.06,0,.12,0,.18s0,.11,0,.16,0,.21,0,.34l0,.12v0h0v0l0-.05a.61.61,0,0,0,0-.12c-.06-.14-.12-.25-.17-.36s-.22-.41-.37-.65-.26-.42-.4-.63-.19-.27-.28-.4l-.14-.21c-.07-.1-.14-.19-.2-.29l-.21-.31-.28-.39-.15-.2,0-.08h0l0-.07a.46.46,0,0,0-.17-.09h0l0,0a.29.29,0,0,0,0,.16.43.43,0,0,0,0,.07v0l0,.05,0,0a1,1,0,0,0,.11.17h0c.06.1.12.2.19.3h0c.06.09.11.18.17.26s.15.24.23.36l.26.4.15.21.13.2.16.24.15.24,0,.05h0l0,0h0v0h0v0h0c.12.2.23.38.32.56s.18.35.25.49h0l-.17-.05-.06,0-.23-.07h-.05L114,26.8l-.08,0-.4-.15-.13-.06-.23-.09-.19-.08-.19-.08,0,0-.33-.14-.32-.16-.2-.11-.18-.1h0l0-.13h0v-.46c0-.08,0-.17,0-.25s0-.17,0-.26l0-.3a1.57,1.57,0,0,1,0-.23v0a2.68,2.68,0,0,1,.07-.27c0-.08,0-.17.09-.29v0c0-.07,0-.14.09-.22a.67.67,0,0,1,.06-.12.61.61,0,0,1,0-.12c.09-.15.17-.28.26-.41s.21-.27.31-.4l0,0,.09-.12a.94.94,0,0,0,.09-.12h0A3,3,0,0,1,113.27,22.12Zm-3.49-4.85c0-.15,0-.3,0-.44s0-.3.07-.46,0-.15,0-.22,0-.17.08-.25v0l.08-.2a1.63,1.63,0,0,1,.11-.23h0l.12-.2.11-.17,0,0,.2-.24.16-.18.06-.06h0l.41-.41.42-.43a1.54,1.54,0,0,1,.17-.19l.43-.51.15-.18.07-.08c.14-.18.29-.35.43-.52s.31-.36.53-.59.28-.29.44-.44h0v0a1.21,1.21,0,0,1,0,.18v.05h0v0h0c0,.23,0,.47,0,.71v.1c0,.26,0,.52,0,.82h0v0h0c0,.07,0,.14,0,.22s0,.27,0,.42v.42c0,.37,0,.75,0,1.12,0,.19,0,.38,0,.57s0,.33,0,.49v.09l0,.46V17c0,.16,0,.32,0,.48s0,.42,0,.62v0c0,.07,0,.15,0,.23s0,.23,0,.34,0,.17,0,.26,0,.19,0,.3,0,.23-.08.34l-.09.27,0,0c-.06.17-.13.33-.19.48l-.22.45c-.16.28-.31.53-.46.77h0s-.08,0-.09.08v.05h0l-.06.08h0l-.2.27c-.13.17-.26.35-.38.53l-.07.12c-.06.09-.1.18-.15.26s-.08.17-.11.25-.12.32-.18.52a2.25,2.25,0,0,1,0,.22h0a.77.77,0,0,0,0-.15,1.36,1.36,0,0,0,0-.2v0c0-.11,0-.22,0-.33v0l0-.27c0-.38,0-.7-.08-1s0-.31,0-.46a3.38,3.38,0,0,1,0-.45.13.13,0,0,0,0-.06.05.05,0,0,0,0-.05l0,0h0l0-.28v-.06a1.57,1.57,0,0,1,0-.23h0c0-.05,0-.1,0-.14h0c0-.27.1-.49.16-.71s.13-.44.2-.65h0c.05-.14.11-.3.18-.47L112,18v0l.24-.48.11-.23c0-.08.07-.17.11-.26a1.17,1.17,0,0,0,.05-.11.49.49,0,0,1,0-.11l0-.06a1.54,1.54,0,0,0,.05-.17l0-.07c0-.06,0-.12,0-.18s0-.05,0-.08a1.16,1.16,0,0,0,0-.18c0-.17,0-.34.06-.53s0-.32,0-.48V15c-.05.21-.1.43-.16.66s-.06.23-.1.34a2,2,0,0,1-.07.23l0,.08,0,.09c0,.15-.11.3-.17.44s-.07.18-.11.27l-.11.22,0,0-.12.24-.15.29c-.11.22-.18.39-.25.55a8.54,8.54,0,0,0-.57,2.17,2.51,2.51,0,0,0,0,.27v0a2.18,2.18,0,0,0,0,.25c0,.15,0,.31,0,.46v.09h0a.76.76,0,0,0,0,.15v0h0a6.17,6.17,0,0,0-.29-.65c-.06-.13-.13-.27-.2-.4l-.08-.15c-.06-.12-.12-.23-.17-.35a2.52,2.52,0,0,1-.12-.29,1.21,1.21,0,0,1-.05-.14c0-.05,0-.09,0-.13v0c0-.09,0-.19-.07-.29s0-.18,0-.26v-.06c0-.3-.06-.6-.08-.89v-.07c0-.14,0-.29,0-.48Zm1.48,8.2h0l-.07-.08c-.11-.12-.21-.26-.32-.4l0,0-.15-.2-.11-.16,0-.05a10.58,10.58,0,0,1-.63-1.12h0c0-.09-.08-.18-.11-.27s-.08-.22-.11-.32l-.09-.36c0-.11,0-.22-.07-.33l0-.09c0-.21-.09-.42-.14-.63s-.13-.47-.18-.71l0-.13L109,20c0-.09,0-.19,0-.29v0h0a.41.41,0,0,1,.11.07h.05l.17.12.06,0,.09.07a1.87,1.87,0,0,0,.28.16h0a2.83,2.83,0,0,0,.17.4l.21.4.05.09.2.38c.06.11.11.22.16.33s.15.34.22.53l.09.27.09.3.06.2c0,.07,0,.14,0,.21s0,.2,0,.3v.11h0v.14h0s0,.08,0,.13,0,.16,0,.24v0a1.1,1.1,0,0,0,0,.18v0l.06.76,0,.3Zm2.38,9.1c-.1-.36-.2-.72-.31-1.08-.06-.19-.12-.39-.19-.58l-.24-.62c-.07-.19-.14-.38-.2-.57s-.14-.42-.2-.63l-.14-.47c0-.17-.09-.33-.12-.49-.07-.35-.12-.7-.18-1.05,0-.08,0-.15,0-.23,0-.36-.07-.71-.11-1.06,0-.51-.12-1-.2-1.51h0a1.21,1.21,0,0,0,.2.09l.2.08.41.14.78.22.34.09.15,0L114,27l.28.05.17,0,.18,0v0h0c0,.11.09.21.13.32s.1.23.14.34.09.23.12.35l.12.35c0,.1.06.21.1.31s0,.19.07.28l0,.1,0,.18c0,.09,0,.18,0,.27s0,.18,0,.26h0c0,.14,0,.27,0,.4s0,.25,0,.37a.05.05,0,0,0,0,.05c-.05.34-.09.69-.12,1,0,.64-.1,1.27-.14,1.91,0,.27,0,.54,0,.8h0l0,.93c0,.31,0,.62,0,.94s0,.61,0,.92l.06.94c0,.24,0,.47.08.7l-.11-.17-.19-.35q-.18-.34-.33-.69c-.15-.34-.28-.67-.42-1s-.26-.64-.39-1c-.05-.1-.09-.21-.13-.31C113.81,35.1,113.73,34.84,113.64,34.57Zm-3.73,5.67h-.08l-.19,0-.2,0-.14,0-.33-.06L108.6,40l-.17,0h-.06l-.13,0-.07,0h-.06l-.22-.07-.35-.1-.5-.17-.08,0-.11,0-.08,0-.15-.06-.05,0-.12-.06-.08,0-.09,0-.09,0-.06,0-.06,0L106,39l-.13-.07-.43-.28-.28-.21,0,0,0,0,0,0a3.5,3.5,0,0,1-.27-.28l-.28-.3a.52.52,0,0,0-.1-.11l-.19-.23,0,0-.3-.36-.27-.37,0-.05,0-.06h0v0l-.07-.13-.09-.17-.06-.15,0,0,0-.11v0h0v0l-.06-.26,0-.16,0-.16c0-.15,0-.29-.07-.43l0-.17-.09-.59-.12-.61c-.09-.4-.18-.8-.27-1.17,0-.2-.11-.4-.16-.61a1.6,1.6,0,0,1-.05-.21c0-.12-.07-.25-.1-.37a1.55,1.55,0,0,1,0-.23,1.87,1.87,0,0,1,0-.25h0l.21.21.26.2a2.43,2.43,0,0,0,.29.2l.2.13.1.06.18.1.2.09.08,0h0l0,0,.13.05h0l.12,0h0l.31.09.07,0,.28.08.11,0h.06l.11,0,0,0,.16.07.16.1h0l.16.12.06,0,.06.05,0,0,0,0,.2.18.24.24a4.87,4.87,0,0,0,.5.4l.24.18.21.15.15.11.06,0,.06,0h0l0,0,.06.06,0,0,0,0,.08.07,0,.06,0,0,.06.07c.1.13.2.25.29.38l.05.07a1.3,1.3,0,0,0,.1.15l.09.13,0,0,0,0h0v0l0,.05c0,.06.07.12.11.17l.07.11c0,.06.07.11.1.16l.06.1.11.18.09.16.06.11.06.1,0,0,0,0,0,.08,0,.11,0,.1.06.16,0,0s0,0,0,.06v0l0,0,0,.06,0,.07v.08l0,.07.06.21v0l.15.57,0,.13.12.43v0c0,.09,0,.19.09.29s.06.2.1.31l.1.25c0,.1.09.21.13.32v0l0,0h0l-.14-.15L110,39.6l-.14-.15-.17-.19-.54-.59c-.25-.29-.46-.53-.63-.77a5.6,5.6,0,0,1-.36-.49c-.1-.12-.19-.25-.28-.37a5.78,5.78,0,0,0-.67-.77,4.43,4.43,0,0,0-.39-.37l-.37-.35,0,0,0,0c-.21-.25-.41-.51-.59-.75s-.38-.55-.56-.81h0c-.08-.12-.17-.26-.26-.42l-.24-.41,0-.09h0l0,0a.08.08,0,0,0,0,0h-.08a.05.05,0,0,0,0,.05v0l0,0s0,0,0,0l0,0,0,.07,0,0,.05.08a.75.75,0,0,0,.07.12l.07.13c0,.1.11.19.17.29l.19.29.1.14.21.32.35.5c.14.19.29.4.46.6s.2.23.31.34l.19.19.14.17.15.18q.14.18.27.39l.32.53.21.36c.08.14.18.28.27.43l.15.2.16.21.34.41c.12.14.25.28.38.41l.27.28.09.08.15.15.22.23,0,0Zm6.4,5.57h0L116,46h0l-.19.08-.18.08-.19.07-.21.08h-.08l-.29.09-.29.07-.35.06h-.07a3.31,3.31,0,0,1-.44,0H113l-.43,0-.29,0-.53-.11-.5-.11-.28-.08-.3-.11-.33-.14-.19-.12-.13-.1-.12-.12c-.11-.14-.21-.29-.32-.45l0-.07,0-.07a1,1,0,0,1,0-.1.43.43,0,0,1,0,0v-.05h0a1.1,1.1,0,0,1,0-.18,1.55,1.55,0,0,0,0-.15l0-.05h0v0a1,1,0,0,0,.08.29,1.2,1.2,0,0,0,.36.44,2.53,2.53,0,0,0,.57.29l.28.09h0l.17.06.15.05.08,0,.23.07.16,0,.16,0,.08,0,.27,0h0a1.63,1.63,0,0,0,.31,0h.32l.14,0,.14,0,.26-.08.17,0,.07,0h.21l.26.06h.06l.29.08.22,0h.11l.16,0h.19a1.79,1.79,0,0,0,.33,0l.21,0,.1,0,.11,0,.17,0,.3-.07h.12Zm.61-1.54h0l-.09,0-.13-.06-.09,0-.06,0-.12,0-.1-.05,0,0-.09,0-.16-.08-.27-.14-.18-.09-.06,0-.06,0-.2-.1a4.39,4.39,0,0,0-.55-.23h0l-.12,0-.24-.1-.23-.1-.26-.15.07.06.21.19.27.21c.2.14.42.26.6.37a6.51,6.51,0,0,0,.71.33l.26.1.1,0,.18.07.07,0,.1,0,.19.06.08,0h.1l.07,0h0a2.51,2.51,0,0,0-.19.42,3.4,3.4,0,0,0-.07.34h0l-.1,0h0l-.22-.05h0l-.13,0L116,45l-.38-.06-.16,0-.21,0H115l-.1,0h-.11l-.26,0,.12,0,.22.08.15,0,.11,0h0l0,0,.2,0h.15l.15,0H116l.22,0h.09l.19,0h0a2.54,2.54,0,0,0,0,.39h0v.09h-.26l-.12,0h-.08l-.12,0h0l-.17,0-.16,0h-.19l-.16,0h-.07a6.26,6.26,0,0,1-.73-.14l-.28-.08h0l-.34-.09h-.35l-.17,0-.14.05-.18,0-.13,0-.14,0h-.15l-.7-.06h-.07l-.32-.06-.08,0-.32-.08-.17,0-.22,0-.21-.07-.16-.07-.16-.09-.11-.09-.06-.06a1.71,1.71,0,0,0-.11-.14v0l-.07-.14,0-.11a.59.59,0,0,1,0-.14,1.64,1.64,0,0,1,0-.22,1.69,1.69,0,0,1,0-.23,1.1,1.1,0,0,1,0-.18h0s0-.07,0-.11l.13-.2,0,0a1.73,1.73,0,0,0,.19-.28.55.55,0,0,0,.08-.18.59.59,0,0,0,0-.19,1.37,1.37,0,0,0,0-.35c0-.12,0-.23-.06-.35l0,0,.06.07a.39.39,0,0,0,.11.06l0,0,.11,0,.24.12.36.15.19.06.19,0,.21,0,.18,0h.28l.49,0h0l-.63-.1h0l-.3-.07a6.19,6.19,0,0,1-.6-.23l-.34-.18-.16-.08-.1,0,0,0-.07,0h0l-.3-.3,0,0v-.08s0-.07,0-.11h0l0-.1a.65.65,0,0,1,0-.13l.06-.15.06-.12,0,0,0,0c0-.09.09-.18.13-.27l.06-.13h0v0l0-.08,0-.07c.06-.13.11-.23.16-.32l.14-.25h0l.09-.11.12-.13.09-.08.16-.11.15-.08.15-.08L112,39l.1,0,.11,0h.13l.12,0,.46.15c.2.08.41.18.66.31h0l0,0h0l.33.19.19.1.17.07a1.9,1.9,0,0,0,.36.12l.42.12h.12l.18.06.17.07.14.09h0l.09.07.28.3.12.13a2.18,2.18,0,0,0,.21.22l.2.18,0,0h0l.22.2.2.23,0,0a2.75,2.75,0,0,0,.22.26,3.69,3.69,0,0,0,.28.28,2.48,2.48,0,0,0,.3.25l.17.11.06,0,0,0,.17.08.12,0h0l-.18.1-.26.17,0,0h0l0,0-.22.18h0l-.1-.07h0l-.07,0-.06,0-.21-.13-.07,0-.24-.15-.28-.18h0l-.27-.18-.06,0h0l-.11-.08,0,0-.11-.08,0,0-.1-.08,0,0-.11-.09h0l0,0,0,0,0,0v0l-.38-.34c-.11-.09-.21-.18-.31-.25a3.54,3.54,0,0,0-.35-.26h0l-.12-.08-.11-.07-.09-.07-.16-.11-.14-.11,0,0,.06.09.12.17.21.25a5.19,5.19,0,0,0,.41.42c.12.12.26.24.39.35l.1.09.22.19.22.18.13.09.07,0,0,0h0l.06.05.07,0,.07,0,.14.09.07,0,.07,0,0,0h0l.1.05h0l.5.26.14.06.09,0,.25.12h0l0,0h0l0,0h.1l0,0-.13.13h0l-.14.14a3.25,3.25,0,0,0-.31.38l-.08.12Zm.09,1.4a2.56,2.56,0,0,1,0-.39l0-.25a2.1,2.1,0,0,1,.06-.24c0-.09.07-.17.12-.26l0,0v0h0a3,3,0,0,1,.23-.35,3.88,3.88,0,0,1,.26-.31,3.52,3.52,0,0,1,.41-.36l.37-.27.3-.16,0,0,.07,0h0l.07,0,.48-.19a.32.32,0,0,1,.09,0h0a4.61,4.61,0,0,1,.53-.15h0l.12,0h0l.4-.08.38-.06h.16l.43,0h0l.23,0,.23,0h0l.43.08h0a.1.1,0,0,0,0,.09.13.13,0,0,0,0,.06.18.18,0,0,0,.1.09l.06,0h.39l.2.07,0,0a.11.11,0,0,0,0,.07l0,0V43s0,.06,0,.09h0l0,.11v0l0,0h.08l.07,0,.08-.06a.75.75,0,0,0,.07-.12l.06.07,0,.05,0,0s0,.07,0,.11,0,.12,0,.19a1.85,1.85,0,0,1,0,.23c0,.12,0,.23,0,.35s-.08.29-.12.43-.11.25-.18.39a2.49,2.49,0,0,1-.21.32,2.61,2.61,0,0,1-.27.31,4.38,4.38,0,0,1-.38.35c-.24.19-.49.36-.75.53-.09,0-.18.11-.27.15l-.25.13-.14.06-.21.08-.08,0h0l-.33.09h-.06l-.31,0c-.12,0-.24.05-.36.06s-.47,0-.71,0h-.24l-.54,0-.28,0-.18-.06-.18-.09-.06,0,0,0-.18-.13-.06-.07-.11-.13-.11-.22-.09-.22A3.4,3.4,0,0,1,117,45.67Zm-4.94,7.57c-.06-.13-.12-.28-.17-.42v0c0-.06,0-.13-.08-.19l-.1-.27a3.52,3.52,0,0,1-.16-.45l0-.1a2.53,2.53,0,0,0-.12-.36l-.12-.25c0-.06-.07-.11-.1-.16l0-.07a1.18,1.18,0,0,0-.18-.21l-.19-.18h0a8,8,0,0,1-.65-.65,2.5,2.5,0,0,1-.18-.24,2.36,2.36,0,0,1-.15-.25,1.42,1.42,0,0,1,0-.16.3.3,0,0,1,0-.1.37.37,0,0,1,0-.11h0V49s0,0,0-.05l0,0,0,0,0,0,.06-.05.08-.06.11-.06.14-.05.24-.06.6-.13.48-.11.11,0,.43-.1.28-.07.12,0,.11,0h0l.31,0h0l.43,0H115l.3,0,.28,0a2.25,2.25,0,0,0,.81-.25l.39-.2.14-.1.11-.11.06-.09,0,0,.06-.07,0,0h0l0,0,.19.13a1.78,1.78,0,0,0,.44.21,2.73,2.73,0,0,0,.46.12l.11,0h.06l-.08.07-.06,0-.11.1-.09.08,0,0-.07.07L118,48l0,0-.13.08-.05,0-.06,0-.18.09a3.25,3.25,0,0,1-.4.15h0l-.08,0-.08,0-.15.06h0a5.85,5.85,0,0,0-.56.26l-.18.09-.09,0-.05,0-.07,0,0,0h-.06l-.07,0-.17.06-.11,0-.08,0-.11,0-.08,0-.15,0h-.11l-.12,0H115l.33,0,.18,0h.08l.07,0a1.1,1.1,0,0,0,.29-.12l.29-.14.26-.13a2.36,2.36,0,0,1,.28-.12h0l.12,0,.08,0,.08,0,0,0a2.79,2.79,0,0,0,.37-.14l.17-.09.08,0h0l.09-.06.07,0,.14-.1.09-.07,0,0,0,0,0,0,0,0,.13-.12,0,0,0,0,0,0,0,0h0l.28,0h.31l-.11.14,0,.05,0,.06-.12.15,0,0-.06.08,0,0,0,.05-.22.2-.2.17,0,0-.2.18,0,0-.21.19c-.06.06-.13.12-.19.19l-.12.11a.46.46,0,0,1-.07.07l-.06.06,0,0-.05,0,0,0,0,0h0l0,0-.07.06-.07,0-.11.07,0,0h0a3.37,3.37,0,0,1-.32.19l-.42.26,0,0h0l-.06,0,0,0-.08.05-.06,0-.1.06-.29.14h-.06l0,0h0l-.1,0-.14.06-.11,0,.16,0,.18,0a1.58,1.58,0,0,0,.31-.09h0l.14,0,.1-.05.06,0,.3-.15.1-.06,0,0h0l.06,0,.19-.12.07,0,.18-.11H117l0,0,.12-.08h0l.12-.08,0,0,.05,0,0,0,0,0,.09-.09,0,0,.24-.23.19-.19.44-.41.25-.22.07-.07,0,0,0,0h0v0l0,0,0,0h0l.07-.07.05-.07,0-.06.06-.08,0,0,0,0,.06-.08.13-.18h0l0-.06h.37a1,1,0,0,1-.11.17l0,.07-.16.24,0,.06,0,0,0,0-.08.1,0,0-.08.09v0c-.08.08-.15.17-.23.26l-.25.29-.12.16a.36.36,0,0,1-.07.1l0,0a1.89,1.89,0,0,1-.14.19v0l0,0,.26-.19.12-.11.09-.07,0,0,.4-.37a1.3,1.3,0,0,0,.18-.23,1.09,1.09,0,0,0,.13-.17l.06-.08,0,0,0-.06h0l0-.08,0-.06.07-.13.06-.1.05-.09a.35.35,0,0,0,0-.08l0,0h0l.26,0,.27,0h0l-.08.06-.07.06-.12.08-.06.06,0,0a.94.94,0,0,0-.1.1,1.24,1.24,0,0,0-.21.32,2.56,2.56,0,0,0-.12.32v0c0,.08,0,.16-.07.23l0,.09c0,.13-.07.25-.1.37s-.11.36-.19.58a4.41,4.41,0,0,1-.24.54l-.09.17-.07.13-.07.11,0,0-.06.09,0,.06,0,.07-.12.13-.07.08-.07,0-.07,0-.09,0-.13,0-.22,0h-.22l-.27,0-.23.07a1.19,1.19,0,0,0-.4.35,1.43,1.43,0,0,0-.17.38,1.34,1.34,0,0,0-.07.18s0,.1,0,.14,0,.13-.08.19a1.3,1.3,0,0,1-.08.17v0l0,0h0v0l0,.06v0l-.09.12,0,0h0v0h0c-.06.09-.13.17-.19.25l-.12.14-.08.1,0,0-.25.23h0l-.13.09,0,0h0l-.08.05h0l-.17.09-.14.06-.11,0,0,0h-.58c-.13,0-.27,0-.43-.08h0l-.11,0-.1,0-.15-.07-.12-.07,0,0-.09-.05a1,1,0,0,0-.23-.09h-.06l-.12-.06,0,0-.08,0,0,0-.06,0-.12-.08,0,0,0,0h0c-.06-.08-.13-.16-.19-.25S112.09,53.29,112.07,53.24Zm.76.74.07,0a.05.05,0,0,1,0,0Zm1.35,12.79h0L114,66.7l-.16-.09-.07,0-.24-.13-.07,0-.26-.13-.06,0-.05,0h0l-.05,0h0a.85.85,0,0,0-.17-.06L112.5,66l-.34-.08h0l-.35-.07h0l-.42-.08-.13,0-.75-.15-.5-.1-.27,0-.29-.06-.14,0-.13,0h0l-.08,0h0l-.09,0h0l-.26-.11-.14-.07-.07,0-.37-.2-.38-.28-.43-.4a3.57,3.57,0,0,1-.3-.38,4.11,4.11,0,0,1-.24-.39c-.06-.14-.12-.29-.17-.44a1,1,0,0,1-.06-.22l0-.1,0-.09,0-.12c0-.06,0-.12,0-.18v0l0-.28v-.05c0-.11,0-.21,0-.32l0-.2v-.13s0-.06,0-.09v0a1.41,1.41,0,0,1,0-.21h0v0a.41.41,0,0,1,0-.11v0h.08L107,61l.3.11.37.15c.2.07.4.16.66.28h0l.3.13.36.13.37.09.35.07.16,0,.56.1.22,0,.28.12h0l.09.05a4.11,4.11,0,0,1,.42.21h0l.09,0,.16.09,0,0,.34.19.33.24a3.58,3.58,0,0,1,.29.27l.11.13.08.09v0h0l0,0,0,0,0,0,0,0,0,.07,0,0,0,0,0,.06,0,.06.08.15,0,.12.05.1s0,.09,0,.13l0,0,.06.16,0,.08a.74.74,0,0,0,0,.14s0,.11,0,.17l0,.07a.74.74,0,0,1,0,.14v.06l0,.08h0l-.06-.06h0l-.09-.09,0,0-.07-.05,0,0,0,0-.06,0,0,0-.29-.2-.19-.11-.2-.11-.24-.13a.31.31,0,0,1-.1-.05l-.15-.08-.24-.12-.72-.43-.54-.32-.2-.12c-.26-.16-.5-.29-.72-.4l-.19-.1h0l0,0-.09,0,0,0h-.05a1.12,1.12,0,0,0-.31-.05h0a.54.54,0,0,0,.1.18.7.7,0,0,0,.16.13l.14.07,0,0,.23.12c.26.13.51.27.75.41l.2.12.51.3,0,0c.22.14.45.27.68.4l.2.11.15.09.37.21.23.15h0l0,0,.06,0,0,0,0,0,0,0,.26.22.21.2,0,0,0,0,.18.21,0,0,.07.09.08.12.27.43.1.16h0Zm3,.82c-.12.38-.24.76-.35,1.15,0,.19-.11.39-.17.59l-.06.19-.3.73-.21.52c-.08.2-.17.39-.26.58s-.27.57-.41.85c0-.23,0-.46.06-.69s0-.3,0-.46a1.48,1.48,0,0,1,0-.21c.08-.21.16-.42.25-.63s.24-.53.35-.8a7,7,0,0,0,.27-.77l.15-.45.12-.39.08-.2s0-.11,0-.16.12-.29.17-.43l.27-.71s.09-.11.15-.16.21-.22.31-.34l.13-.15C117.55,66.3,117.36,66.94,117.15,67.59Zm3.68-10h0l.09-.06.43-.27.16-.1.33-.2.16-.09,0,0,.13-.07.1,0,.14-.07.15-.07.09,0,.14-.07.31-.14a3,3,0,0,0,.44-.23l.43-.27.45-.28a2.81,2.81,0,0,0,.36-.27h0v0c0,.07,0,.14,0,.21v.09a.59.59,0,0,1,0,.13v.07l0,.13c0,.14-.07.28-.11.42l-.12.35c-.09.26-.2.53-.33.83l-.22.49c-.06.11-.11.23-.16.34-.13.28-.24.57-.35.86,0,.1-.07.2-.11.3l0,.14c0,.13-.1.26-.15.38h0v0l-.07.14,0,0,0,.1,0,0a.75.75,0,0,1-.07.12l-.1.16-.12.16a.36.36,0,0,1-.07.1l0,0-.2.24,0,0-.11.12-.21.22-.2.2-.08.07-.29.29h0l-.12.11,0,0-.11.1-.06,0-.12.09-.11.09-.06,0-.23.16-.1.07-.19.13-.48.33c-.32.21-.61.4-.89.61l-.17.13-.21.18-.2.17-.06.06h0l0,0,0,0,0,0-.06.05,0,.06,0,0h0l-.13.14-.13.15-.14.16h0l0-.09.32-.65.15-.34.08-.17.36-.72c0-.07.07-.14.1-.2l.24-.47c.06-.14.13-.27.19-.4l.21-.36a2.42,2.42,0,0,0,.21-.37,3.61,3.61,0,0,0,.19-.41l0,0h0l-.09.09a2.39,2.39,0,0,0-.22.23,1,1,0,0,0-.14.15v0a1.09,1.09,0,0,0-.13.17c-.07.12-.15.24-.21.37l-.14.29,0,.1h0v0l-.4.77v0l-.4.77c-.13.26-.26.52-.4.78l-.08.13-.34.63c0,.08-.07.16-.11.23h0l0-.15,0-.19c0-.14-.06-.28-.1-.43l-.06-.25c0-.18-.08-.34-.12-.49s0-.2,0-.3a.5.5,0,0,1,0-.12l0-.08v0l0-.27v-.06a.76.76,0,0,1,0-.15v-.4a.49.49,0,0,1,0-.12v0h0c0-.05,0-.1,0-.15l0-.19v0l0-.1v-.05s0-.06,0-.09a.56.56,0,0,1,0-.12l0-.1v0a1.46,1.46,0,0,1,.07-.19.78.78,0,0,1,0-.14q.06-.15.15-.33l0,0,0-.1,0-.06.06-.11,0-.06.07-.12.05-.08.06-.08.07-.1,0,0,0,0,.07-.08.09-.11h0l0,0,0,0,.06-.07.11-.13,0,0,.23-.23.28-.28.21-.19,0,0,.11-.08.08-.07.12-.08,0,0,.36-.26.37-.26.42-.3.06,0,.33-.23Zm0-10-.14.24,0,.09c-.08.16-.15.3-.2.43v0l0,.05h0a.56.56,0,0,0,0,.12.76.76,0,0,0,0,.11l0,.06h0l0,.13c0,.13-.07.26-.1.39l0,.07c-.05.23-.1.47-.14.7l0,.16,0,.12c-.1.53-.2,1.07-.29,1.6,0,.1,0,.18-.07.26s-.08.19-.13.29l-.18.28c-.06.07-.11.14-.17.2l-.06.06-.11.1-.17.17-.36.34-.06,0,0,0-.06,0-.1,0-.27.05h-.47a3.62,3.62,0,0,0-.57,0,1,1,0,0,0-.39.1l-.12.07-.1.08a2.83,2.83,0,0,1-.28.2c-.11.06-.22.13-.35.19l-.29.11-.24.07-.13,0h-.22a1,1,0,0,0,.23,0,1.19,1.19,0,0,0,.28-.1,2.27,2.27,0,0,0,.34-.19,2.17,2.17,0,0,0,.29-.24,3.43,3.43,0,0,0,.27-.28c0-.06.09-.11.13-.16a1,1,0,0,1,.12-.15.36.36,0,0,1,.07-.1l0-.06v0l0,0,.05-.09a1.11,1.11,0,0,0,.07-.16h0l.06-.16c0-.1.07-.2.1-.3l0-.05v0h0a1.28,1.28,0,0,1,.11-.24l.06-.11.08-.09.07-.06a.18.18,0,0,1,.07,0l.06,0,.06,0,0,0h.39a2.17,2.17,0,0,0,.36,0,1.14,1.14,0,0,0,.48-.16,1.22,1.22,0,0,0,.34-.34l0,0a.44.44,0,0,0,.08-.11l.08-.12,0-.05a.75.75,0,0,0,.07-.12l0,0,.06-.13,0,0a3.67,3.67,0,0,0,.27-.66c.07-.24.14-.48.2-.72,0-.08,0-.16.05-.24v-.06l.06-.26c0-.08,0-.17.07-.26v0a1.63,1.63,0,0,1,.09-.19l.06-.11.07-.08.18-.16h0l0-.05.06,0,.06-.05h0l0,0s0,0,0,0a.06.06,0,0,0,0,0s0,0,0,0a0,0,0,0,0,0,0h0v.12Zm11.33,1,0,.1a1.46,1.46,0,0,1-.07.19L132,49l0,.06-.16.38c-.06.15-.11.28-.15.4a.85.85,0,0,0,0,.25.57.57,0,0,0,0,.22.47.47,0,0,0,.05.1l0,.08,0,.11,0,.12a.31.31,0,0,0,0,.1V51c0,.07,0,.13,0,.19l0,.18a.83.83,0,0,1,0,.15,3.79,3.79,0,0,1-.18.42l-.07.12-.08.09-.06.06-.09.06-.12.06-.34.14-.25.06-.33.05-.17,0a2.43,2.43,0,0,0-.45.11l-.2.06-.25.08-.13,0-.32.09h0l-.21.08-.23.11a2.8,2.8,0,0,0-.36.24c-.15.12-.3.26-.43.38l-.24.22-.09.07h0l-.26.19-.3.15a.61.61,0,0,1-.14.07l-.15.06-.08,0a1.22,1.22,0,0,1-.24.1l-.08,0h-.3l-.12,0a.58.58,0,0,1-.16-.05.69.69,0,0,1-.15-.07l0,0-.11,0-.19-.12-.24-.15-.09-.06-.27-.15h0l.07,0,.19.06,0,0h0l.22.08.23.06H125l.18,0a1.3,1.3,0,0,0,.4,0l.23-.08.22-.12a3.17,3.17,0,0,0,.35-.29,4.05,4.05,0,0,0,.31-.36,2.67,2.67,0,0,0,.17-.3.58.58,0,0,0,.05-.14,1.11,1.11,0,0,0,.07-.16l0,0,0,0v0h.13l.15,0h.06l.24,0,.24-.07.21-.09a2.46,2.46,0,0,0,.43-.26l.37-.28.34-.31a2.57,2.57,0,0,0,.33-.33,2.39,2.39,0,0,0,.13-.21c0-.07.07-.14.11-.2s.11-.27.16-.4.1-.34.14-.5l.06-.35,0-.16a2.34,2.34,0,0,1,.1-.4l0-.08,0-.05,0,0,.07-.07.1-.07h0l.3-.16.45-.17.08,0,.18-.06.18-.07.16-.07.05,0,0,0h0l.09,0h0a.64.64,0,0,0,0,.07.5.5,0,0,1,0,.12.71.71,0,0,1,0,.14A1.66,1.66,0,0,1,132.14,48.62Zm-8.09-2.82.19.13.4.24.44.24.44.19a6.63,6.63,0,0,0,.94.27l1,.21.37.08.17,0,.18,0h0l.24,0,.21,0,.47,0h0l.5,0,.14,0,.32,0h.69l.29,0,.27,0h0l.15,0,.08,0,.06,0,.08,0,.12.09.09.1.09.13,0,0h0l0,0h0l0,0h0l-.42.15-.34.11-.14,0a4.6,4.6,0,0,0-.46.17,1.74,1.74,0,0,0-.48.33,1.1,1.1,0,0,0-.17.32l-.06.2a2.29,2.29,0,0,0-.07.28l-.06.24c0,.09-.05.18-.08.26a2.58,2.58,0,0,1-.08.26c-.06.15-.13.31-.21.47l-.13.22-.11.13a4.36,4.36,0,0,1-.51.44h0l-.42-.1-.26-.06-.68-.16h0l.36.12.32.11.28.08.17.05.13,0h0l-.44.32-.18.09-.26.11-.21,0-.21.05a1,1,0,0,0-.29.07.62.62,0,0,0-.37.34,1.8,1.8,0,0,0-.08.21v0a1.46,1.46,0,0,1-.1.23l-.14.21a2.2,2.2,0,0,1-.2.23,2.23,2.23,0,0,1-.22.21l-.16.11-.12.06-.11.05h-.32l-.2,0h0l-.15,0h0l-.26-.07h0l-.2,0-.12,0h0l-.07,0-.23-.06-.22-.08-.08,0-.2-.08h0l-.09,0h0l-.16-.13-.14-.14a1.77,1.77,0,0,1-.16-.22l0-.05a.75.75,0,0,1-.07-.12l0-.06-.06-.13,0-.05-.18-.33-.23-.38a3.2,3.2,0,0,1-.22-.38l-.07-.16-.06-.14,0-.07s0-.09,0-.13l0,0c0-.14-.09-.26-.13-.39l-.06-.23a.64.64,0,0,1,0-.07v-.06l0-.12a.15.15,0,0,1,0-.07v-.17s0-.08,0-.13l0-.25c0-.07,0-.15,0-.22s0-.1,0-.16,0-.22,0-.33v-.43c0-.11,0-.22,0-.32s0-.1,0-.14,0-.12,0-.18,0-.2,0-.3v-.05l.25-.1.09,0,.17-.08h0v0a.88.88,0,0,0,0,.15l0,0,.06.18,0,.12,0,.13,0,.12,0,.08a.33.33,0,0,0,.07.13h0l.1.17.07.11.13.22c.11.19.22.38.34.57l0-.09c0-.12-.08-.23-.13-.35l0-.06a.78.78,0,0,1,0-.14v0h0a1.22,1.22,0,0,0-.07-.17l0-.06a.37.37,0,0,0,0-.11v0l0-.06a.25.25,0,0,0,0-.07l0-.06,0-.08v-.06l0,0,0-.09s0-.07,0-.11,0-.14-.07-.22l0-.07c0-.07,0-.14-.07-.21s0,0,0,0h0l.37-.21,0,0,.27-.17h0l0,0,.07.1,0,0a1.3,1.3,0,0,0,.1.15l.16.21.18.22a4.32,4.32,0,0,0-.2-.5c0-.05,0-.09-.07-.14l-.08-.13,0,0,0,0,0,0h0l.33-.23h0v0l.07.07.06.07.08.07,0,0h0l.07.08.1.09,0,0a.27.27,0,0,0,.08.07l0,0,.24.21.26.21.25.19.2.15,0,0,.09.06,0,0,0,0,.08.05,0,0,.26.14,0,0,.13.06.08,0,0,0,.61.25.26.09h.05l.11,0,.09,0,.08,0,.1,0h.17l.34,0-.23-.05-.13,0h-.05l-.09,0h0l0,0-.18-.06-.16-.06-.11-.05-.15-.07-.15-.07-.18-.09-.1,0-.16-.08-.08,0-.12-.06-.11-.07-.07,0,0,0,0,0,0,0,0,0h0l-.2-.14-.47-.35-.5-.4-.29-.25-.07-.06-.15-.14,0,0-.07-.07h0l0,0,0,0a5,5,0,0,0,.39-.41h0l.12.08Zm4.61.16h-.14l-.42-.07-.5-.11-.73-.18-.28-.07-.5-.11-.43-.08h0l-.56-.08h0l-.33,0h-.54a2.26,2.26,0,0,0,.15-.39v0h0l.07,0,.06,0,.2,0h.2l.17,0h.17l.33,0,.17,0,.13,0,.21,0h.17l.32,0,.19,0h.32l.18,0,.15,0,0,0,.1,0,.1,0,.21-.07.1,0,.35-.12.41-.19a3.11,3.11,0,0,0,.38-.25l.19-.17h0l0,0,.08-.07.24-.25,0,0,0,0-.23.18-.08.05,0,0-.16.1-.41.23-.31.13-.3.1h0l-.48.16-.23.07h0l-.08,0-.09,0H127l-.09,0h-.36l-.24,0-.18,0-.18,0-.21,0h-.09l-.17,0-.17,0-.33,0-.17,0h-.1l-.16,0a.58.58,0,0,0-.14,0h0c0-.05,0-.09,0-.13a2.62,2.62,0,0,0,0-.37V44l.14,0,.37-.07h0l.25-.05h.15l.12,0,.06,0,.07,0,.16-.08.08,0,.33-.16.09,0,.15-.08.11-.07,0,0,0,0,.11-.07.23-.16,0,0h0l.19-.14a2.38,2.38,0,0,0,.43-.47l.16-.27a.44.44,0,0,0-.08.11l-.18.21-.16.15-.25.17-.1.06-.1.06-.13.07-.07,0-.37.2-.15.06-.31.14-.14.05-.19.08-.18.08,0,0h-.11l-.11,0-.13,0h0l-.23,0h-.08l-.2,0a1.29,1.29,0,0,0-.07-.31.36.36,0,0,0,0-.11v0l0-.08h0l.23-.09.15-.07a.56.56,0,0,0,.15-.1,1.33,1.33,0,0,0,.19-.14l.32-.26.15-.13a1.29,1.29,0,0,0,.17-.16l.08-.09,0,0,0,0,.13-.17.05-.07,0-.06.1-.14.44-.63v0h0l-.09.1-.45.53-.12.13-.07.08,0,.06-.2.22a2.21,2.21,0,0,1-.28.26l-.28.23,0,0,0,0-.28.21-.18.11,0,0-.12.07h0l-.1,0h0a.58.58,0,0,0-.11-.15,1.14,1.14,0,0,0-.23-.2h0l.09-.09a3.89,3.89,0,0,0,.28-.35l.26-.38.06-.1.17-.27c.07-.1.15-.2.22-.31l.31-.44.1-.17,0-.07a.83.83,0,0,1,.07-.13l0-.06.07-.14,0-.07.07-.15,0-.12a1.11,1.11,0,0,0,.07-.16,2.49,2.49,0,0,1,.11-.29c0-.13.09-.23.13-.33a1.63,1.63,0,0,1,.09-.19l0-.08c0-.06.07-.12.11-.17a.86.86,0,0,1,.1-.16,1.64,1.64,0,0,1,.21-.24,1.57,1.57,0,0,1,.19-.18,3.37,3.37,0,0,1,.31-.21l0,0,.31-.21a4.49,4.49,0,0,0,.49-.37h0l.1-.09.15-.11.17-.11c.13-.08.26-.16.4-.23l.2-.08.22-.06.17,0h.33l.17,0h0l.34.06.33.11h0l.17.07,0,0h0a.55.55,0,0,1,.14.09L131,37h0l.18.18c.06.07.11.15.16.22v0l.11.18.1.2a3,3,0,0,1,.18.36l0,0h0l.19.38c.05.08.1.16.16.24h0a4.09,4.09,0,0,1-.25.46l-.22.38h0a.6.6,0,0,0-.08.08l-.05.07-.1.11a1.13,1.13,0,0,1-.1.13l-.1.14-.2.19-.19.17-.23.22h0l-.16.13-.13.1-.28.22h0l-.7.46h0a14.64,14.64,0,0,0,1.45-.82l0,0h0l0,0h0l0,0h0l.26-.19a3.22,3.22,0,0,0,.41-.32l.21-.21.14-.14.06,0,.07-.08.05-.09.36-.57,0,0a2.36,2.36,0,0,0,.36.26,2.67,2.67,0,0,0,.45.21l0,0,.08,0,.07,0,.07,0,.1,0,.11,0,.24.08h0l.12.05.05,0,.18.09.25.15.08.06,0,0h0l0,0a1,1,0,0,1,.14.15.29.29,0,0,1,0,.09.28.28,0,0,1,0,.09c0,.1,0,.21,0,.31a1.66,1.66,0,0,1-.06.21h0a.2.2,0,0,1,0,.08,1,1,0,0,1-.08.14l-.07.08-.08.07-.08.06-.1,0-.09,0-.16,0-.3.05h-.39l-.4,0a1.36,1.36,0,0,0-.42.09.76.76,0,0,0-.19.12.91.91,0,0,0-.17.17.69.69,0,0,0-.1.19c0,.06-.05.12-.07.17v0s0,.08,0,.12-.06.26-.08.39v0a1.46,1.46,0,0,1-.05.2s0,.1,0,.14v.06a2.56,2.56,0,0,1-.11.24h0l0,0-.06.11-.09.14a2.2,2.2,0,0,1-.17.25v0l0,0-.12.14-.17.18-.27.26-.22.19h-.05a4.62,4.62,0,0,1-.5.37l-.16.08a4.87,4.87,0,0,1-.53.21l-.07,0h-.1a.37.37,0,0,0-.1.06H129Zm6.54-4.39a2.45,2.45,0,0,1-.11.37c0,.1-.07.19-.1.27s-.09.18-.14.27a2.14,2.14,0,0,1-.16.27l-.08.1-.07.06-.08.05a1.08,1.08,0,0,1-.24.12l0,0-.05,0-.2.09a2.18,2.18,0,0,0-.27.15l-.14.09a.88.88,0,0,0-.28.35l-.06.17,0,.07a2,2,0,0,1-.09.2l0,0,0,0h0l-.06,0h0c-.16.12-.34.24-.55.37h0l-.3.18-.34.17-.39.16-.44.17-.25.09-.26.09h0c.08-.06.17-.12.26-.2a5.74,5.74,0,0,0,.55-.47l.26-.28.23-.29.18-.29.16-.31a1.69,1.69,0,0,0,.1-.27,2.13,2.13,0,0,0,.08-.32l0-.09c0-.08,0-.15,0-.22s.05-.19.08-.29l0-.06h0l.06-.15.05-.07.06-.08.06,0,0,0,.05,0,.08,0,.11,0,.26,0h.05l.41,0h.21a3.07,3.07,0,0,0,.42-.07.92.92,0,0,0,.23-.09,1.13,1.13,0,0,0,.21-.12,1.07,1.07,0,0,0,.3-.36,1.59,1.59,0,0,0,.07-.2.5.5,0,0,0,0-.12v0a.77.77,0,0,0,0-.15v0h0l.06.16a1.77,1.77,0,0,1,0,.2,1.09,1.09,0,0,1,0,.18A1.49,1.49,0,0,1,135.2,41.57Z" transform="translate(2.03)"/><path class="cls-2" d="M125.74,37.72h0Z" transform="translate(2.03)"/><polygon class="cls-2" points="127.93 37.03 127.93 37.04 127.93 37.04 127.93 37.03"/><path class="cls-2" d="M112.33,54Z" transform="translate(2.03)"/><path class="cls-2" d="M115.71,46.45Z" transform="translate(2.03)"/><path class="cls-2" d="M113.6,49.77h.15a.11.11,0,0,0,.06,0,.05.05,0,0,0,0-.07l0,0,0,0h-.08l-.08,0-.12,0a.94.94,0,0,0-.23.1h.33Z" transform="translate(2.03)"/><path class="cls-2" d="M126.24,50.65c-.16-.18-.3-.35-.45-.5l-.41-.41,0,0-.07-.07-.1-.1a.47.47,0,0,1-.1-.1l-.06-.06c-.11-.11-.22-.22-.31-.33l-.29-.36-.14-.16,0-.05-.08-.07a1,1,0,0,0-.25-.16h0s0,0,0,0l0,0a0,0,0,0,0,0,0,0,0,0,0,0,0,0h0l0,0,0,0,.08.09.17.22,0,.06,0,.05.15.22a6,6,0,0,0,.43.5l.14.15.21.18.25.21,0,0,.26.2.24.19.29.21.09.06,0,0-.17-.19Z" transform="translate(2.03)"/><path class="cls-2" d="M113.57,44.45h-.21l0,0,0,.05a.62.62,0,0,0,.12.08h0a.12.12,0,0,0,.12,0,.08.08,0,0,0,0-.08.1.1,0,0,0-.06-.05Z" transform="translate(2.03)"/><path class="cls-2" d="M121,52.13v0h0Z" transform="translate(2.03)"/><polygon class="cls-2" points="123.05 51.71 123.05 51.72 123.05 51.72 123.05 51.71"/><path class="cls-2" d="M122.43,44.91h.09a.47.47,0,0,0,.24,0,.25.25,0,0,0,.13-.19l0-.13a.59.59,0,0,0,0-.13.29.29,0,0,0,0-.13.2.2,0,0,0-.18-.12.2.2,0,0,0-.17.08.17.17,0,0,0,0,.12h0v0a2,2,0,0,0,0,.24h0l0,0-.08,0h0l-.23,0h0l.13.1Z" transform="translate(2.03)"/><path class="cls-2" d="M122.89,44.68h0Z" transform="translate(2.03)"/><path class="cls-2" d="M121.06,45.8a.34.34,0,0,0,.22,0,.59.59,0,0,0,.23-.14l.08-.1a.31.31,0,0,0,0-.12.1.1,0,0,0-.11-.11.1.1,0,0,0-.12.1h0l0,0a.08.08,0,0,1,0,0l-.19.15-.05,0h0l-.08,0h-.15a.78.78,0,0,0,.21.09Z" transform="translate(2.03)"/><path class="cls-2" d="M119.5,46.31l.09,0h0a.6.6,0,0,0,.27-.07.41.41,0,0,0,.11-.07l0-.05a.14.14,0,0,0,0-.06A.11.11,0,0,0,120,46a.17.17,0,0,0-.17,0l0,0h0l-.05,0-.08.05,0,0h-.16l-.07,0h0l-.06,0h0a.51.51,0,0,0,.09.16Z" transform="translate(2.03)"/><path class="cls-2" d="M119.8,44.87h0l0,0,0,0,0,0s0,0,0,0a.12.12,0,0,0,0,.13.3.3,0,0,0,.22.11h0a.47.47,0,0,0,.33-.1.22.22,0,0,0,0-.36A.32.32,0,0,0,119.8,44.87Z" transform="translate(2.03)"/><path class="cls-2" d="M121.15,44.46l.09,0h.15l.08,0,.07,0a.25.25,0,0,0,.13-.24.17.17,0,0,0,0-.07.05.05,0,0,0,0,0h0l0,0h0v0a0,0,0,0,0,0,0,.22.22,0,0,0,0,.08,0,0,0,0,1,0,0h0v0l0,0v0h0l0,0,0,0,0,0h-.28l-.12,0h0l-.1,0h0l.15.09Z" transform="translate(2.03)"/><path class="cls-2" d="M121.62,43.36h.06l.24,0,.1-.06a.18.18,0,0,0,0-.07.08.08,0,0,0-.09-.08.12.12,0,0,0-.08,0h0l0,0-.06,0-.1,0-.11,0h-.1l.1,0Z" transform="translate(2.03)"/><path class="cls-2" d="M119.92,44.1h0a.23.23,0,0,0,.07.1.33.33,0,0,0,.17.07h0a.54.54,0,0,0,.25,0,.52.52,0,0,0,.21-.18.19.19,0,0,0-.11-.28.24.24,0,0,0-.31.12v0h0l0,0-.08.05Z" transform="translate(2.03)"/><path class="cls-2" d="M118.61,45.47a.46.46,0,0,0,.26,0,.62.62,0,0,0,.16-.1l.07-.08a.16.16,0,0,0,0-.07c0-.06,0-.17-.09-.17a.15.15,0,0,0-.09,0s0,0,0,0,0,0-.06,0l0,0s0,0,0,0l-.07,0,0,0h-.14l0,0h0l-.07,0h0a.25.25,0,0,0,.13.2Z" transform="translate(2.03)"/><path class="cls-2" d="M118.8,44.38h.11a.18.18,0,0,0,.11-.05.09.09,0,0,0,0-.11.11.11,0,0,0-.12,0,.21.21,0,0,0-.13,0l-.11.06,0,0h0a.24.24,0,0,0,.13.08Z" transform="translate(2.03)"/><path class="cls-2" d="M119.55,43.77h.11l.12,0a.64.64,0,0,0,.3-.17c0-.06.11-.16,0-.22a0,0,0,0,0,0,0,.12.12,0,0,0-.09.08l0,0,0,0h0l-.1.05-.15.08-.11.07h-.06S119.5,43.76,119.55,43.77Z" transform="translate(2.03)"/><path class="cls-2" d="M118.18,45.78l.07,0a.43.43,0,0,0,.16,0l.11,0s.06,0,.08-.08a.12.12,0,0,0,0-.16.19.19,0,0,0-.19-.06l-.08,0-.06,0-.06,0H118a.23.23,0,0,0,0,.14A.21.21,0,0,0,118.18,45.78Z" transform="translate(2.03)"/><path class="cls-2" d="M110.81,42.43h0Z" transform="translate(2.03)"/><polygon class="cls-2" points="132.84 40.91 132.84 40.91 132.84 40.91 132.84 40.91"/><path class="cls-2" d="M132.45,39.21h0Z" transform="translate(2.03)"/><path class="cls-2" d="M125.26,53.6h0l-.14-.1-.08-.06-.15-.12-.17-.13-.06,0-.1-.07h0l0,0h0l-.06-.09-.09-.11a.76.76,0,0,1-.11-.14l-.33-.4h0l.38.55.1.14.07.11.06.05,0,0,.26.21.23.17,0,0a.18.18,0,0,0,.07,0l0,0,0,0,.08,0,.07,0h0s0,0,0,0a0,0,0,0,0,0-.05Z" transform="translate(2.03)"/><polygon class="cls-2" points="108.25 60.84 108.25 60.84 108.25 60.84 108.25 60.84"/><path class="cls-2" d="M127.87,66h0Z" transform="translate(2.03)"/></svg>