<svg id="Layer_1" data-name="Layer 1" xmlns="http://www.w3.org/2000/svg" viewBox="0 0 236.87 71.21"><defs><style>.cls-1,.cls-2{fill:#45501e;}.cls-2{font-size:9.33px;font-family:TrajanPro-Regular, Trajan Pro;letter-spacing:0.3em;}.cls-3{letter-spacing:0.28em;}.cls-4{letter-spacing:0.29em;}.cls-5{letter-spacing:0.29em;}.cls-6{letter-spacing:0.3em;}.cls-7{letter-spacing:0.28em;}.cls-8{letter-spacing:0.29em;}.cls-9{letter-spacing:0.27em;}.cls-10{letter-spacing:0.29em;}.cls-11{letter-spacing:0.27em;}.cls-12{fill:none;}</style></defs><title>main-logo</title><path class="cls-1" d="M227.82,45.31a19,19,0,0,0,4.33,2.4,17.23,17.23,0,0,0,3.37,1l1.35.19h-7.7a13.93,13.93,0,0,1-8.37-2.71,14.15,14.15,0,0,1-5.18-7.23c0-.08-.06-.17-.08-.27-2.17-7.5-7.33-9.44-10.6-10h-4V42.86a7.53,7.53,0,0,0,2.3,4.31,6.12,6.12,0,0,0,4.31,1.7H189.66A7.3,7.3,0,0,0,196.41,44a7.41,7.41,0,0,0,.27-1V6.28a7.36,7.36,0,0,0-2.49-4.1,7.17,7.17,0,0,0-4.51-1.7l7.87,0v0h2v0H214a12.54,12.54,0,0,1,6.58,1.76A13.4,13.4,0,0,1,225.25,7,12.54,12.54,0,0,1,227,13.56v2a12.67,12.67,0,0,1-1.78,6.59,13.5,13.5,0,0,1-4.72,4.72A12.54,12.54,0,0,1,214,28.68h-7.66A24,24,0,0,1,214,30.27a12.51,12.51,0,0,1,4.58,3.3A35.64,35.64,0,0,1,222,38.39c.48.77,1,1.55,1.56,2.4A18.13,18.13,0,0,0,227.82,45.31ZM200.94,27.73h6.84A13.11,13.11,0,0,0,217,23.67a13,13,0,0,0,3.81-9.24,12.47,12.47,0,0,0-1.76-6.56,13.12,13.12,0,0,0-11.33-6.4l-3.41-.06a7.36,7.36,0,0,0-3.38,5.09Z" transform="translate(0 0.05)"/><text class="cls-2" transform="translate(13.79 68.82)">F<tspan class="cls-3" x="8.32" y="0">l</tspan><tspan class="cls-4" x="15.91" y="0">o</tspan><tspan x="26.2" y="0">we</tspan><tspan class="cls-5" x="45.97" y="0">r</tspan><tspan class="cls-6" x="54.95" y="0">s subscr</tspan><tspan class="cls-7" x="120.47" y="0">i</tspan><tspan x="126.71" y="0">pt</tspan><tspan class="cls-8" x="143.47" y="0">i</tspan><tspan class="cls-9" x="149.76" y="0">o</tspan><tspan x="159.85" y="0">n/</tspan><tspan class="cls-7" x="178.37" y="0">s</tspan><tspan class="cls-10" x="185.87" y="0">h</tspan><tspan class="cls-11" x="196.44" y="0">o</tspan><tspan x="206.52" y="0">p</tspan></text><path class="cls-1" d="M41.93,41.79c1.28,2.13,4.42,6.25,9.67,7l-18.51.13a7.3,7.3,0,0,0,5.88-3L34.1,33.55H13.6l-2.4,7.18a5.52,5.52,0,0,0-.06.81,7.38,7.38,0,0,0,7.35,7.35H0a11.73,11.73,0,0,0,5.49-2.34A16,16,0,0,0,8.86,43a18.63,18.63,0,0,0,1.39-2.3L21.12,8.22h0v0s0-.08,0-.12l.27-.77a7.29,7.29,0,0,0,.25-1.95,7.59,7.59,0,0,0-.29-2.09A3.75,3.75,0,0,0,20.64,2a6.05,6.05,0,0,0-4-1.45h9l.46,1.14Zm-28-9.22H33.71L23,5.47l-.09.23L22.3,7.64l-.08.25-.6,1.78Z" transform="translate(0 0.05)"/><path class="cls-1" d="M97.58.44a4,4,0,0,0-3.25,1.9,9.15,9.15,0,0,0-1.57,4.78V42.47A9.08,9.08,0,0,0,94.39,47a3.9,3.9,0,0,0,3.16,1.78H84.88A3.87,3.87,0,0,0,88,47a8.8,8.8,0,0,0,1.64-4.51c0-.15,0-.31,0-.48V8.41L73.57,44.21l-1.83,4.06-.39-.91L54.3,7.58V42.66a8.92,8.92,0,0,0,1.64,4.39,3.89,3.89,0,0,0,3.13,1.71H48.83A3.83,3.83,0,0,0,52,47a8.8,8.8,0,0,0,1.64-4.41l0-.31V6.59A8.8,8.8,0,0,0,52,2.18,3.8,3.8,0,0,0,48.84.42h6L73.18,43.3,89.7,6.61l2.19-4.83v0L92.48.44h5.1Z" transform="translate(0 0.05)"/><path class="cls-1" d="M181.75.54h.45l7.64,0a7.33,7.33,0,0,0-7.1,6.36V32.41a16,16,0,0,1-1.9,7.68,16.82,16.82,0,0,1-5.12,5.8,16.18,16.18,0,0,1-7.29,2.81,13.7,13.7,0,0,1-2.13.15,15.87,15.87,0,0,1-7.68-1.91,16.43,16.43,0,0,1-8.78-14.53v-25a7.26,7.26,0,0,0-2.22-4.82A7.36,7.36,0,0,0,142.69.52l7.27,0h3.4l7.89,0a7.23,7.23,0,0,0-4.81,2A7.27,7.27,0,0,0,154.12,7V32.41a15.86,15.86,0,0,0,2.12,8.09,16.31,16.31,0,0,0,5.67,5.88s.39.17,1.18.48a14.47,14.47,0,0,0,3,.77,11.48,11.48,0,0,0,4-.15,15.75,15.75,0,0,0,2.38-.77,16.44,16.44,0,0,0,9.28-14.8V7.21A7.42,7.42,0,0,0,174.6.52ZM169.51,47.6h0Zm.08,0,.42-.08Z" transform="translate(0 0.05)"/><path class="cls-12" d="M201.1,5.85c-.06.21-.11.43-.16.65V27.73h6.84A13.11,13.11,0,0,0,217,23.67a13,13,0,0,0,3.81-9.24,12.47,12.47,0,0,0-1.76-6.56A12.87,12.87,0,0,0,215.52,4V5.85Z" transform="translate(0 0.05)"/><path class="cls-1" d="M120.36,37.69l0,.05h0a.35.35,0,0,1,0,.08h0l-.15-.95c-.07-.37-.16-.76-.25-1.18l-.08-.31-.18-.81,0-.08c-.07-.36-.15-.73-.2-1.1s-.09-.73-.13-1.17,0-.7-.08-1-.07-.92-.1-1.39c0-.23,0-.47-.05-.7s0-.28,0-.41V28.6c0-.38,0-.78-.06-1.17a8.32,8.32,0,0,1,0-1,3.81,3.81,0,0,1,.07-.54,3.91,3.91,0,0,1,.16-.54,3.55,3.55,0,0,1,.21-.46c.1-.17.19-.33.29-.48a3.58,3.58,0,0,1,.35-.41c.08-.09.16-.19.25-.28l.13-.13c.15-.17.27-.31.37-.44s.26-.34.36-.49.24-.36.36-.57.21-.39.31-.58.17-.36.26-.53l.24-.5c.18-.38.37-.75.55-1.13.33-.67.63-1.37.92-2l0-.14c.34-.79.65-1.6.91-2.29l.08-.22,0-.09a2.25,2.25,0,0,1,.08-.24l.09-.34v0c0-.21.1-.5.14-.78l.09-.86,0-.31c0-.37.06-.76.11-1.14,0-.15,0-.3.07-.45,0-.32.09-.64.12-1s0-.32,0-.47l0-.24c0-.14-.07-.3-.13-.49s-.11-.32-.17-.47-.09-.17-.14-.26a.86.86,0,0,0-.07-.1l0,0-.06,0H125l0,0,0,0,0,0c-.06,0-.1.1-.15.15s-.21.26-.31.38l-.32.4a6.11,6.11,0,0,1-.81.8,1.66,1.66,0,0,1-.21.16,2,2,0,0,1-.62.3,1.72,1.72,0,0,1-.65,0,2.32,2.32,0,0,1-.71-.18,3.7,3.7,0,0,1-1-.7,1.19,1.19,0,0,0-.18-.15l-.09-.06-.09,0h0l-.09,0h-.13l-.11,0a.85.85,0,0,0-.22.09l-.4.22h0l0,0h0l-.25.18-.09.07a.86.86,0,0,0-.14.13,1.55,1.55,0,0,0-.19.24,4,4,0,0,0-.28.46c-.07.15-.14.31-.21.5l-.12.4,0,.12c0,.08.07.15.11.24s.15.33.21.5.13.37.2.58.1.39.14.58v0a3.85,3.85,0,0,1,.08.58,4.89,4.89,0,0,1,0,.66,5.61,5.61,0,0,1-.06.59,9.77,9.77,0,0,1-.22,1.13c-.1.43-.19.77-.28,1.08s-.24.77-.34,1.06c0,.11-.07.22-.11.33s-.15.43-.22.65-.21.74-.3,1.1-.14.81-.18,1.24a13.27,13.27,0,0,0,0,1.66c0,.55,0,1.11,0,1.66s.07,1.22.1,1.74.1,1.22.18,1.81c.06.31.14.72.24,1.13s.22.8.33,1.19.19.68.28,1,.23.86.36,1.29v0h0l.25.74c.09.23.19.46.29.69s.32.64.48.95c.07.15.15.3.23.45l.12.24,0,0c.18.36.36.72.57,1.06h0Zm.54,1.5h0a.71.71,0,0,1-.21,0,.86.86,0,0,1-.42-.38c-.13-.22-.24-.45-.37-.67l-.21-.33h0l-.05-.07-.34-.53c-.19-.3-.35-.61-.51-.92l-.06-.11-.31-.59-.23-.43c-.2-.37-.38-.74-.55-1.11s-.28-.74-.39-1.06-.23-.76-.33-1.15l-.1-.34c-.07-.28-.15-.56-.22-.84s-.22-.8-.31-1.18-.15-.72-.23-1.2-.07-.73-.09-1.09v-.06c0-.78-.09-1.59-.11-2.4s0-1.42,0-2.34A12.64,12.64,0,0,1,116,20s0,0,0-.08v-.06c.08-.35.17-.7.27-1s.15-.49.24-.73l.07-.24c.1-.29.2-.6.31-1s.16-.62.23-.92v0c0-.23.11-.52.17-.82s.07-.49.1-.78,0-.45,0-.68,0-.31,0-.46-.1-.5-.17-.77-.1-.29-.16-.45h0l0,0h0V12a2.08,2.08,0,0,1-.28-.53,1.24,1.24,0,0,1-.09-.4c-.08-.15-.17-.3-.25-.46-.23-.33-.47-.67-.73-1-.13-.15-.26-.28-.38-.4l-.23-.18-.26-.15-.5-.21-.55-.18-.53-.18a4,4,0,0,1-1.05-.5,4.54,4.54,0,0,1-.89-.76c-.16-.17-.32-.36-.47-.54l-.32-.37-.25-.25-.18-.15-.18-.11-.13-.06-.15,0-.13,0h-.15l-.22,0-.41.11c-.3.1-.57.2-.82.31a2.88,2.88,0,0,0-.31.17l-.09.06a.18.18,0,0,1-.07,0s-.11.1-.16.16l-.11.13-.11.19,0,.1s0,.09,0,.14A.13.13,0,0,1,107,7v.13a.13.13,0,0,0,0,.06l0,.15,0,.08c.08.15.16.29.25.43l0,.07c.27.41.57.81.85,1.2.17.22.34.45.5.68a11.29,11.29,0,0,1,.68,1c.19.32.36.65.52,1,.41.83.72,1.53,1,2.21.36.92.66,1.63,1,2.27.09.21.18.42.28.63l.21.46c.15.33.29.69.44,1.08a11.33,11.33,0,0,1,.34,1.11c.1.36.2.75.28,1.15s.14.78.21,1.24.1.75.14,1.14.07.8.09,1.21,0,.8,0,1.19V26c0,.37,0,.76,0,1.14s0,.63.06.93.08.65.12.93h0c0,.25.1.53.17.81s.15.58.25.9.16.5.26.78.19.49.32.78.16.35.25.52.17.31.26.46l0,.08a25.38,25.38,0,0,0,1.56,2.13c.13.17.26.33.4.49h0v0c.18.22.39.44.62.68s.38.38.58.56l.62.53c.12.1.24.2.37.29a1.56,1.56,0,0,0,.2.16s0,0,.07.07a.35.35,0,0,1,.05.13.22.22,0,0,1-.18.22.25.25,0,0,1-.15,0l-.09-.06-.27-.22-.47-.35-.49-.34-.23-.2-.08-.07h0l-.08-.08-.08-.07-.41-.35-.22-.19-.16-.16L117,36.4l-.23-.25-.15-.17-.27-.29-.14-.15c-.26-.28-.53-.59-.82-.95s-.48-.63-.68-.94a8.24,8.24,0,0,1-.59-1.07v0h0c-.08-.18-.16-.36-.23-.55a5.37,5.37,0,0,1-.21-.56,11.7,11.7,0,0,1-.35-1.15,9.42,9.42,0,0,1-.23-1.2c0-.2-.05-.41-.06-.61s0-.45,0-.68c0-.4,0-.8,0-1.21s.07-1,.09-1.47c0-.25,0-.5,0-.76s0-.53,0-.8c0-.83-.12-1.66-.25-2.48A16.23,16.23,0,0,0,112.4,19c-.12-.36-.25-.73-.4-1.08s-.33-.75-.5-1.12-.33-.71-.48-1.08-.32-.76-.47-1.15-.21-.53-.32-.79-.23-.54-.35-.81-.38-.82-.58-1.22-.38-.71-.59-1.06c-.43-.65-.9-1.26-1.35-1.9a11.52,11.52,0,0,1-.64-1,1.22,1.22,0,0,1-.15-.93,1.76,1.76,0,0,1,.81-1.06,4.21,4.21,0,0,1,1.13-.49,4.34,4.34,0,0,1,.48-.14,1.68,1.68,0,0,1,1,.06,2.53,2.53,0,0,1,.82.59l.34.36c.22.24.45.48.69.7l.52.4.33.19a5.15,5.15,0,0,0,.54.23,11.85,11.85,0,0,1,2.18.8,3.21,3.21,0,0,1,.86.78c.21.24.39.49.57.74,0-.1.08-.2.13-.3a5,5,0,0,1,.27-.51,2.74,2.74,0,0,1,.35-.49,3.63,3.63,0,0,1,.9-.7,5.6,5.6,0,0,1,.55-.27,1.39,1.39,0,0,1,.6-.11,1.23,1.23,0,0,1,.5.12,1.72,1.72,0,0,1,.48.31l.42.33.23.13.16.07.19.05.18,0h.27l.12,0,.1,0,.13-.07a3.4,3.4,0,0,0,.3-.23,6,6,0,0,0,.51-.5c.25-.29.48-.6.73-.88a1.64,1.64,0,0,1,1-.6,1,1,0,0,1,.67.12,1.52,1.52,0,0,1,.53.54,4.94,4.94,0,0,1,.47,1.17,4.62,4.62,0,0,1,.11.63,4,4,0,0,1,0,.6c0,.46-.09.93-.14,1.4v0h0c0,.37,0,.74-.06,1.1s0,.82-.08,1.24c0,.19,0,.39-.07.62s-.09.43-.14.64A5.44,5.44,0,0,1,126,15l-.21.53a37.71,37.71,0,0,1-2.13,4.37l-.27.48-.3.53-.17.28q-.21.39-.45.78a9.51,9.51,0,0,1-1.45,1.83l-.25.24-.44.44-.23.28c-.1.16-.19.33-.29.51s-.1.23-.15.36l-.06.2a.83.83,0,0,0,0,.15V26a2.86,2.86,0,0,0-.06.46,11.49,11.49,0,0,0,0,1.19c.08,1.38.2,2.88.39,4.72,0,.18,0,.39.07.59a.51.51,0,0,1,0,.13h0v.2h0s0,.05,0,.07c.06.34.14.74.24,1.13s.21.8.31,1.2h0l0,.16c.08.31.16.63.23.94s.16.82.22,1.21l0,.12c0,.23.07.47.11.7a.33.33,0,0,1-.13.29A.36.36,0,0,1,120.9,39.19Z" transform="translate(0 0.05)"/><path class="cls-1" d="M119.39,38a.17.17,0,0,1,0-.23.16.16,0,0,1,.15,0h0a.15.15,0,0,1,.07,0h0a.17.17,0,0,1,0,.24A.19.19,0,0,1,119.39,38Z" transform="translate(0 0.05)"/><path class="cls-1" d="M122.13,38.7l-.12,0-.28.14-.37.25a.15.15,0,0,1-.19,0,.14.14,0,0,1,0-.2l.31-.27.19-.18a9.91,9.91,0,0,0,.63-.82l.12-.18h0c0-.07.08-.13.12-.21l.09-.16,0-.09c.06-.12.12-.25.17-.38a2.92,2.92,0,0,0,.1-.35q.06-.32.09-.6l.08-1c0-.34,0-.68,0-1a9.09,9.09,0,0,1,.19-2.08,4.64,4.64,0,0,1,.31-.88l.19-.43c.05-.11.09-.22.13-.33l0,0c.06-.21.15-.48.22-.76l0-.15c0-.21.1-.43.17-.64s.25-.71.39-1.05c.07-.17.13-.35.2-.52l.18-.51v-.05c.06-.16.11-.32.18-.48s.15-.34.24-.52l.24-.4,0-.06h0l.16-.23.1-.14.17-.25c.11-.16.21-.32.33-.47a5.72,5.72,0,0,1,.55-.65l0-.05,0,0h0l.21-.23.14-.15.22-.27s.09-.11.14-.17a1.71,1.71,0,0,0,.11-.14l0-.07.09-.11.09-.12.19-.27.11-.16.1-.14.19-.28.1-.15.22-.35.09-.16c.08-.12.15-.24.22-.36l.12-.24.18-.33.07-.15.19-.42c0-.06,0-.12.07-.17l0-.08.12-.29c0-.11.07-.22.11-.32l0-.13a.88.88,0,0,0,0-.15l0-.09,0-.07c0-.05,0-.1,0-.15.07-.23.12-.47.18-.7l.09-.34a3,3,0,0,1,.12-.4,2.36,2.36,0,0,1,.33-.63,5.46,5.46,0,0,1,1-1l.2-.16a4.85,4.85,0,0,1,2.35-.89,5.38,5.38,0,0,1,1.06,0h.53l.16,0h.52l.08,0,0,0,0,0h0l0,0,0,0h0a.36.36,0,0,0,0-.09h0v0a.78.78,0,0,0,0-.14.86.86,0,0,0,0-.16l0-.26-.09-.37a1.86,1.86,0,0,0-.13-.34,1,1,0,0,0-.07-.15l-.06-.07a.46.46,0,0,0-.07-.07l0,0-.05,0-.06,0,0,0-.13,0h-.15a5.59,5.59,0,0,0-.59.08c-.14,0-.3.05-.45.06h0l-.29,0a2.21,2.21,0,0,1-.51-.05,1.78,1.78,0,0,1-.87-.56,6.08,6.08,0,0,1-.54-.69l0,0c-.21-.29-.37-.52-.53-.73a1.69,1.69,0,0,0-.19-.19L132.4,9l-.18-.11L132,8.83l-.21-.06-.2,0h-.27l-.27,0-.29.07-.26.1,0,0h0l-.19.1-.06,0-.05,0a1.36,1.36,0,0,0-.17.17l-.26.3-.1.12-.39.45,0,0-.4.42-.12.13-.38.37,0,0-.11.09,0,0a.93.93,0,0,1-.37.1,1.24,1.24,0,0,1-.38,0,.91.91,0,0,1-.43-.2,3.62,3.62,0,0,1-.28-.29h0l-.2-.27a.94.94,0,0,1-.09-.12.3.3,0,0,1,0-.29.28.28,0,0,1,.27-.12.38.38,0,0,1,.22.15l.21.26a2.73,2.73,0,0,0,.23.25l0,0h0l0,0,.07,0h.37l.14-.11c.42-.38.81-.79,1.2-1.2h0l.28-.33.23-.26a2.17,2.17,0,0,1,.54-.4,2.47,2.47,0,0,1,2.23,0,2.13,2.13,0,0,1,.45.34,1.93,1.93,0,0,1,.27.3l.3.39c.18.24.35.48.54.71a3.07,3.07,0,0,0,.25.26l.16.13.12.07a.75.75,0,0,0,.13.06l.11,0,.11,0h.15l.21,0,.44-.1c.21-.06.42-.12.63-.16a2.3,2.3,0,0,1,.64,0,1.22,1.22,0,0,1,.6.27,1.47,1.47,0,0,1,.39.5,2.73,2.73,0,0,1,.26.69,2.29,2.29,0,0,1,0,1.32,1.27,1.27,0,0,1-.38.56,1.23,1.23,0,0,1-.63.27,2.74,2.74,0,0,1-.81,0L136,14c-.24,0-.49-.09-.74-.11h-.37a3.29,3.29,0,0,0-.44.05,5.43,5.43,0,0,0-.58.13l-.42.17a3.23,3.23,0,0,0-.41.22,5.32,5.32,0,0,0-.47.36,5.79,5.79,0,0,0-.51.48,3.25,3.25,0,0,0-.23.29,2.39,2.39,0,0,0-.13.21,2.29,2.29,0,0,0-.1.23,4.85,4.85,0,0,0-.16.63l-.12.52c-.09.34-.18.68-.3,1a8,8,0,0,1-.36.92l-.15.33a1.63,1.63,0,0,1-.09.19l-.29.54c-.08.15-.16.28-.25.42s-.17.27-.26.41-.37.56-.57.83-.4.55-.61.81-.45.54-.68.8-.25.28-.37.43a2.82,2.82,0,0,0-.29.39h0l-.47.7-.24.36-.2.34L126,26c-.1.29-.19.59-.28.89s-.21.63-.32.94a8.83,8.83,0,0,0-.3,1c-.09.42-.17.83-.29,1.24s-.28.77-.43,1.16c0,.15-.1.31-.14.46s-.07.41-.09.62,0,.65,0,1,0,.71,0,1.06,0,.51,0,.77h0v.07l0,.19a6.13,6.13,0,0,1-.23,1.24,3.25,3.25,0,0,1-.27.57l-.09.14,0,.08-.12.17-.05.06-.07.1,0,0-.07.09a1.07,1.07,0,0,1-.16.14h0l0,0,0,0-.24.22-.19.18-.13.11-.07.06Z" transform="translate(0 0.05)"/><path class="cls-1" d="M121.22,39l-.09.05a.35.35,0,0,1-.11,0l-.22,0-.25,0-.4.06h0l-.91.14-.16,0-.25,0-.19,0c-.14,0-.27-.06-.41-.09a3.06,3.06,0,0,1-.63-.25l-.19-.1-.16-.1c-.22-.14-.43-.3-.63-.45l-.29-.23-.25-.22h0l0,0h0l-.28-.26-.32-.32a6.8,6.8,0,0,1-.5-.59c-.34-.44-.66-.88-1-1.32l-1-1.37c-.3-.42-.6-.85-.91-1.27l-.2-.25-.24-.28c-.09-.11-.19-.21-.28-.31l-.59-.59c-.37-.37-.74-.75-1.12-1.11l-.25-.24,0,0c-.52-.46-1-.92-1.62-1.34a1.75,1.75,0,0,0-.29-.18l-.21-.1-.12,0-.21,0h-.18l-.21,0-.18,0-.24.09-.26.14-.27.18-.29.21-.17.15-.18.18a1.54,1.54,0,0,0-.17.19,2,2,0,0,0-.17.23l-.17.27a2.34,2.34,0,0,1-.15.27,2.18,2.18,0,0,1-.26.34,1,1,0,0,1-.31.23,1.06,1.06,0,0,1-.34.12l-.36.05c-.12,0-.24,0-.35,0s-.24,0-.36,0l-.31,0a2.43,2.43,0,0,1-.64-.22,2.09,2.09,0,0,1-.52-.42,2.65,2.65,0,0,1-.5-.69,2.46,2.46,0,0,1-.19-.4,1.16,1.16,0,0,1-.07-.37,1,1,0,0,1,.13-.49,1.09,1.09,0,0,1,.3-.37,1.07,1.07,0,0,1,.22-.15l.33-.21a4.74,4.74,0,0,1,.75-.37c.26-.08.52-.13.78-.2l.19-.07.07,0,.07-.05,0,0,0-.05.06-.09,0-.07s0-.1,0-.15a.89.89,0,0,0,0-.22,1.93,1.93,0,0,0,0-.24c0-.13,0-.27,0-.41a6.58,6.58,0,0,0-.17-.74c-.06-.26-.13-.52-.17-.78a3.29,3.29,0,0,1-.06-.77,2,2,0,0,1,.23-.8,1.18,1.18,0,0,1,.49-.52,1.45,1.45,0,0,1,.87-.13,2.22,2.22,0,0,1,.89.32l.66.42.65.38.46.2.24.07.34,0h.14a6.53,6.53,0,0,1,.76.08,1.75,1.75,0,0,1,1,.54,8,8,0,0,1,.53.63,7.26,7.26,0,0,1,.45.68c.27.45.54.91.8,1.37s.53.92.76,1.4.29.67.44,1c.06.14.13.27.19.4s.16.28.24.42.29.44.44.65l.48.68c.3.46.58.92.85,1.39.39.67.78,1.33,1.18,2h0l-1.13-1.29-.54-.63h0c-.17-.2-.33-.4-.49-.61-.34-.42-.66-.86-1-1.31a8.37,8.37,0,0,1-.83-1.46c0-.1-.09-.21-.14-.32s-.15-.35-.23-.52c-.21-.46-.47-.92-.71-1.36-.16-.27-.32-.55-.47-.83s-.21-.36-.31-.55l0,0-.33-.58c-.2-.3-.37-.54-.55-.76l-.17-.18-.14-.12-.13-.07-.15-.06-.19-.06c-.19,0-.39-.06-.58-.09l-.16,0a2.93,2.93,0,0,1-.78-.21l-.3-.14,0,0-.35-.19-.36-.21-.31-.19-.41-.23-.22-.1-.19-.06-.23,0h-.16l-.19,0-.13,0-.11,0-.07,0,0,0,0,0,0,0a.86.86,0,0,0-.07.1.75.75,0,0,0-.07.12v0h0v0l0,.08a2.29,2.29,0,0,0-.08.28l0,.17v.22a3.77,3.77,0,0,0,0,.41c0,.23.1.47.16.7l0,.15c0,.21.11.42.15.63s.05.27.07.42,0,.2,0,.31a1.78,1.78,0,0,1-.06.55,1.28,1.28,0,0,1-.17.42.89.89,0,0,1-.28.3l-.11.07-.15.07,0,0,0,0-.24.07-.19.05h-.08l-.31.08-.3.11c-.23.12-.45.25-.68.39a.71.71,0,0,0-.14.1.18.18,0,0,0-.07.05.12.12,0,0,0-.05.05l-.06.07,0,0v0l0,.08a.06.06,0,0,0,0,0,.64.64,0,0,1,0,.07v0h0v0s0,0,0,.06l.06.15a2.69,2.69,0,0,0,.16.29,3.71,3.71,0,0,0,.23.32v0l.11.12a1.85,1.85,0,0,1,.14.14l.16.12.12.07.17.07.28.09.58.08h.35l.21,0,.13,0,.09,0,0,0,0,0,0,0,.07-.08.16-.2c.07-.1.13-.2.19-.3l.25-.35.25-.29,0,0a2.33,2.33,0,0,1,.28-.26l.35-.28.32-.2A3.76,3.76,0,0,1,106,28a2.19,2.19,0,0,1,1-.2,1.93,1.93,0,0,1,.94.28,3.27,3.27,0,0,1,.36.25l0,0,.48.38.14.1c.4.33.84.69,1.24,1.07l.83.79.33.32a14,14,0,0,1,1.12,1.17c.31.38.61.79.91,1.18l.12.16.94,1.25.24.33c.35.48.71,1,1.09,1.42l.09.11.1.11.13.14.07.07.36.35.06,0,.52.44.46.35,0,0,.08.06.15.09.09.06,0,0,.14.08.31.13a5.71,5.71,0,0,0,.71.19h.14l.25,0h0l.53,0c.31,0,.62-.08.93-.13l.1,0,.13,0a.25.25,0,0,1,.08.44Z" transform="translate(0 0.05)"/><path class="cls-1" d="M142.4,28.67a.55.55,0,0,1-.4-.26l-.22-.26h0a3.59,3.59,0,0,0-.38-.4,3.37,3.37,0,0,0-.43-.34c-.19-.13-.38-.24-.57-.35l-.24-.11-.24-.09a1.89,1.89,0,0,0-.34-.09l-.35-.05a1.9,1.9,0,0,0-.34,0l-.2,0-.21,0-.24.1A.94.94,0,0,0,138,27a2.6,2.6,0,0,0-.33.25c-.31.26-.6.54-.91.8l-.49.42a5.44,5.44,0,0,0-.42.41c-.23.25-.44.5-.68.73a2.92,2.92,0,0,1-.38.32,3.62,3.62,0,0,1-.41.27,3.29,3.29,0,0,1-1,.44c-.32.09-.65.15-1,.21l-.45.07h0a11.23,11.23,0,0,0-1.28.28h0l-.09,0h0l0,0-.3.11-.18.11a5.57,5.57,0,0,0-.68.52l-.36.33-.13.15-.15.2-.16.29c-.14.31-.26.62-.37.94s-.25.59-.37.88a8.36,8.36,0,0,1-1,1.84,5.82,5.82,0,0,1-.71.78,7.18,7.18,0,0,1-.79.67c-.27.19-.54.38-.82.56s-.54.37-.82.53l-.47.24a4.75,4.75,0,0,1-.49.17l-.25,0-.28,0h-.55l-.49,0a2.25,2.25,0,0,1-.56-.12,2,2,0,0,1-.49-.32c-.13-.11-.25-.23-.36-.34s-.1-.11-.15-.16a3.17,3.17,0,0,1-.29-.35v0l-.1-.14a.84.84,0,0,1-.15-.18.11.11,0,0,1,0-.16.12.12,0,0,1,.14,0h0l.17.12.08.06.19.08.22.13.43.25,0,0a5.44,5.44,0,0,0,.5.22l.1,0,.16,0h.49c.17,0,.34,0,.51,0l.24,0,.24-.06.08,0h0l.33-.14,0,0h0l.48-.26c.16-.11.34-.23.55-.39l.19-.14c.28-.21.51-.38.71-.55l.38-.35c.13-.12.25-.25.36-.37a2.73,2.73,0,0,0,.23-.25l.19-.25,0,0v0a2.33,2.33,0,0,0,.17-.26l.17-.31,0,0c.09-.18.18-.36.26-.54l.24-.49,0-.08,0,0v0l0-.07v0h0l0-.08c.16-.31.31-.62.42-.85l.23-.46.31-.47a4,4,0,0,1,.73-.7l.14-.11.21-.15.06,0a4,4,0,0,1,.43-.28,2.1,2.1,0,0,1,.49-.23l.35-.11.58-.13.92-.16.3-.05h0a9.82,9.82,0,0,0,1-.22,3.25,3.25,0,0,0,.4-.15l.25-.14,0,0h0l.28-.19.1-.07.15-.11h0v0L135,29l.18-.21.49-.54a5.8,5.8,0,0,1,.52-.47l.2-.17.53-.47.22-.2c.12-.1.28-.25.45-.38l.26-.17A2.45,2.45,0,0,1,139,26.1a4,4,0,0,1,.49,0h0a2.17,2.17,0,0,1,.43.08,2.64,2.64,0,0,1,.4.12c.13.06.27.11.4.18a5.81,5.81,0,0,1,1.1.71,4.42,4.42,0,0,1,.44.42l.05.06h0s0-.06,0-.08,0-.15,0-.22a1.49,1.49,0,0,0,0-.21.76.76,0,0,0,0-.21,4.39,4.39,0,0,0-.13-.52,7.46,7.46,0,0,0-.27-.71c0-.08-.1-.19-.16-.29a.86.86,0,0,1-.07-.1l0,0,0,0-.05,0-.08,0-.21-.05h0l-.16,0-.53-.11a3,3,0,0,1-.73-.31,1.9,1.9,0,0,1-.39-.33,2.7,2.7,0,0,1-.31-.43,2.57,2.57,0,0,1-.25-.65l0-.14a4.68,4.68,0,0,0-.18-.48c-.1-.19-.2-.37-.3-.53s-.37-.55-.54-.77l-.13-.14-.09-.07-.11-.06-.2-.08-.2-.07h-.24l-.09,0-.11,0-.15.08,0,0,0,0a.52.52,0,0,0-.11.1.76.76,0,0,0-.11.14l-.1.17a1.89,1.89,0,0,0-.11.25,5.6,5.6,0,0,0-.17.54c0,.12-.08.24-.11.36s-.11.33-.17.49a2.18,2.18,0,0,1-.23.43A1.82,1.82,0,0,1,135,24l-.07.05a1.49,1.49,0,0,1-.4.21,2,2,0,0,1-.65.12,2.48,2.48,0,0,1-1.35-.28,2.4,2.4,0,0,1-.51-.37c-.13-.13-.26-.27-.41-.45a6,6,0,0,1-.5-.74,2.39,2.39,0,0,0-.13-.21h0l0,0-.07.1c-.11.17-.22.36-.34.56l0,.09a4.72,4.72,0,0,0-.22.54l0,.12-.19.58c-.07.2-.15.39-.22.59l0,.07,0,.09h0v0h0l-.06.18c-.05.14-.09.27-.13.41l-.09.27a4.11,4.11,0,0,1-.29.73c-.11.21-.24.42-.37.62l0,0c-.13.19-.25.38-.38.56l-.09.14h0v0l-.26.37-.21.3,0,0h0c-.15.2-.28.42-.41.63l-.08.13c-.16.25-.32.48-.5.74l-.63.94c-.16.25-.31.52-.45.79l-.11.2h0l-.13.26c-.16.32-.34.66-.52,1l-.24.39-.1.17c-.11.18-.21.37-.32.57s-.11.24-.16.35l0,.12-.06.15h0l0,.1c-.12.27-.24.53-.37.79v0a5.66,5.66,0,0,1-.34.59h0a6.31,6.31,0,0,1,0-1,3,3,0,0,1,.07-.52,3.06,3.06,0,0,1,.17-.48,4.74,4.74,0,0,1,.46-.86c.17-.27.35-.54.51-.82.34-.56.6-1.17.94-1.73s.75-1.09,1.14-1.62c0-.08.11-.15.16-.22l0,0h0l0,0h0l.06-.08,0,0c.12-.17.23-.35.34-.52s.26-.37.4-.55c.26-.37.52-.73.77-1.1h0l.1-.15a4,4,0,0,0,.35-.56A3.12,3.12,0,0,0,129,26c.1-.28.19-.57.29-.85s.23-.6.34-.9v0c.1-.27.18-.54.27-.8a4.41,4.41,0,0,1,.35-.8l.2-.37a.93.93,0,0,1,.53-.48.38.38,0,0,1,.34,0,.9.9,0,0,1,.15.19c.08.12.16.24.23.36l0,0,.08.12h0a4.15,4.15,0,0,0,.43.58l.28.3.2.17.3.18.17.07.21.07.3,0h.29l.29,0,.21-.05.18-.06.13-.08.1-.07a.57.57,0,0,0,.11-.11l.1-.11.13-.21.18-.43c.1-.3.18-.61.27-.92a3.86,3.86,0,0,1,.2-.51,2,2,0,0,1,.35-.47,1.4,1.4,0,0,1,.5-.29,1.09,1.09,0,0,1,.62,0,2.38,2.38,0,0,1,.47.17,2.13,2.13,0,0,1,.73.73,6.36,6.36,0,0,1,.75,1.18v0c.07.16.14.33.2.5s.1.29.16.44l.09.16.08.11.22.23.12.09.11.06.22.1.3.09.53.08.31.05a1.19,1.19,0,0,1,.62.29,2.22,2.22,0,0,1,.49.75,5.71,5.71,0,0,1,.21.58v-.05a3.73,3.73,0,0,1,.2,1.75,1.26,1.26,0,0,1-.36.76A.45.45,0,0,1,142.4,28.67Z" transform="translate(0 0.05)"/><path class="cls-1" d="M116.81,2.12h0c0-.14,0-.28.07-.41s.05-.23.08-.35l0-.12c0-.09,0-.18.05-.26V.81a.25.25,0,0,0,0-.08.09.09,0,0,0,0,0s0,0,0,0l0,0v0a.08.08,0,0,1,0,0,.3.3,0,0,1-.08-.08h0l-.13-.1-.08,0-.06,0h-.29l0,0h0s0,0,0,0,0,0,0,0,0,0,0,0a.78.78,0,0,0,0,.16,1.93,1.93,0,0,0,0,.24,1.93,1.93,0,0,0,0,.27.85.85,0,0,0,0,.17v0a1.19,1.19,0,0,0,.08.2l.09.17c.12.17.25.33.36.47ZM117,11h0a.37.37,0,0,1-.14-.22.86.86,0,0,1,0-.23c0-.13,0-.25,0-.38s0-.41,0-.62,0-.27,0-.41,0-.21,0-.31V8.11c0-.19,0-.39,0-.58h0v0h0c0-.21,0-.41,0-.62h0v0h0l0-.38a3,3,0,0,0,0-.31c0-.12,0-.23-.05-.34s0-.25,0-.37a10.5,10.5,0,0,1,0-1.37c0-.24,0-.47,0-.7s0-.23,0-.35,0-.22,0-.33,0,0,0-.07v0s0,0,0,0l0-.06c-.12-.17-.25-.33-.36-.5a2.4,2.4,0,0,1-.19-.29,1.69,1.69,0,0,1-.18-.52,2.25,2.25,0,0,1,0-.73.77.77,0,0,1,.07-.26A.94.94,0,0,1,116,.1a1,1,0,0,1,.17-.1.73.73,0,0,1,.36,0,.78.78,0,0,1,.38.15,1.27,1.27,0,0,1,.27.25.72.72,0,0,1,.15.57,2.46,2.46,0,0,1-.08.46c0,.15-.07.31-.11.46l-.12.43a.69.69,0,0,0,0,.1l0,.05a.63.63,0,0,1,.07.3c0,.22,0,.44,0,.66l0,.71v.05h0V4.3h0c0,.45,0,.9.08,1.36,0,.25,0,.5,0,.76V7c0,.24,0,.48,0,.72v.37c0,.05,0,.1,0,.14s0,.17,0,.25c0,.45-.07.91-.11,1.37l0,.27h0c0,.11,0,.22,0,.32a1.62,1.62,0,0,0,0,.22A.62.62,0,0,1,117,11Z" transform="translate(0 0.05)"/><path class="cls-1" d="M113.22,4.51h0a2.68,2.68,0,0,1-.18-.33l0-.07c0-.09-.08-.18-.13-.27l-.08-.12-.14-.13a.27.27,0,0,0-.08-.07l-.13-.07-.08,0h-.26l-.06,0,0,0,0,0h0l0,0h0a.08.08,0,0,1,0,0v.08l0,0,0,.06v0l.09.11.16.18.17.13.14.08.06,0,.35.15.24.07Zm3.22,6a.23.23,0,0,1-.1-.07.33.33,0,0,1-.09-.21v0l-.12-.71c0-.19-.07-.38-.1-.57a1.8,1.8,0,0,1,0-.19l-.08-.29c-.11-.3-.22-.61-.34-.91a.08.08,0,0,1,0,0v0l-.12-.15-.07-.11-.14-.2-.13-.2L115,6.74l0,0-.1-.15h0c-.11-.17-.22-.34-.34-.5a5.2,5.2,0,0,0-.35-.47L114,5.45a2.26,2.26,0,0,0,.11.22h0l-.3-.36h0l0,0h0l-.08-.1h0l0,0h0l0-.06h0L113.57,5,113.45,5l-.12,0-.48-.16a2.81,2.81,0,0,1-.47-.21l-.22-.14L112,4.2a1.63,1.63,0,0,1-.17-.2l-.06-.09a1,1,0,0,1-.11-.23.61.61,0,0,1,0-.27.45.45,0,0,1,.17-.24.75.75,0,0,1,.62-.12,1.73,1.73,0,0,1,.24.1,1.14,1.14,0,0,1,.23.15,1.4,1.4,0,0,1,.34.42,3.62,3.62,0,0,1,.2.45l.1.24.06.11a.8.8,0,0,0,.08.16l0,0,.22.16a4.12,4.12,0,0,1,.37.35c.13.14.24.28.35.42s.21.3.3.45l.33.5c.08.13.17.26.25.4l.18.26a1,1,0,0,1,.14.21,1.18,1.18,0,0,1,.07.2l.16.46.11.3.06.24c0,.08,0,.16.07.23l0,.18.09.45c0,.18.07.37.1.56a.56.56,0,0,1,0,.22.29.29,0,0,1-.07.2l0,0Z" transform="translate(0 0.05)"/><path class="cls-1" d="M120.41,1l-.08.1a1.49,1.49,0,0,0-.12.2v0h0c0,.1-.09.21-.13.31s0,.14-.08.2l0,.14-.05.14h0s0,0,.05,0l.17-.14.11-.09.16-.13a2.34,2.34,0,0,0,.23-.22h0l.08-.1.09-.14s0,0,0,0h0l-.06,0,0,0-.1-.06h0l-.1-.05h-.08Zm-2,7.56a.09.09,0,0,1,0,0s0-.06,0-.08h0c0-.17,0-.35,0-.52a1.77,1.77,0,0,0,0-.23c0-.1,0-.2,0-.3h0c0-.08,0-.15,0-.23a.91.91,0,0,1,0-.17,1,1,0,0,1,0-.25c0-.19.05-.37.07-.55v0a1,1,0,0,1,0-.17c0-.06,0-.13,0-.19h0l.09-.4a2.68,2.68,0,0,1,.07-.27c.07-.35.14-.71.2-1.06s.13-.7.21-1a9.61,9.61,0,0,1,.35-1l.18-.48a4.25,4.25,0,0,1,.21-.49c0-.08.09-.15.14-.23l.07-.09a.45.45,0,0,1,.13-.11.49.49,0,0,1,.44,0l.23.11a1,1,0,0,1,.22.19.47.47,0,0,1,.08.26.51.51,0,0,1-.09.27,2.83,2.83,0,0,1-.32.45l-.26.24,0,0-.12.1-.27.23,0,0a2,2,0,0,1-.33.25l-.24.12,0,.12c0,.1,0,.2-.08.3h0v0h0v0h0v0h0s0,0,0,.06v0c-.06.25-.11.51-.16.76v0c-.06.31-.13.61-.21.92l-.12.46c-.06.21-.12.42-.17.62h0l-.06.34a3.5,3.5,0,0,0-.07.45c0,.11,0,.22,0,.32v.59l0,.27h0v.09h0c0,.06,0,.11,0,.17v.13a.19.19,0,0,1,0,.07l0,0A.08.08,0,0,1,118.45,8.52Z" transform="translate(0 0.05)"/><path class="cls-1" d="M124.12,3.39c.14-.09.29-.17.44-.25l.33-.18.15-.11.09-.06.22-.2,0,0v0l.08-.1,0-.06,0-.06s0,0,0-.07,0,0,0-.08v-.1h0V2l0,0h0l0,0,0,0h0l0,0h-.2l-.11,0-.18.07-.22.12-.19.13-.09.07-.16.15a1.24,1.24,0,0,0-.14.18,1.59,1.59,0,0,0-.13.22,1.22,1.22,0,0,0-.07.17,2,2,0,0,0-.07.23c0,.17-.06.34-.09.48v.12h0l.1-.13a1.6,1.6,0,0,1,.23-.21Zm-1.83,5.46a.2.2,0,0,1-.12-.17.61.61,0,0,1,0-.14c0-.14,0-.29.08-.43s.08-.37.12-.56.09-.38.14-.56l.21-.76c0-.17.09-.34.13-.51l0-.2c0-.12.06-.24.1-.36s0,0,0-.07c.09-.43.15-.86.21-1.29,0-.21,0-.43.09-.64a2.77,2.77,0,0,1,.22-.63,1.9,1.9,0,0,1,.26-.37h0l0,0h0a2.24,2.24,0,0,1,.51-.41l.25-.15a1.89,1.89,0,0,1,.33-.13,1.27,1.27,0,0,1,.34,0,.78.78,0,0,1,.56.26A.64.64,0,0,1,126,2a1,1,0,0,1,0,.42,1.14,1.14,0,0,1-.28.46,2.44,2.44,0,0,1-.29.27l-.36.25-.33.17-.35.21h0l-.26.14-.24.1a.31.31,0,0,0-.1,0l-.07,0h0l0,0s0,.05,0,.08a4.37,4.37,0,0,1-.09.5.5.5,0,0,1,0,.12.42.42,0,0,1,0,.12l0,.13s0,.1-.05.15a.11.11,0,0,1,0,.08h0c-.07.22-.13.44-.2.66s-.11.4-.16.59-.09.29-.13.44,0,.11,0,.17c-.07.25-.13.51-.19.77l0,.12c0,.15,0,.3-.07.44a.86.86,0,0,1,0,.17.25.25,0,0,1-.08.16A.13.13,0,0,1,122.29,8.85Z" transform="translate(0 0.05)"/><path class="cls-1" d="M133.56,6.35h0l0,0v0h0V6.16h0v0l0,0,0,0,0,0-.07,0-.1,0-.09,0h-.33l-.17,0-.2,0-.14.06-.21.11,0,0h0l.27.07.36.1.33.05h.32l.11,0h0Zm-.12.53a1.83,1.83,0,0,1-.33,0,3,3,0,0,1-.67-.1c-.21,0-.41-.1-.61-.15l-.37-.06h-.25l-.18,0-.32.08a4.43,4.43,0,0,0-.47.17L130,7l-.45.32-.25.19L129,7.7c-.12.11-.23.23-.34.35l-.29.29-.15.16a.86.86,0,0,1-.14.13l-.14.13a1.62,1.62,0,0,1-.2.18h0l0,0V9l0,.08h0v0h0l0,.09h0l0,0h0v0h0l0,0v0l-.18.37h0c-.09.19-.18.38-.28.56h0c-.06.12-.11.24-.17.35s0,.13-.08.19l0,0,0,.07-.09.05h-.06a.19.19,0,0,1-.1-.05.1.1,0,0,1,0-.05.33.33,0,0,1,0-.14s0-.05,0-.07.07-.13.1-.19.11-.25.17-.37v0l.28-.56h0l.18-.36.1-.2.06-.14a.44.44,0,0,1,.13-.14h0c.07-.06.12-.13.18-.19h0c.13-.14.25-.29.38-.44h0l.25-.27h0l0,0h0l.23-.26.07-.08a1.29,1.29,0,0,1,.17-.16l.16-.13c.19-.15.37-.31.56-.45a2.72,2.72,0,0,1,.65-.35l.33-.11.37-.1a2.32,2.32,0,0,1,.46,0l.1-.1a2.27,2.27,0,0,1,.32-.22l.32-.17a1.84,1.84,0,0,1,.73-.16,2.26,2.26,0,0,1,.37,0,1.48,1.48,0,0,1,.42.14.8.8,0,0,1,.43.55.64.64,0,0,1-.19.6l0,0A.78.78,0,0,1,133.44,6.88Z" transform="translate(0 0.05)"/><path class="cls-1" d="M127.9,4.54v0h0l.19-.25a3.19,3.19,0,0,1,.26-.26l0,0,0,0,.09-.09.14-.15,0,0,0-.05.05-.06,0,0,.08-.13.06-.13,0-.1h0s0-.05,0-.08,0-.06,0-.09V3h0l0,0h-.22l-.05,0-.06,0-.06.05-.16.15-.11.15a2,2,0,0,0-.14.22c0,.09-.08.17-.11.26A1.05,1.05,0,0,0,128,4a1.42,1.42,0,0,0,0,.2c0,.08,0,.15,0,.23v0h0ZM126,10.18a.1.1,0,0,1-.06-.12h0v0h0v0h0v0h0c0-.11,0-.22.07-.34a2.86,2.86,0,0,0,.07-.28h0a1.16,1.16,0,0,1,0-.18h0a1.57,1.57,0,0,1,0-.23l.06-.23c0-.17.09-.33.13-.5a.3.3,0,0,1,0-.1l0-.16.09-.26.15-.49c.1-.32.19-.63.3-1s.21-.65.31-1l.24-1h0a.29.29,0,0,1,0-.09,2.61,2.61,0,0,1,.06-.27h0a2.2,2.2,0,0,1,.46-.93l.16-.18a1.92,1.92,0,0,1,.22-.18.9.9,0,0,1,.36-.12.63.63,0,0,1,.27,0,.51.51,0,0,1,.3.19.59.59,0,0,1,.06.32,1.45,1.45,0,0,1-.06.3h0s0,.09-.05.13a1.42,1.42,0,0,1-.08.18A2.75,2.75,0,0,1,129,4c-.11.12-.22.24-.34.35l-.35.31a3.18,3.18,0,0,1-.37.27h0l-.06,0a.41.41,0,0,0-.11.07c0,.16-.08.32-.13.48-.09.34-.2.67-.32,1s-.25.66-.38,1-.26.63-.38.94h0c-.09.27-.18.54-.26.81l-.12.43-.06.23a1.6,1.6,0,0,0-.05.21.1.1,0,0,1,0,.05A.11.11,0,0,1,126,10.18Z" transform="translate(0 0.05)"/><path class="cls-1" d="M121.5,3.9v0l0,.09-.09.3c0,.16-.05.3-.07.44s0,.42,0,.62v.1c0,.13,0,.26,0,.38v.06h0l.16-.26.21-.36a2.29,2.29,0,0,0,.1-.23.65.65,0,0,0,0-.13.17.17,0,0,0,0-.07.22.22,0,0,0,0-.08V4.72c0-.07,0-.13,0-.19l0-.14a1.16,1.16,0,0,1,0-.18,1.29,1.29,0,0,0,0-.19l0-.06,0,0h0l0,0,0,0h-.09Zm-1,4.81a.14.14,0,0,1-.11-.12.19.19,0,0,1,0-.08v0l.07-.18.06-.2c.06-.17.12-.35.17-.53s.11-.37.16-.57l.12-.5a2.2,2.2,0,0,1-.06-.37l0-.21a1.1,1.1,0,0,1,0-.18c0-.08,0-.16,0-.24s0-.26,0-.4a2.06,2.06,0,0,1,0-.43h0A2.72,2.72,0,0,1,121,4a1.52,1.52,0,0,1,.09-.28.67.67,0,0,1,.06-.12.42.42,0,0,1,.26-.19.52.52,0,0,1,.37,0,.51.51,0,0,1,.16.09l.12.12.08.12a1.11,1.11,0,0,1,.07.26l.06.29c0,.11,0,.22.07.33a1.64,1.64,0,0,1-.29,1l-.15.25-.16.26c-.12.18-.25.34-.38.51-.11.34-.22.68-.32,1,0,.17-.11.33-.17.5l-.06.2-.06.17,0,.06a.16.16,0,0,1,0,.07l0,0A.11.11,0,0,1,120.52,8.71Z" transform="translate(0 0.05)"/><path class="cls-1" d="M120.31,39.11l-.12,0a.34.34,0,0,1-.09-.08.93.93,0,0,0-.14-.14l0,0-.06-.06h0l0,0h0l-.2-.18h0l-.54-.22h0a6.81,6.81,0,0,1-.74-.31l-.42-.21c-.13-.07-.25-.16-.37-.24h0l-.13-.1-.13-.11h0l0,0,0-.05-.18-.17c-.18-.19-.35-.37-.5-.56a4,4,0,0,1-.38-.51l0,0h0a3.32,3.32,0,0,0,.41.32l.6.4.2.12.11.07.19.11.1.06.14.07.1,0,.59.27.67.32.19.1c.13.06.26.11.38.18l.14.11.11.09.23.2.1.11a.3.3,0,0,1,0,.16.22.22,0,0,1-.09.17A.23.23,0,0,1,120.31,39.11Z" transform="translate(0 0.05)"/><path class="cls-1" d="M119.9,38.67a.47.47,0,0,1-.16,0h-.36l-.16,0-.16,0-.12,0-.16-.05-.23-.07-.08,0-.06,0,0,0-.09,0c-.06,0-.1-.08-.15-.11l0,0c-.16-.12-.32-.26-.48-.4l0,0a.8.8,0,0,1-.17-.15l-.1-.11-.1-.11-.12-.13.23.14a2.26,2.26,0,0,0,.26.16h0a3.84,3.84,0,0,1,.4.21l.18.09.12.07.14.09,0,0,.21.08h0l.25.09h0l.45.16.14,0,.15,0h.18a.12.12,0,1,1,.16.18h0a.15.15,0,0,1,0,.06Z" transform="translate(0 0.05)"/><path class="cls-1" d="M120.77,38.91a.24.24,0,0,1-.27,0l-.21-.15-.27-.2-.59-.42-.15-.12s-.09-.12-.14-.17l-.3-.35,0,0c-.11-.13-.22-.27-.34-.4h0a1.56,1.56,0,0,1-.16-.2l-.06-.09h0l0,0,0,0c-.09-.14-.19-.27-.28-.42l-.25-.36-.07-.09c-.06-.1-.13-.19-.2-.29l.53.48.18.18.06.06.24.26,0,.06,0,0,0,0,.08.08.18.17.05.06.53.52.07.09.06.06h0l0,0h0l.41.29.39.27h0l.11.07.16.11a.26.26,0,0,1,.1.2.24.24,0,0,1-.09.16Z" transform="translate(0 0.05)"/><path class="cls-1" d="M120.76,39l-.13-.17v0l-.11-.12s0,0-.06-.06l-.1-.15-.09-.15-.19-.32c-.08-.15-.17-.29-.25-.43a.59.59,0,0,1-.1-.17,2.17,2.17,0,0,1-.07-.24v0c-.06-.18-.1-.36-.15-.54s-.11-.42-.18-.62l0-.11h0s0-.09,0-.14l-.07-.21-.09-.34c-.06-.25-.11-.47-.14-.67a.77.77,0,0,1,0-.15,2.33,2.33,0,0,0,.11.28h0c.06.14.14.28.21.41l.07.14.07.12.06.13.07.13c0,.08.09.17.14.26s0,.09,0,.14l0,.06,0,.07,0,.07c0,.1.07.2.11.31l0,.07.08.24v0l0,.13c0,.05,0,.1,0,.14s0,.07,0,.1,0,.07,0,.1h0l0,.08.05.09,0,.12,0,.11h0l0,.09c.1.19.18.38.29.55a.83.83,0,0,0,.08.12h0l.21.23a.16.16,0,0,1,0,.23h0A.17.17,0,0,1,120.76,39Z" transform="translate(0 0.05)"/><path class="cls-1" d="M121.24,39.15c-.13,0-.19-.17-.18-.28s.06-.4.08-.6h0a.78.78,0,0,0,0-.14l0-.22c0-.26,0-.53.07-.79s0-.21,0-.32,0-.38,0-.57a2.28,2.28,0,0,1,0-.26v-.07l0-.14v-.06c0-.05,0-.09,0-.14s0-.08,0-.13h0v0a.16.16,0,0,1,0-.07.14.14,0,0,1,0-.07v0a1.1,1.1,0,0,1,0-.18v0c0-.05,0-.1,0-.15v0c0-.12,0-.24,0-.36s0-.5-.07-.71l0,.1c.06.17.11.34.16.52v0c.06.22.11.43.18.66,0,0,0,.07,0,.11v0l0,.09a.25.25,0,0,1,0,.09,1.33,1.33,0,0,1,0,.2v0c0,.08,0,.16,0,.24v.38c0,.24,0,.48,0,.72s0,.53-.05.76,0,.3,0,.44h0c0,.22-.06.44-.08.66,0,0,0,.08,0,.11a.34.34,0,0,1-.06.12l-.05.06A.11.11,0,0,1,121.24,39.15Z" transform="translate(0 0.05)"/><path class="cls-1" d="M121.39,39.08a.19.19,0,0,1,0-.27l0-.05c.16-.25.3-.52.44-.78l.14-.25h0l.06-.11v0h0v0h0s0-.09,0-.14v-.19c0-.06,0-.13,0-.2s0-.08,0-.13,0-.2,0-.3v0a2,2,0,0,1,0-.23v-.1a.88.88,0,0,1,0-.17l.06-.61.06-.58c0-.07,0-.14,0-.21.06.38.1.78.13,1.21V36a1.15,1.15,0,0,1,0,.19.76.76,0,0,0,0,.15v.41c0,.16,0,.32,0,.49v.11h0a.41.41,0,0,0,0,.11v0h0a1.28,1.28,0,0,1,0,.19.66.66,0,0,1-.09.19l-.12.23a10,10,0,0,1-.56,1l0,0A.2.2,0,0,1,121.39,39.08Z" transform="translate(0 0.05)"/><path class="cls-1" d="M121.2,39.1a.13.13,0,0,1-.13-.08.25.25,0,0,1,0-.17l.06-.1.06-.11c.07-.15.14-.3.22-.44h0a.75.75,0,0,1,.07-.12h0s0-.11.08-.16h0l0,0h0l.13-.25h0s0-.05,0-.07,0-.08,0-.13a2.64,2.64,0,0,1,0-.29,2.85,2.85,0,0,1,0-.29,3.41,3.41,0,0,1,.06-.43l0-.23c0-.2.07-.41.09-.61,0,.25,0,.51,0,.81v.24c0,.21,0,.43,0,.64h0c0,.07,0,.14,0,.21v0a.78.78,0,0,1,0,.14.2.2,0,0,1,0,.07v0l0,.1-.12.25-.12.26-.18.37-.07.14,0,.09-.06.09,0,0Z" transform="translate(0 0.05)"/><path class="cls-1" d="M121.77,39.5c-.07,0-.17,0-.21,0a.21.21,0,0,1,.07-.22l.29-.23.38-.3.41-.31.17-.13a3.88,3.88,0,0,1,.33-.23h0l0,0,.17-.1,0,0h0l.14-.09.1-.07.17-.11.25-.15a1,1,0,0,1,.19-.12l.22-.15.11-.09.23-.2-.2.27a2.09,2.09,0,0,1-.2.22l0,0a2.52,2.52,0,0,1-.3.27l0,0-.32.26h0l-.09.06-.08.06-.14.1-.1.06,0,0-.18.13,0,0-.06.05-.2.15-.4.32-.38.29-.14.11-.08.07Z" transform="translate(0 0.05)"/><path class="cls-1" d="M122.91,38.23l-.21.13a3.28,3.28,0,0,1-.31.2l-.21.14-.11.09-.12.08a.06.06,0,0,1-.07,0h0s0-.06,0-.09a.6.6,0,0,1,.08-.08l.08-.08,0,0,.09-.07.09-.06.28-.2.2-.14c.13-.1.27-.19.4-.3h0l.07-.05h0a5.67,5.67,0,0,0,.55-.52l.17-.2.1-.12,0,0,.19-.27.06-.08.07-.09.08-.12c-.08.18-.14.33-.22.47a3.18,3.18,0,0,1-.25.41c-.06.09-.13.19-.21.29a3.43,3.43,0,0,1-.47.46l-.08.07h0Z" transform="translate(0 0.05)"/><path class="cls-1" d="M124.44,52.12a.79.79,0,0,1-.89-.45v0c-.09-.14-.18-.28-.26-.43s-.19-.4-.27-.6a8.84,8.84,0,0,1-.35-1.14c-.19-.74-.37-1.49-.59-2.22-.14-.44-.27-.89-.39-1.33-.05-.22-.1-.43-.16-.65s-.12-.42-.17-.63c-.12-.45-.22-.91-.31-1.37s-.15-.9-.22-1.35c0-.19-.07-.39-.1-.58a.59.59,0,0,1,0-.08l-.38-.77-.36-.79q-.12-.26-.27-.51c-.07-.15-.14-.3-.2-.45l0,0h0c0-.05,0-.09-.07-.14h0a.53.53,0,0,1,0-.53.48.48,0,0,1,.38-.25.54.54,0,0,1,.49.26,2.58,2.58,0,0,1,.22.44h0l.15.38a4.26,4.26,0,0,1,.22.63,4.94,4.94,0,0,1,.15.64c.09.42.23.82.3,1.24,0,.14.1.28.14.42.15.47.28.94.39,1.42s.23.92.36,1.37c.07.23.14.45.2.68l.18.67.12.4a14.41,14.41,0,0,0,.64,1.65c.12.26.25.52.38.77s.29.49.43.73.32.51.47.77.13.23.2.35.1.26.16.39a1.31,1.31,0,0,1,.08.21.77.77,0,0,1-.3.79A.84.84,0,0,1,124.44,52.12Z" transform="translate(0 0.05)"/><path class="cls-1" d="M115.17,25.13c0-.4,0-.8-.08-1.2s-.08-.76-.14-1.14l-.06-.4h0l-.06-.34h0l-.09-.48h0c0-.1,0-.2,0-.31h0v0h0c0-.21-.07-.42-.1-.63s0-.37-.07-.55l0-.57v-.58a1,1,0,0,1,0-.17h0l0-.39c0-.13,0-.25,0-.38s-.06-.37-.1-.56-.07-.33-.1-.49-.06-.23-.08-.35,0-.17-.07-.26l-.15-.53h0c0-.15-.1-.3-.16-.45s-.07-.2-.11-.3l-.09-.23-.42-1h0c-.06-.13-.12-.26-.17-.4h0l-.47-1-.15-.33a2.4,2.4,0,0,0-.11-.23c0-.05,0-.11-.08-.16l0-.06-.18-.31,0-.08-.26-.4a.36.36,0,0,0-.07-.1l-.19-.26-.1-.15-.12-.14L111,10a.76.76,0,0,1-.11-.14h0l0,0v0l-.06-.07h0v0h0v0h0l0,0v0l0-.06h0l0,0h0l0,0h0l0,0,0,0,0-.05h0l0-.05v0l0,0h0l0,0h0l-.3-.37-.26-.34a3.33,3.33,0,0,1-.24-.32L109.46,8a.18.18,0,0,1,0-.07l0,0s0,0,0-.07a.34.34,0,0,1,0-.1.15.15,0,0,1,.16-.12l.07,0,.06,0,0,.06,0,.06a.86.86,0,0,1,.07.1c.08.1.15.21.23.32l.13.18.2.25h0l0,0v0l.2.25.17.21h0l.44.54h0l.15.19.24.31.1.14.23.33.3.47.11.19.15.27v0h0c.08.16.16.33.23.5l.24.54.48,1.13c.13.34.27.68.4,1,0,.09.07.18.1.27l.12.32a2.17,2.17,0,0,1,.07.24,1.83,1.83,0,0,1,.08.25l.09.34a2.5,2.5,0,0,1,.07.26c0,.19.09.38.13.57s.08.36.11.54.07.36.09.54,0,.29,0,.44,0,.29,0,.43v.42c0,.15,0,.3,0,.45s0,.38,0,.56,0,.37.07.55c0,.38.11.76.16,1.15s.1.75.13,1.13c0,.2,0,.4,0,.6s0,.38,0,.58h0v.08h0v0h0c0,.07,0,.14,0,.22h0v0h0v.2h0a1.85,1.85,0,0,0,0,.23h0Z" transform="translate(0 0.05)"/><path class="cls-1" d="M114.72,16.71l-.24-1-.21-.88c0-.18-.09-.36-.14-.54s-.07-.28-.1-.42l-.26-1a1.17,1.17,0,0,0,0-.2c0-.13-.06-.25-.1-.37l-.06-.18h0a2.44,2.44,0,0,0-.14-.28,2,2,0,0,0-.1-.21c0-.09-.09-.18-.13-.28L113,11l-.09-.17a2.8,2.8,0,0,0-.15-.3h0l0-.08h0l-.11-.09a.6.6,0,0,1-.08-.08l-.17-.15-.17-.14-.07-.06,0,0a.1.1,0,0,1-.05,0l0,0a.06.06,0,0,1,0,0s0,0,0,0h0l.1.07.08.07.17.14.18.15.1.09a.27.27,0,0,1,.08.07.31.31,0,0,1,.09.11c.06.09.09.18.14.27l0,.06.13.26.19.38c.09.17.17.34.26.5s.09.17.12.26a2.81,2.81,0,0,1,.1.31l.06.27c.08.31.16.61.23.92s.09.38.13.57l0,.13.06.32c.06.28.11.55.16.83s.16.79.23,1.19Z" transform="translate(0 0.05)"/><path class="cls-1" d="M118.34,30.9a.16.16,0,0,1-.08-.06s0,0,0-.05l0-.13c0-.14,0-.29-.07-.43h0c0-.17-.06-.35-.09-.52l-.06-.38-.09-.56c0-.05,0-.1,0-.15s0-.22,0-.33,0-.29,0-.44,0-.21,0-.32a3.84,3.84,0,0,1,0-.48c0-.18,0-.36,0-.54V26h0c0-.15,0-.3,0-.45h0l0-.53c0-.18,0-.37,0-.55h0c0-.1,0-.2,0-.3h0c0-.08,0-.16,0-.24s0-.15,0-.22,0-.14,0-.21,0-.14,0-.21l0-.26s0-.06,0-.09l0-.17,0-.2c0-.06,0-.13.05-.2s0-.18.07-.28,0-.14.06-.22l.12-.39.31-.9.06-.2a2.33,2.33,0,0,1,.07-.25l.06-.25.06-.22.09-.41c0-.09,0-.18.07-.26l.06-.25c.08-.28.16-.56.25-.83l.15-.48c0-.16.09-.32.14-.48s.15-.56.22-.84.09-.32.13-.49l.12-.43c0-.08,0-.15.07-.22s0-.12,0-.18l.15-.44.16-.48.15-.48.09-.36h0c.06-.27.12-.54.17-.82h0c0,.32-.08.64-.14.95a1.7,1.7,0,0,1,0,.22c0,.09,0,.19,0,.28s-.07.3-.11.45-.07.27-.1.4l-.09.38h0l-.09.37h0c0,.12,0,.24-.08.35h0A3.4,3.4,0,0,0,120,16c0,.12,0,.24-.08.36v0l-.09.37v0l-.06.25c0,.05,0,.11,0,.17s-.09.32-.14.47c-.09.31-.18.61-.28.91s-.17.61-.25.91c0,.14-.07.27-.1.4s-.08.32-.13.48a2.17,2.17,0,0,1-.07.24l-.06.2c0,.14-.09.27-.14.41-.1.29-.21.58-.3.88,0,.08-.05.16-.07.24l-.06.28a3.12,3.12,0,0,0-.09.44,1.52,1.52,0,0,0,0,.21l0,.24c0,.07,0,.15,0,.22a1.15,1.15,0,0,0,0,.19c0,.13,0,.27,0,.4v0h0v0h0v.06h0s0,.1,0,.15h0v.05h0c0,.24,0,.48,0,.73s0,.54,0,.82v.53c0,.14,0,.28,0,.41a4.35,4.35,0,0,0,0,.51h0c0,.11,0,.22,0,.34s0,.19,0,.29,0,.29,0,.43,0,.15,0,.22a.77.77,0,0,1,0,.15c0,.16,0,.32.07.49s0,.3.08.45.07.41.1.61h0c0,.09,0,.19,0,.28a.16.16,0,0,1,0,.1l0,.07h0A0,0,0,0,1,118.34,30.9Z" transform="translate(0 0.05)"/><path class="cls-1" d="M119.7,22.62a.32.32,0,0,1,0-.14.5.5,0,0,1,0-.12c0-.1,0-.2.07-.29l.12-.47a.83.83,0,0,0,0-.15l0-.15c.06-.2.12-.41.19-.62s.07-.23.11-.35.09-.28.13-.41l.3-.88c.07-.2.13-.39.2-.58s.09-.25.14-.37c.11-.29.23-.57.35-.85l.12-.29.15-.38h0a1.57,1.57,0,0,1,.09-.23l.09-.26c0-.06,0-.12.07-.19s0-.15.08-.23,0-.11,0-.17,0-.16.08-.25.07-.24.1-.37.07-.29.1-.44h0s0,0,0-.06h0l0-.11h0c0,.17,0,.33-.08.49a1.43,1.43,0,0,1,0,.22c0,.09,0,.18,0,.28a1.62,1.62,0,0,1,0,.19c0,.08,0,.16-.05.25a1.17,1.17,0,0,1,0,.2l-.06.25-.06.19-.09.28c0,.05,0,.1-.05.15l-.11.3a.47.47,0,0,1-.06.15c0,.09-.07.18-.11.28s-.12.28-.19.42-.07.19-.11.28l-.12.27-.27.7h0c-.06.18-.13.37-.2.55l-.24.66h0v0l-.33,1c0,.05,0,.09,0,.13s0,0,0,0a.74.74,0,0,0,0,.14c0,.15-.09.3-.13.45s0,.2-.07.3l0,.1a.31.31,0,0,1-.05.1h0Z" transform="translate(0 0.05)"/><path class="cls-1" d="M122,33.29a2.83,2.83,0,0,1-.11-.31l-.09-.38c0-.11,0-.22,0-.34a1.49,1.49,0,0,0,0-.21l-.06-.59c0-.18,0-.35,0-.53s0-.22,0-.34,0-.24,0-.36a1.82,1.82,0,0,1,0-.33c0-.1,0-.21,0-.31l.09-.52c0-.17.06-.33.08-.49s.07-.36.11-.54a.94.94,0,0,1,0-.16c0-.1,0-.19.07-.29l.09-.33,0-.11c.07-.21.13-.42.2-.63s.19-.57.28-.86.22-.68.32-1,.2-.65.33-1a4.38,4.38,0,0,1,.23-.54l.15-.3.15-.28h0l0,0v0c0-.11.12-.21.18-.32l.17-.28c.14-.21.27-.41.41-.6l0,0,.05-.07,0,0,.08-.1h0c.2-.27.41-.53.62-.79s.43-.53.63-.8.38-.5.58-.74l.3-.38c.09-.13.18-.25.28-.37.39-.55.74-1.11,1.09-1.69l.31-.52h0c-.29.63-.55,1.27-.86,1.89a1.74,1.74,0,0,1-.1.19v0h0v0h0q-.24.45-.51.87c-.19.28-.39.56-.59.83s-.4.56-.61.83-.43.54-.63.81l-.11.14c-.15.21-.29.41-.42.62l-.21.35a3.14,3.14,0,0,0-.18.31v0l-.17.32c-.08.14-.15.29-.22.43l-.09.21c0,.09-.08.18-.11.27s-.12.32-.17.48-.11.33-.17.49c-.1.31-.21.63-.32.94l-.33,1-.12.34s0,.08,0,.12l-.18.61c0,.19-.1.39-.14.58s0,.21-.08.32v0c0,.16-.09.32-.13.47s-.15.4-.2.6,0,.1,0,.16,0,.22,0,.33h0c0,.24,0,.48.06.73l0,.58,0,.38c0,.1,0,.2,0,.3s0,.22,0,.33l0,.3c0,.1,0,.21,0,.32h0Z" transform="translate(0 0.05)"/><path class="cls-1" d="M126.79,22.44a0,0,0,0,1,0,0,.09.09,0,0,1,0-.06.66.66,0,0,1,0-.14,3.47,3.47,0,0,1,.12-.29.36.36,0,0,1,0-.09s0,0,0-.05h0a1.19,1.19,0,0,1,.08-.16l.15-.32c.06-.11.11-.22.16-.32l.07-.15h0l.19-.39c.09-.18.18-.35.26-.53s.26-.5.38-.75l.2-.37h0v0h0a.41.41,0,0,0,.05-.09l.07-.11c0-.06.09-.12.13-.19h0l.08-.1h0v0h0l.14-.18h0c-.11.17-.21.35-.31.53h0a.31.31,0,0,1-.05.1.93.93,0,0,1,0,.1,2,2,0,0,1-.1.21c0,.13-.11.25-.17.37l-.4.84c-.07.15-.14.29-.22.44l-.07.15,0,.05c0,.06,0,.11-.07.16s-.11.21-.16.32-.11.22-.16.32,0,.1-.08.14a1.89,1.89,0,0,1-.11.25l-.06.14c0,.05,0,.09,0,.13h0v0h0v0h0Z" transform="translate(0 0.05)"/><path class="cls-1" d="M125.91,34.81h0a.15.15,0,0,1,0-.07.53.53,0,0,1,0-.12l.09-.21.08-.17a.91.91,0,0,1,.07-.14l0-.07h0l0,0h0c.1-.2.21-.39.31-.58h0l0,0h0a.64.64,0,0,0,.08-.14l.16-.29.2-.35c.07-.14.14-.27.22-.4l.29-.49.22-.35L128,31c.17-.25.33-.51.5-.77l.18-.28.11-.16h0v0h0l.32-.45c.09-.13.19-.25.29-.38l.09-.12.1-.13.06-.07.17-.21.15-.16.32-.34.32-.29.36-.29.4-.29.3-.18h0a10.16,10.16,0,0,1,1-.53h0l.23-.1h0l-.07.05h0a9,9,0,0,0-.94.68l-.24.19h0l0,0h0l-.1.08h0l-.13.11h0l-.12.1h0l0,0h0l-.18.15v0l0,0h0l-.17.13-.27.24c-.09.07-.17.16-.26.24h0c-.21.22-.42.45-.61.68s-.38.48-.55.72l-.25.33h0l-.28.42c-.07.1-.14.19-.2.29l-.56.83-.54.81c-.09.13-.16.26-.25.39l-.2.33-.29.49-.34.61h0c-.06.11-.12.22-.17.33l-.09.21c0,.06,0,.12-.1.16h0Z" transform="translate(0 0.05)"/><path class="cls-1" d="M134,27.59l-.43.29-.48.35-.12.11a.12.12,0,0,0-.05.05s0,0-.07.05a.07.07,0,0,1-.1-.09l.06-.08.08-.09.19-.17.34-.31c.25-.23.52-.43.78-.64h0l.18-.15h0l.19-.16h0l.16-.12.15-.13h0l.54-.45.58-.48h0a6.28,6.28,0,0,1-.38.52,4.51,4.51,0,0,1-.4.47h0l0,0h0c-.13.13-.25.25-.39.37l-.4.34-.1.07Z" transform="translate(0 0.05)"/><path class="cls-1" d="M112.43,31c-.07,0-.13,0-.17-.08l-.11-.1-.39-.41-.3-.32-.27-.3-.65-.71-.32-.34-.36-.37-.61-.59-.64-.64h0l-.29-.26a3.2,3.2,0,0,0-.27-.22.57.57,0,0,0-.13-.08l-.29-.13-.16-.06h0l-.6-.24-.13-.07-.14-.07-.33-.22h0l.4.11.44.08c.15,0,.31,0,.46.09l.31.08a1.43,1.43,0,0,1,.28.13,1,1,0,0,1,.17.13l.17.16.15.16c.43.43.84.9,1.25,1.35l.29.34c.07.08.14.15.2.23l.13.15.61.72.66.75.21.22.29.31h0a.28.28,0,0,1,.11.13s0,0,0,.05Z" transform="translate(0 0.05)"/><path class="cls-1" d="M108.49,25.38a.2.2,0,0,1-.13,0,.25.25,0,0,1-.12,0l-.11-.09-.3-.27c-.21-.19-.42-.37-.62-.57l0,0-.42-.25-.23-.14h0l0,0h0a.82.82,0,0,1,.31,0l.39.09a.64.64,0,0,1,.26.13l.15.11.24.19.45.36.13.11a.37.37,0,0,1,.13.15c0,.07,0,.17,0,.21Z" transform="translate(0 0.05)"/></svg>